<svg width="53" height="11" viewBox="0 0 53 11" fill="none" xmlns="http://www.w3.org/2000/svg">
<g clip-path="url(#clip0_189_517)">
<path d="M15.2341 0.508274C16.6564 0.508274 18.0791 0.486178 19.5003 0.514203C20.9015 0.541688 21.4103 1.41152 20.7248 2.62574C19.3286 5.10159 17.9115 7.56594 16.4737 10.0188C15.7262 11.2928 14.7367 11.2864 13.9908 10.015C12.5702 7.59486 11.1648 5.1659 9.77476 2.72813C9.02026 1.40344 9.52523 0.557318 11.0774 0.524443C12.4624 0.49534 13.8485 0.518514 15.2341 0.518514V0.508274ZM6.66513 10.9533C8.05072 10.9533 9.43685 10.9765 10.8219 10.9468C12.3746 10.914 12.8785 10.0684 12.125 8.74314C10.7378 6.30322 9.33248 3.87444 7.90898 1.45679C7.16256 0.185454 6.17309 0.178449 5.42559 1.45302C3.98844 3.90516 2.57141 6.36933 1.1745 8.84554C0.492217 10.0603 0.99989 10.9296 2.39895 10.9576C3.82065 10.9856 5.24289 10.9641 6.66513 10.9641V10.9538" fill="white"/>
<path d="M26.3153 3.41717L28.7319 10.6879C28.7637 10.7957 28.7265 10.8496 28.6182 10.8496H26.8397C26.8033 10.8509 26.7676 10.8399 26.7383 10.8184C26.7089 10.7969 26.6877 10.7661 26.678 10.731L26.1817 9.11422H23.5458L23.0715 10.7364C23.0637 10.771 23.0435 10.8016 23.0147 10.8225C22.9859 10.8433 22.9506 10.8529 22.9152 10.8496H21.1583C21.043 10.8496 21.0034 10.7957 21.0397 10.6879L23.5296 3.41771C23.5383 3.38357 23.5587 3.35355 23.5873 3.33288C23.6158 3.31221 23.6507 3.30218 23.6859 3.30454H26.1596C26.1947 3.30231 26.2294 3.3124 26.2578 3.33306C26.2863 3.35372 26.3066 3.38366 26.3153 3.41771M24.8284 4.71115L23.9985 7.55671H25.7063L24.8284 4.71115Z" fill="white"/>
<path d="M34.825 3.44403L34.7657 7.22194L34.825 10.7088C34.8277 10.7279 34.8259 10.7473 34.8199 10.7655C34.8138 10.7837 34.8035 10.8003 34.7899 10.8139C34.7763 10.8275 34.7598 10.8377 34.7416 10.8438C34.7233 10.8499 34.7039 10.8516 34.6849 10.8489H33.025C32.9318 10.8489 32.8849 10.8004 32.8849 10.7034L32.9064 10.2292C32.7151 10.4579 32.4759 10.6418 32.2058 10.7681C31.9128 10.8991 31.5944 10.9637 31.2735 10.9573C30.7529 10.9573 30.3127 10.8304 29.9531 10.5768C29.5895 10.3176 29.3065 9.96094 29.1366 9.54797C28.946 9.08593 28.8516 8.5899 28.8591 8.09016C28.8523 7.58661 28.9572 7.08782 29.1662 6.62966C29.3564 6.20884 29.656 5.84682 30.0339 5.58143C30.4076 5.32059 30.8495 5.19035 31.3597 5.19071C31.6549 5.18547 31.9481 5.23953 32.222 5.34969C32.4727 5.45363 32.6965 5.61301 32.8768 5.81587L32.8498 3.44457C32.8472 3.42559 32.8489 3.40625 32.855 3.38807C32.861 3.36988 32.8712 3.35335 32.8848 3.33977C32.8983 3.32619 32.9148 3.31594 32.9329 3.30981C32.9511 3.30368 32.9704 3.30184 32.9894 3.30445H34.687C34.7061 3.30175 34.7255 3.30352 34.7437 3.30961C34.7619 3.31569 34.7785 3.32594 34.7921 3.33953C34.8057 3.35312 34.8159 3.36968 34.822 3.38791C34.8281 3.40614 34.8299 3.42554 34.8272 3.44457M31.8738 9.69617C32.208 9.69617 32.4658 9.56953 32.6472 9.31623C32.8286 9.06293 32.9212 8.66143 32.9247 8.11172C32.9323 7.55841 32.8497 7.14254 32.6768 6.86409C32.504 6.58564 32.2489 6.44624 31.9116 6.44588C31.7019 6.43513 31.4947 6.49594 31.3241 6.61834C31.1664 6.7369 31.046 6.91655 30.963 7.15727C30.8731 7.44855 30.8312 7.75254 30.8391 8.05729C30.8391 8.43777 30.8786 8.74945 30.9576 8.99233C31.0367 9.23521 31.1535 9.41395 31.308 9.52857C31.4724 9.64626 31.6718 9.70512 31.8738 9.69564" fill="white"/>
<path d="M37.0185 10.7732L35.2454 5.46041C35.2098 5.35262 35.2454 5.29873 35.3586 5.29873H37.2071C37.2432 5.29581 37.2791 5.30629 37.3079 5.32816C37.3367 5.35004 37.3565 5.38177 37.3634 5.41729L38.3496 9.23832L39.4598 5.4119C39.4685 5.37666 39.4897 5.34575 39.5194 5.32494C39.5491 5.30412 39.5854 5.29481 39.6215 5.29873H41.1898C41.3008 5.29873 41.3385 5.35262 41.303 5.46041L39.5299 10.7737C39.5203 10.8085 39.499 10.8388 39.4694 10.8595C39.4399 10.8801 39.4041 10.8898 39.3682 10.8869H37.1694C37.1349 10.8887 37.101 10.8784 37.0734 10.8577C37.0458 10.837 37.0264 10.8073 37.0185 10.7737" fill="white"/>
<path d="M44.2718 10.9998C43.6466 10.9998 43.114 10.881 42.6739 10.6435C42.2429 10.4158 41.8901 10.064 41.6612 9.63358C41.4259 9.19704 41.308 8.68236 41.3077 8.08954C41.3073 7.49671 41.4252 6.97934 41.6612 6.53742C41.8896 6.10241 42.242 5.74507 42.6739 5.51075C43.114 5.26823 43.6466 5.14697 44.2718 5.14697C44.897 5.14697 45.4287 5.26554 45.867 5.50267C46.2954 5.72956 46.6449 6.08094 46.8694 6.51047C47.0994 6.94485 47.2144 7.45863 47.2144 8.05181C47.2144 8.645 47.0994 9.16237 46.8694 9.60394C46.6464 10.0393 46.2983 10.398 45.8697 10.6338C45.4314 10.8778 44.8997 10.9999 44.2745 11.0003M44.2745 9.71765C44.4671 9.72487 44.6566 9.66801 44.8134 9.55597C44.9535 9.44818 45.0586 9.27663 45.1287 9.04129C45.1988 8.80596 45.2347 8.48799 45.2365 8.08738C45.2365 7.6954 45.2024 7.37653 45.1341 7.13078C45.0658 6.88503 44.9598 6.70538 44.8161 6.59185C44.6577 6.474 44.4637 6.41407 44.2664 6.42208C44.064 6.41636 43.8659 6.48113 43.7059 6.60532C43.5622 6.72389 43.4562 6.90533 43.388 7.14964C43.3197 7.39396 43.2857 7.71193 43.2861 8.10355C43.2861 8.49481 43.322 8.80829 43.3939 9.04399C43.4657 9.27968 43.5753 9.45034 43.7226 9.55597C43.8858 9.66749 44.0802 9.72413 44.2777 9.71765" fill="white"/>
<path d="M48.8636 10.8494H47.1875C47.1668 10.8514 47.1461 10.848 47.1271 10.8395C47.1082 10.831 47.0919 10.8177 47.0797 10.8009C47.07 10.7821 47.0661 10.7607 47.0685 10.7396C47.0709 10.7185 47.0795 10.6986 47.0932 10.6824L48.6183 7.95539L47.1686 5.46553C47.1553 5.4486 47.1469 5.42826 47.1445 5.40682C47.1422 5.38539 47.1458 5.36372 47.1551 5.34427C47.169 5.32741 47.1869 5.31436 47.2071 5.30635C47.2274 5.29833 47.2494 5.29562 47.271 5.29846H49.0764C49.1121 5.29658 49.1474 5.30598 49.1774 5.32533C49.2074 5.34468 49.2305 5.37299 49.2435 5.40624L49.9872 6.97453L50.704 5.40085C50.7156 5.36812 50.7378 5.34022 50.7671 5.32165C50.7964 5.30308 50.8312 5.29491 50.8657 5.29846H52.4933C52.5141 5.29589 52.5352 5.29876 52.5545 5.30679C52.5739 5.31482 52.5908 5.32773 52.6037 5.34427C52.6135 5.36333 52.6178 5.38466 52.6164 5.40601C52.615 5.42736 52.6078 5.44792 52.5957 5.46553L51.1729 7.99311L52.6711 10.6824C52.6848 10.6986 52.6933 10.7185 52.6957 10.7396C52.6981 10.7607 52.6943 10.7821 52.6846 10.8009C52.6721 10.8181 52.6554 10.8317 52.6359 10.8402C52.6165 10.8487 52.5952 10.8519 52.5741 10.8494H50.7094C50.6753 10.8503 50.6418 10.8403 50.6138 10.8209C50.5857 10.8016 50.5645 10.7738 50.5531 10.7417L49.804 9.1572L49.0333 10.7417C49.0196 10.7744 48.9962 10.8021 48.9664 10.8214C48.9366 10.8406 48.9017 10.8504 48.8663 10.8494" fill="white"/>
</g>
<defs>
<clipPath id="clip0_189_517">
<rect width="51.822" height="10.5" fill="white" transform="translate(0.872437 0.5)"/>
</clipPath>
</defs>
</svg>
