<svg id="Layer_1" data-name="Layer 1" xmlns="http://www.w3.org/2000/svg" viewBox="0 0 261.36 41.6"><defs><style>.cls-1,.cls-2{fill:#fff;}.cls-2{fill-rule:evenodd;}</style></defs><g id="Layer_1-2" data-name="Layer_1"><g id="_2165569860192" data-name=" 2165569860192"><path class="cls-1" d="M114.76,11.22a6.58,6.58,0,0,1,2.66.53,7,7,0,0,1,2.17,1.46,6.86,6.86,0,0,1,1.46,2.17,6.62,6.62,0,0,1,.54,2.66V24.2a6.59,6.59,0,0,1-.54,2.66,6.81,6.81,0,0,1-3.63,3.63,6.59,6.59,0,0,1-2.66.54h-7.61a8.18,8.18,0,0,1-2.65-.43,6.7,6.7,0,0,1-2.17-1.23,5.73,5.73,0,0,1-1.47-1.93,6,6,0,0,1-.53-2.55V24.2a5.18,5.18,0,0,1,.38-2,6.55,6.55,0,0,1,1-1.74,5.12,5.12,0,0,1,1.52-1.26,3.8,3.8,0,0,1,1.84-.48h11.48v-.89a1.69,1.69,0,0,0-.52-1.24,1.73,1.73,0,0,0-1.28-.52h-12.5l1.82-4.89h10.68Zm1.8,11.68H107a1.63,1.63,0,0,0-1.14.44,1.32,1.32,0,0,0-.48,1v.17a1.26,1.26,0,0,0,.52,1.12,2.11,2.11,0,0,0,1.24.36h7.61a1.76,1.76,0,0,0,1.28-.51,1.72,1.72,0,0,0,.52-1.24V22.9Z" transform="translate(0 0)"/><path id="_1" data-name=" 1" class="cls-1" d="M146.12,11.22V24.14a6.71,6.71,0,0,1-.54,2.67A6.79,6.79,0,0,1,144.12,29,7.05,7.05,0,0,1,142,30.46a6.75,6.75,0,0,1-2.66.53h-7.64a6.75,6.75,0,0,1-2.66-.53A7.05,7.05,0,0,1,126.82,29a6.79,6.79,0,0,1-1.46-2.18,6.71,6.71,0,0,1-.54-2.67V11.22h5.07V24.34a1.78,1.78,0,0,0,1.76,1.76h7.64a1.73,1.73,0,0,0,1.28-.52,1.71,1.71,0,0,0,.52-1.24V11.22Z" transform="translate(0 0)"/><path id="_2" data-name=" 2" class="cls-1" d="M161.93,30.92h-5.51a6.62,6.62,0,0,1-2.66-.53,7,7,0,0,1-2.17-1.46,7,7,0,0,1-1.46-2.18,6.53,6.53,0,0,1-.53-2.65V8.77l5.06-3.13v5.58h7l-1.83,4.17h-5.2V24.1a1.73,1.73,0,0,0,.52,1.28,1.7,1.7,0,0,0,1.24.51h3.72l1.79,5Z" transform="translate(0 0)"/><path id="_3" data-name=" 3" class="cls-1" d="M179.5,11a6.71,6.71,0,0,1,2.65.53,6.94,6.94,0,0,1,3.64,3.64,6.71,6.71,0,0,1,.53,2.65V24a6.74,6.74,0,0,1-.53,2.65,6.94,6.94,0,0,1-3.64,3.64,6.71,6.71,0,0,1-2.65.53h-9.3a6.79,6.79,0,0,1-2.66-.53,7.05,7.05,0,0,1-2.17-1.47,6.91,6.91,0,0,1-1.46-2.17,6.57,6.57,0,0,1-.53-2.65V17.83a6.53,6.53,0,0,1,.53-2.65A6.91,6.91,0,0,1,165.37,13a7.05,7.05,0,0,1,2.17-1.47A6.79,6.79,0,0,1,170.2,11Zm1.79,6.65a1.7,1.7,0,0,0-.51-1.24,1.73,1.73,0,0,0-1.28-.52h-9.3a1.78,1.78,0,0,0-1.76,1.76v6.51a1.67,1.67,0,0,0,.52,1.24,1.71,1.71,0,0,0,1.24.52h9.3a1.77,1.77,0,0,0,1.28-.52,1.7,1.7,0,0,0,.51-1.24Z" transform="translate(0 0)"/><path id="_4" data-name=" 4" class="cls-1" d="M205.68,11.15a5.61,5.61,0,0,1,4.45,2,6.67,6.67,0,0,1,1.22,2.17,7.92,7.92,0,0,1,.43,2.65V24.1a6.83,6.83,0,0,1-2,4.86,6.75,6.75,0,0,1-2.17,1.46A6.54,6.54,0,0,1,205,31h-8.58a6.58,6.58,0,0,1-2.65-.54A6.75,6.75,0,0,1,191.56,29a6.83,6.83,0,0,1-2-4.86V3.33L194.63.16v12a3.85,3.85,0,0,1,1.17-.74,3.23,3.23,0,0,1,1.31-.26h8.57Zm1.07,6.65a1.68,1.68,0,0,0-.51-1.24A1.73,1.73,0,0,0,205,16h-8.58a1.76,1.76,0,0,0-1.75,1.76v6.51a1.74,1.74,0,0,0,1.75,1.75H205a1.76,1.76,0,0,0,1.28-.51,1.71,1.71,0,0,0,.51-1.24Z" transform="translate(0 0)"/><path id="_5" data-name=" 5" class="cls-1" d="M236.35,11.22V24.14a6.71,6.71,0,0,1-.54,2.67A6.79,6.79,0,0,1,234.35,29a6.94,6.94,0,0,1-2.17,1.47,6.74,6.74,0,0,1-2.65.53h-7.65a6.75,6.75,0,0,1-2.66-.53A7.05,7.05,0,0,1,217.05,29a7,7,0,0,1-1.46-2.18,6.71,6.71,0,0,1-.54-2.67V11.22h5.07V24.34a1.78,1.78,0,0,0,1.76,1.76h7.65a1.7,1.7,0,0,0,1.27-.52,1.67,1.67,0,0,0,.52-1.24V11.22Z" transform="translate(0 0)"/><path id="_6" data-name=" 6" class="cls-1" d="M261.36,11.22V31.61a8.93,8.93,0,0,1-.71,3.52A9.24,9.24,0,0,1,258.71,38a9,9,0,0,1-2.9,1.95,8.84,8.84,0,0,1-3.51.7H240.9l1.82-5h9.58a4,4,0,0,0,1.57-.32A4.12,4.12,0,0,0,256,33.18a3.81,3.81,0,0,0,.33-1.57V30.06a5.18,5.18,0,0,1-1.21.71,3.39,3.39,0,0,1-1.3.26H246a5.73,5.73,0,0,1-2.53-.54A5.51,5.51,0,0,1,241.52,29a6.8,6.8,0,0,1-1.23-2.17,8.24,8.24,0,0,1-.43-2.66v-13h5.07V24.38a1.73,1.73,0,0,0,.51,1.27,1.69,1.69,0,0,0,1.24.52h7.86a1.78,1.78,0,0,0,1.79-1.79V11.22Z" transform="translate(0 0)"/><path class="cls-1" d="M150.45,40.26V36h1.85a2.5,2.5,0,0,1,1,.18,1.42,1.42,0,0,1,.64.54,1.59,1.59,0,0,1,0,1.65,1.47,1.47,0,0,1-.64.53,2.5,2.5,0,0,1-1,.18H151l.44-.43v1.62Zm2.72,0-1.07-1.55h1.05l1.09,1.55Zm-1.73-1.51-.44-.47h1.24a1,1,0,0,0,.69-.2.67.67,0,0,0,.22-.54.68.68,0,0,0-.22-.55,1,1,0,0,0-.69-.2H151l.44-.47Z" transform="translate(0 0)"/><path id="_1_0" data-name=" 1 0" class="cls-1" d="M156.5,40.31a2.05,2.05,0,0,1-1-.22,1.58,1.58,0,0,1-.89-1.47,1.63,1.63,0,0,1,.23-.88,1.7,1.7,0,0,1,.62-.6,1.93,1.93,0,0,1,.9-.22,1.81,1.81,0,0,1,.87.21,1.51,1.51,0,0,1,.61.59,1.64,1.64,0,0,1,.23.91.49.49,0,0,1,0,.12.53.53,0,0,1,0,.13H155.4v-.55h2.17l-.37.16a.87.87,0,0,0-.1-.44.7.7,0,0,0-.29-.3.82.82,0,0,0-.42-.11.83.83,0,0,0-.43.11.65.65,0,0,0-.29.3,1,1,0,0,0-.11.46v.14a1,1,0,0,0,.12.48.79.79,0,0,0,.34.31,1.13,1.13,0,0,0,.51.1,1.31,1.31,0,0,0,.46-.07,1.41,1.41,0,0,0,.36-.24l.51.55a1.45,1.45,0,0,1-.57.39,2.14,2.14,0,0,1-.79.14Z" transform="translate(0 0)"/><polygon id="_2_1" data-name=" 2 1" class="cls-1" points="158.72 40.26 158.72 35.73 159.68 35.73 159.68 40.26 158.72 40.26"/><path id="_3_2" data-name=" 3 2" class="cls-1" d="M160.56,40.26V37h1v3.28Zm.48-3.74a.59.59,0,0,1-.43-.16.47.47,0,0,1-.16-.37.48.48,0,0,1,.16-.38.59.59,0,0,1,.43-.16.61.61,0,0,1,.43.15.46.46,0,0,1,.16.37.5.5,0,0,1-.16.39A.57.57,0,0,1,161,36.52Z" transform="translate(0 0)"/><path id="_4_3" data-name=" 4 3" class="cls-1" d="M164.42,40.26v-.64l-.06-.14V38.33a.62.62,0,0,0-.19-.48.83.83,0,0,0-.57-.17,1.54,1.54,0,0,0-.52.09,1.17,1.17,0,0,0-.43.22l-.34-.67A2.29,2.29,0,0,1,163,37a2.86,2.86,0,0,1,.77-.1,1.74,1.74,0,0,1,1.17.35,1.4,1.4,0,0,1,.41,1.11v1.87Zm-1,.05a1.47,1.47,0,0,1-.66-.13.94.94,0,0,1-.42-.36.9.9,0,0,1-.15-.51,1,1,0,0,1,.14-.51.92.92,0,0,1,.46-.34,2,2,0,0,1,.81-.13h.87v.56h-.77a.69.69,0,0,0-.46.11.34.34,0,0,0-.12.27.33.33,0,0,0,.14.29.67.67,0,0,0,.39.11.89.89,0,0,0,.43-.11.67.67,0,0,0,.28-.34l.14.44a.85.85,0,0,1-.38.49,1.34,1.34,0,0,1-.7.16Z" transform="translate(0 0)"/><path id="_5_4" data-name=" 5 4" class="cls-1" d="M168.11,40.31a1.45,1.45,0,0,1-.74-.18,1.21,1.21,0,0,1-.48-.56,2.39,2.39,0,0,1-.16-1,2.31,2.31,0,0,1,.17-.95,1.23,1.23,0,0,1,.49-.56,1.44,1.44,0,0,1,.73-.18,1.78,1.78,0,0,1,.83.2,1.5,1.5,0,0,1,.58.59,1.93,1.93,0,0,1,0,1.79,1.56,1.56,0,0,1-.58.59,1.68,1.68,0,0,1-.83.21Zm-1.94-.05V35.73h1v1.91l-.06,1,0,1v.67Zm1.78-.73a.82.82,0,0,0,.42-.11.77.77,0,0,0,.3-.32.9.9,0,0,0,.12-.48.94.94,0,0,0-.12-.49.69.69,0,0,0-.3-.31.73.73,0,0,0-.42-.11.79.79,0,0,0-.43.11.81.81,0,0,0-.3.31,1,1,0,0,0-.11.49,1,1,0,0,0,.11.48.93.93,0,0,0,.3.32A.89.89,0,0,0,168,39.53Z" transform="translate(0 0)"/><polygon id="_6_5" data-name=" 6 5" class="cls-1" points="170.38 40.26 170.38 35.73 171.34 35.73 171.34 40.26 170.38 40.26"/><path id="_7" data-name=" 7" class="cls-1" d="M173.86,40.31a2.07,2.07,0,0,1-1-.22,1.74,1.74,0,0,1-.66-.6,1.78,1.78,0,0,1,0-1.75,1.65,1.65,0,0,1,.63-.6,1.86,1.86,0,0,1,.89-.22,1.75,1.75,0,0,1,.87.21,1.53,1.53,0,0,1,.62.59,1.73,1.73,0,0,1,.22.91v.12a.62.62,0,0,0,0,.13h-2.67v-.55h2.16l-.36.16a.87.87,0,0,0-.11-.44.74.74,0,0,0-.28-.3.89.89,0,0,0-.43-.11.86.86,0,0,0-.43.11.7.7,0,0,0-.29.3,1,1,0,0,0-.11.46v.14a1,1,0,0,0,.12.48.85.85,0,0,0,.34.31,1.13,1.13,0,0,0,.51.1,1.27,1.27,0,0,0,.46-.07,1.41,1.41,0,0,0,.36-.24l.51.55a1.45,1.45,0,0,1-.57.39,2.09,2.09,0,0,1-.78.14Z" transform="translate(0 0)"/><path id="_8" data-name=" 8" class="cls-1" d="M175.91,41.2l.41-1.46.13.55a.63.63,0,0,1-.43-.16.54.54,0,0,1-.17-.42.58.58,0,0,1,.17-.43.65.65,0,0,1,.43-.16.57.57,0,0,1,.42.17.55.55,0,0,1,.16.42.86.86,0,0,1,0,.16.83.83,0,0,1-.05.18,1.91,1.91,0,0,1-.1.27l-.35.88Z" transform="translate(0 0)"/><path id="_9" data-name=" 9" class="cls-1" d="M180.88,40.33a3.51,3.51,0,0,1-1-.13,2.15,2.15,0,0,1-.76-.36l.34-.75a2.33,2.33,0,0,0,.65.33,2.46,2.46,0,0,0,.76.12,1.53,1.53,0,0,0,.47-.06.51.51,0,0,0,.26-.16.36.36,0,0,0,.09-.24.32.32,0,0,0-.13-.27,1,1,0,0,0-.36-.16l-.48-.13a3.58,3.58,0,0,1-.54-.14,2.62,2.62,0,0,1-.48-.22,1,1,0,0,1-.5-.92,1.19,1.19,0,0,1,.2-.66,1.29,1.29,0,0,1,.6-.49,2.47,2.47,0,0,1,1-.18,3.06,3.06,0,0,1,.79.1,2.13,2.13,0,0,1,.69.28l-.31.75a2.32,2.32,0,0,0-.59-.25,2.46,2.46,0,0,0-.59-.08,1.53,1.53,0,0,0-.47.06.6.6,0,0,0-.26.18.36.36,0,0,0-.08.25.3.3,0,0,0,.13.26,1,1,0,0,0,.36.16l.48.13a4.58,4.58,0,0,1,.53.14,2,2,0,0,1,.49.21,1.2,1.2,0,0,1,.36.35,1.08,1.08,0,0,1,.13.56,1.12,1.12,0,0,1-.2.66,1.34,1.34,0,0,1-.6.48,2.46,2.46,0,0,1-1,.19Z" transform="translate(0 0)"/><path id="_10" data-name=" 10" class="cls-1" d="M185.25,40.31a1.44,1.44,0,0,1-.73-.18,1.28,1.28,0,0,1-.49-.56,2.37,2.37,0,0,1-.17-1,2.32,2.32,0,0,1,.16-.95,1.16,1.16,0,0,1,.48-.56,1.49,1.49,0,0,1,.75-.18,1.65,1.65,0,0,1,.83.21,1.52,1.52,0,0,1,.59.59,1.8,1.8,0,0,1,.21.89,1.87,1.87,0,0,1-.21.9,1.61,1.61,0,0,1-1.42.79Zm-1.95,1.14V37h.92v.68l0,1,.06,1v1.85Zm1.78-1.92a.89.89,0,0,0,.43-.11.93.93,0,0,0,.3-.32,1,1,0,0,0,.11-.48,1,1,0,0,0-.11-.49.81.81,0,0,0-.3-.31.79.79,0,0,0-.43-.11.73.73,0,0,0-.42.11.69.69,0,0,0-.3.31.94.94,0,0,0-.11.49.92.92,0,0,0,.11.48.77.77,0,0,0,.3.32A.82.82,0,0,0,185.08,39.53Z" transform="translate(0 0)"/><path id="_11" data-name=" 11" class="cls-1" d="M189.15,40.31a2.12,2.12,0,0,1-1-.22,1.64,1.64,0,0,1-.65-.6,1.62,1.62,0,0,1-.23-.87,1.72,1.72,0,0,1,.22-.88,1.81,1.81,0,0,1,.63-.6,1.87,1.87,0,0,1,.9-.22,1.81,1.81,0,0,1,.87.21,1.51,1.51,0,0,1,.61.59,1.73,1.73,0,0,1,.23.91.49.49,0,0,1,0,.12s0,.09,0,.13h-2.67v-.55h2.17l-.37.16a.87.87,0,0,0-.1-.44.76.76,0,0,0-.29-.3.83.83,0,0,0-.43-.11.89.89,0,0,0-.43.11.76.76,0,0,0-.29.3,1,1,0,0,0-.1.46v.14a1,1,0,0,0,.12.48.82.82,0,0,0,.33.31,1.19,1.19,0,0,0,.51.1,1.37,1.37,0,0,0,.47-.07,1.41,1.41,0,0,0,.36-.24l.51.55a1.45,1.45,0,0,1-.57.39,2.14,2.14,0,0,1-.79.14Z" transform="translate(0 0)"/><path id="_12" data-name=" 12" class="cls-1" d="M193,40.31a2.05,2.05,0,0,1-1-.22,1.67,1.67,0,0,1-.66-.6,1.69,1.69,0,0,1,.62-2.35,1.93,1.93,0,0,1,.9-.22,1.81,1.81,0,0,1,.87.21,1.53,1.53,0,0,1,.62.59,1.73,1.73,0,0,1,.22.91v.12s0,.09,0,.13H191.9v-.55h2.17l-.36.16a.87.87,0,0,0-.11-.44.74.74,0,0,0-.28-.3.89.89,0,0,0-.43-.11.86.86,0,0,0-.43.11.7.7,0,0,0-.29.3,1,1,0,0,0-.11.46v.14a1,1,0,0,0,.12.48.79.79,0,0,0,.34.31,1.13,1.13,0,0,0,.51.1,1.31,1.31,0,0,0,.46-.07,1.41,1.41,0,0,0,.36-.24l.51.55a1.45,1.45,0,0,1-.57.39,2.13,2.13,0,0,1-.78.14Z" transform="translate(0 0)"/><path id="_13" data-name=" 13" class="cls-1" d="M196.64,40.31a1.69,1.69,0,0,1-.84-.21,1.59,1.59,0,0,1-.59-.59,2,2,0,0,1,0-1.79,1.59,1.59,0,0,1,.59-.59,1.8,1.8,0,0,1,.84-.2,1.44,1.44,0,0,1,.73.18,1.27,1.27,0,0,1,.48.56,2.31,2.31,0,0,1,.17.95,2.39,2.39,0,0,1-.16,1,1.16,1.16,0,0,1-.48.56,1.42,1.42,0,0,1-.74.18Zm.16-.78a.82.82,0,0,0,.42-.11.87.87,0,0,0,.31-.32,1,1,0,0,0,.11-.48,1,1,0,0,0-.11-.49.77.77,0,0,0-.31-.31.86.86,0,0,0-.84,0,.77.77,0,0,0-.31.31,1,1,0,0,0-.11.49,1,1,0,0,0,.11.48.87.87,0,0,0,.31.32A.82.82,0,0,0,196.8,39.53Zm.86.73v-.67l0-1-.06-1V35.73h.95v4.53Z" transform="translate(0 0)"/><path id="_14" data-name=" 14" class="cls-1" d="M199.29,41.2l.4-1.46.14.55a.61.61,0,0,1-.43-.16.51.51,0,0,1-.17-.42.58.58,0,0,1,.17-.43.61.61,0,0,1,.42-.16.57.57,0,0,1,.42.17.56.56,0,0,1,.17.42.88.88,0,0,1,0,.16.74.74,0,0,1,0,.18,2.2,2.2,0,0,1-.11.27l-.35.88Z" transform="translate(0 0)"/><path id="_15" data-name=" 15" class="cls-1" d="M203.76,37.71h2.06v.77h-2.06Zm.07,1.76h2.33v.79h-3.31V36h3.23v.79h-2.25v2.69Z" transform="translate(0 0)"/><polygon id="_16" data-name=" 16" class="cls-1" points="206.42 40.26 207.89 38.33 207.88 38.86 206.46 36.97 207.53 36.97 208.42 38.2 208.02 38.22 208.94 36.97 209.96 36.97 208.54 38.84 208.54 38.33 210.01 40.26 208.93 40.26 207.99 38.95 208.39 39.01 207.46 40.26 206.42 40.26"/><path id="_17" data-name=" 17" class="cls-1" d="M212,40.31a2,2,0,0,1-1-.22,1.57,1.57,0,0,1-.65-.6,1.78,1.78,0,0,1,0-1.75,1.71,1.71,0,0,1,.65-.6,2.08,2.08,0,0,1,1-.22,1.84,1.84,0,0,1,.9.22,1.32,1.32,0,0,1,.57.62l-.74.4a.76.76,0,0,0-.32-.34.78.78,0,0,0-.42-.11.82.82,0,0,0-.44.11.77.77,0,0,0-.31.31,1,1,0,0,0-.11.49,1.07,1.07,0,0,0,.11.49.84.84,0,0,0,.75.42.88.88,0,0,0,.42-.11.81.81,0,0,0,.32-.34l.74.4a1.3,1.3,0,0,1-.57.61A1.74,1.74,0,0,1,212,40.31Z" transform="translate(0 0)"/><path id="_18" data-name=" 18" class="cls-1" d="M215.57,40.31a2.07,2.07,0,0,1-1-.22,1.74,1.74,0,0,1-.66-.6,1.78,1.78,0,0,1,0-1.75,1.65,1.65,0,0,1,.63-.6,1.87,1.87,0,0,1,.9-.22,1.81,1.81,0,0,1,.87.21,1.57,1.57,0,0,1,.61.59,1.73,1.73,0,0,1,.23.91s0,.08,0,.12,0,.09,0,.13h-2.67v-.55h2.17l-.37.16a.87.87,0,0,0-.1-.44.76.76,0,0,0-.29-.3.86.86,0,0,0-.43-.11.89.89,0,0,0-.43.11.76.76,0,0,0-.29.3,1,1,0,0,0-.1.46v.14a1,1,0,0,0,.12.48.82.82,0,0,0,.33.31,1.19,1.19,0,0,0,.51.1,1.27,1.27,0,0,0,.46-.07,1.31,1.31,0,0,0,.37-.24l.5.55a1.49,1.49,0,0,1-.56.39,2.14,2.14,0,0,1-.79.14Z" transform="translate(0 0)"/><polygon id="_19" data-name=" 19" class="cls-1" points="217.79 40.26 217.79 35.73 218.74 35.73 218.74 40.26 217.79 40.26"/><polygon id="_20" data-name=" 20" class="cls-1" points="219.63 40.26 219.63 35.73 220.58 35.73 220.58 40.26 219.63 40.26"/><path id="_21" data-name=" 21" class="cls-1" d="M223.1,40.31a2.09,2.09,0,0,1-1-.22,1.63,1.63,0,0,1-.89-1.47,1.63,1.63,0,0,1,.86-1.48,1.87,1.87,0,0,1,.9-.22,1.81,1.81,0,0,1,.87.21,1.51,1.51,0,0,1,.61.59,1.73,1.73,0,0,1,.23.91.49.49,0,0,1,0,.12s0,.09,0,.13H222v-.55h2.17l-.37.16a.87.87,0,0,0-.1-.44.76.76,0,0,0-.29-.3.83.83,0,0,0-.43-.11.89.89,0,0,0-.43.11.76.76,0,0,0-.29.3,1,1,0,0,0-.1.46v.14a1,1,0,0,0,.12.48.82.82,0,0,0,.33.31,1.19,1.19,0,0,0,.51.1,1.37,1.37,0,0,0,.47-.07,1.41,1.41,0,0,0,.36-.24l.51.55a1.53,1.53,0,0,1-.57.39,2.14,2.14,0,0,1-.79.14Z" transform="translate(0 0)"/><path id="_22" data-name=" 22" class="cls-1" d="M227.32,36.93a1.6,1.6,0,0,1,.7.15,1.11,1.11,0,0,1,.48.48,1.63,1.63,0,0,1,.18.82v1.88h-1V38.53a.83.83,0,0,0-.18-.59.61.61,0,0,0-.49-.19.87.87,0,0,0-.4.09.65.65,0,0,0-.28.29,1.1,1.1,0,0,0-.1.51v1.62h-1V37h.91v.91l-.17-.27a1.25,1.25,0,0,1,.51-.51A1.54,1.54,0,0,1,227.32,36.93Z" transform="translate(0 0)"/><path id="_23" data-name=" 23" class="cls-1" d="M231.16,40.31a2,2,0,0,1-.95-.22,1.57,1.57,0,0,1-.65-.6,1.72,1.72,0,0,1,0-1.75,1.71,1.71,0,0,1,.65-.6,2.08,2.08,0,0,1,.95-.22,1.87,1.87,0,0,1,.9.22,1.32,1.32,0,0,1,.57.62l-.74.4a.81.81,0,0,0-.32-.34.78.78,0,0,0-.42-.11.82.82,0,0,0-.44.11.77.77,0,0,0-.31.31.94.94,0,0,0-.11.49,1,1,0,0,0,.11.49.84.84,0,0,0,.75.42.82.82,0,0,0,.74-.45l.74.4a1.3,1.3,0,0,1-.57.61A1.77,1.77,0,0,1,231.16,40.31Z" transform="translate(0 0)"/><path id="_24" data-name=" 24" class="cls-1" d="M234.77,40.31a2.07,2.07,0,0,1-1-.22,1.74,1.74,0,0,1-.66-.6,1.78,1.78,0,0,1,0-1.75,1.65,1.65,0,0,1,.63-.6,1.86,1.86,0,0,1,.89-.22,1.81,1.81,0,0,1,.87.21,1.53,1.53,0,0,1,.62.59,1.73,1.73,0,0,1,.22.91v.12s0,.09,0,.13h-2.66v-.55h2.16l-.36.16a.87.87,0,0,0-.11-.44.74.74,0,0,0-.28-.3.89.89,0,0,0-.43-.11.86.86,0,0,0-.43.11.7.7,0,0,0-.29.3,1,1,0,0,0-.11.46v.14a1,1,0,0,0,.12.48.79.79,0,0,0,.34.31,1.13,1.13,0,0,0,.51.1,1.31,1.31,0,0,0,.46-.07,1.41,1.41,0,0,0,.36-.24l.51.55a1.45,1.45,0,0,1-.57.39,2.09,2.09,0,0,1-.78.14Z" transform="translate(0 0)"/><path class="cls-2" d="M6.68,36c2.18,1.3,3.13,2.57,6.21,3.77a20.3,20.3,0,0,0,16.83-.54c4.43-2.22,4.14-3.24,6-4.19,1.56,1.17,3.42,4,4.76,5.44,1.6,1.7,7.07,1,9.72.89,0-.9-15.5-17.87-16-18.18C31,38.61,9.07,38.2,7,21.93c-.12-6.33,2.7-10.36,6.45-12.71C18,6.4,24.17,6.37,28.28,9.47c2.79,1.44,9.4,10.2,12.28,13.08,4.25,4.24,8,9.47,12.09,13.46,1.9,1.38,3,2.6,5.75,3.66a22.85,22.85,0,0,0,8.2,1.67A20.63,20.63,0,0,0,87.08,22.19a20.35,20.35,0,0,0-1.22-8.48c-1.14-3-2.36-4.26-3.6-6.34-2.12-1.71-3.1-3.08-6.15-4.74A19.62,19.62,0,0,0,67.35.3C57.51-.06,53.75,5.36,51.2,6.64,45.75-1.24,45-.12,36.9.32L48.74,14c1.62,1.63,3.25,4.08,4.39,4.35.63-5,4.31-8.46,8-10.15C66,6,72.24,7.35,75.06,10.3c1.88.83,3.94,4,4.73,7,3.72,14.16-14.31,23.09-23.32,12.82l-13.7-15.3c-1.82-1.81-5.85-7-8.3-9.2C17.73-9.51-6.93,9.62,1.83,28.92c1.8,3.95,2.86,4.4,4.85,7.09Z" transform="translate(0 0)"/><path class="cls-2" d="M63.34,15.67c2.21-1,4.39-2.4,7.53-1.67s4.34,3.14,5.48,3.83c-.31-2.61-2.94-5-5.53-5.51-3.29-.6-6.53,1.31-7.48,3.36ZM59.92,27.56c1.62.22,2.19.89,4.39.59a6.11,6.11,0,0,0,3.55-1.58,11.55,11.55,0,0,1-6.73-.39,7.22,7.22,0,0,1-3.9-4.07s.1,0,.12.12l.21.23c.14.18.19.27.31.43a5.66,5.66,0,0,0,2,2,6.47,6.47,0,0,0,4,1.25c-2.19-1.35-3.65-2.25-4.85-4.52-1.64-3.11-.49-4.93.1-7.87a6.84,6.84,0,0,0-2.16,3.42c-.6,2.07-.14,2.94.33,4.8l-.62-1c-.14-.32-.37-.8-.39-.89a7,7,0,0,0,2.8,6.8l.41.28.29.23.09.09.1.08c-.88-.07-1-.42-1.69-.69a7.14,7.14,0,0,0,7.52,3.24,7.38,7.38,0,0,0,5.56-5.74c-.39.34-.19.23-.52.59l-1.54,1.56c-3.7,3.21-8.49,2.07-9.33,1ZM75.59,22.8l.21,0,.08,2.16c1.51-1.89,1.15-5.53-.7-8-1.22-1.61-5-3.45-7.94-2.11,4.1.89,8,2.41,8.46,7.51l-.24.05c-.27-2.6-2.85-5.61-4.57-5.66,1.15.63,4.65,6,2.11,10.4l-.47.58c-.14.72-.2.44-.34.54.08-.32,0-.11.15-.38,0,0,.08,0,.09-.09s.07,0,.1-.07c.13-1.05.8-1.79.86-3.45A7.45,7.45,0,0,0,72.82,21c-.28-.46-.09-.2-.36-.43.31,9.4-6.62,9.34-8.42,10.22a8.44,8.44,0,0,0,4.88-.14,7.7,7.7,0,0,0,1.78-1l1.21-1.2a1.77,1.77,0,0,1,.28-.23A7.55,7.55,0,0,1,71.07,30a7.27,7.27,0,0,0,3.32-2.62A7.73,7.73,0,0,0,75.59,22.8ZM62.84,12.52c-.25.88-2.88,3.09-2.07,6.37.47-.56,1-3.44,3.69-5.45,2.31-1.71,4.46-1.58,7.65-1.22-.29-.37.18,0-.41-.41L70,11a6.83,6.83,0,0,0-5.16.24c-.87.43-1.36.92-2,1.24.17-.51-.14.05.2-.33s.07-.08.28-.24l2.09-1.37c-1.18-.23-3.12.74-3.93,1.26A6,6,0,0,0,59,14.89c-1.16,3.05,0,7,2,8.15a11.6,11.6,0,0,1-.84-6.14c.31-1.82,1.52-3.82,2.69-4.38Z" transform="translate(0 0)"/></g></g></svg>