<svg width="107" height="25" viewBox="0 0 107 25" fill="none" xmlns="http://www.w3.org/2000/svg">
<g clip-path="url(#clip0_699_14203)">
<g clip-path="url(#clip1_699_14203)">
<path d="M17.6487 4.07609V0.609375H21.7457V4.07609H17.6487Z" fill="#F74713"/>
<path d="M15.7578 0.609375V4.07609H2.8364V21.0945H18.9093V11.6398H12.6062V8.80342H21.7457V23.9309H0V0.609375H15.7578Z" fill="#F74713"/>
<path d="M21.7457 4.70605V8.17277H7.56373V12.2698H18.279V20.4638H3.78187V16.9971H14.4972V15.7365H3.78187V4.70605H21.7457Z" fill="#290508"/>
</g>
</g>
<path d="M26.0196 7.28084C26.0196 5.66724 27.3558 4.54529 29.2972 4.54529C31.1629 4.54529 32.3479 5.579 32.3983 7.24302H30.7847C30.7469 6.44883 30.1796 5.9824 29.272 5.9824C28.2761 5.9824 27.6332 6.46143 27.6332 7.23041C27.6332 7.88594 27.9861 8.25152 28.7551 8.428L30.2048 8.74316C31.7806 9.08353 32.5496 9.89032 32.5496 11.2644C32.5496 12.9788 31.2133 14.0882 29.1837 14.0882C27.2172 14.0882 25.9313 13.0419 25.8935 11.3905H27.5071C27.5197 12.1721 28.15 12.6385 29.1837 12.6385C30.2553 12.6385 30.936 12.1721 30.936 11.4031C30.936 10.7854 30.6208 10.4198 29.8645 10.2559L28.4021 9.92814C26.839 9.58778 26.0196 8.69273 26.0196 7.28084ZM33.0794 6.1967V4.70917H40.0885V6.1967H37.3908V13.9243H35.7772V6.1967H33.0794ZM47.0452 13.9243H41.3219V4.70917H47.0452V6.1967H42.9355V8.56667H46.6166V9.99117H42.9355V12.4368H47.0452V13.9243ZM51.3789 13.9243L47.8995 4.70917H49.614L51.631 10.0164C51.8327 10.5711 52.0092 11.1131 52.2109 11.8569C52.4378 11.0501 52.6269 10.4828 52.8034 10.0164L54.7951 4.70917H56.4718L53.0429 13.9243H51.3789ZM63.3446 13.9243H57.6214V4.70917H63.3446V6.1967H59.235V8.56667H62.916V9.99117H59.235V12.4368H63.3446V13.9243ZM66.7076 13.9243H65.094V4.70917H68.6112C70.7038 4.70917 71.9266 5.76809 71.9266 7.58339C71.9266 8.8188 71.3467 9.70123 70.2626 10.1424L72.0148 13.9243H70.25L68.6868 10.4828H66.7076V13.9243ZM66.7076 6.14628V9.05831H68.6112C69.6323 9.05831 70.2374 8.51625 70.2374 7.58339C70.2374 6.66313 69.6323 6.14628 68.6112 6.14628H66.7076ZM74.3334 13.9243H72.6568L75.9848 4.70917H77.6362L80.9643 13.9243H79.2624L78.5187 11.7939H75.0772L74.3334 13.9243ZM76.6025 7.45732L75.5562 10.4324H78.0522L76.9933 7.45732C76.9177 7.21781 76.8294 6.94047 76.8042 6.75138C76.7664 6.92786 76.6908 7.2052 76.6025 7.45732ZM80.4882 6.1967V4.70917H87.4973V6.1967H84.7995V13.9243H83.1859V6.1967H80.4882ZM96.7697 9.31044C96.7697 12.109 94.9292 14.0756 92.2819 14.0756C89.6472 14.0756 87.8319 12.1216 87.8319 9.31044C87.8319 6.51186 89.6598 4.54529 92.2945 4.54529C94.9292 4.54529 96.7697 6.49925 96.7697 9.31044ZM95.0679 9.31044C95.0679 7.34387 93.9838 6.09585 92.2945 6.09585C90.6053 6.09585 89.5211 7.34387 89.5211 9.31044C89.5211 11.277 90.6053 12.525 92.2945 12.525C93.9838 12.525 95.0679 11.2518 95.0679 9.31044ZM99.8599 13.9243H98.2715V4.70917H99.8725L104.196 11.2392V4.70917H105.785V13.9243H104.196L99.8599 7.39429V13.9243Z" fill="#111C24"/>
<path d="M33.9791 17.399C33.2022 17.399 32.7576 17.9616 32.7576 18.8081C32.7576 19.6814 33.2612 20.1582 33.9845 20.1582C34.6649 20.1582 35.0774 19.7832 35.0774 19.1563V19.1402H33.8934V18.5348H35.715V20.7368H35.1364L35.0935 20.2868C34.8792 20.5868 34.4345 20.7958 33.9041 20.7958C32.8058 20.7958 32.0396 19.9975 32.0396 18.792C32.0396 17.6026 32.8165 16.7561 33.9952 16.7561C34.8899 16.7561 35.581 17.2758 35.6936 18.0741H34.9703C34.847 17.6133 34.4506 17.399 33.9791 17.399ZM37.4628 20.7368H36.777V16.8204H38.2718C39.1612 16.8204 39.6809 17.2704 39.6809 18.0419C39.6809 18.567 39.4344 18.942 38.9736 19.1295L39.7184 20.7368H38.9683L38.3039 19.2742H37.4628V20.7368ZM37.4628 17.4311V18.6688H38.2718C38.7058 18.6688 38.9629 18.4384 38.9629 18.0419C38.9629 17.6508 38.7058 17.4311 38.2718 17.4311H37.4628ZM44.2508 18.7759C44.2508 19.9653 43.4685 20.8011 42.3434 20.8011C41.2237 20.8011 40.4522 19.9707 40.4522 18.7759C40.4522 17.5865 41.229 16.7507 42.3488 16.7507C43.4685 16.7507 44.2508 17.5812 44.2508 18.7759ZM43.5275 18.7759C43.5275 17.9401 43.0667 17.4097 42.3488 17.4097C41.6309 17.4097 41.1701 17.9401 41.1701 18.7759C41.1701 19.6117 41.6309 20.1421 42.3488 20.1421C43.0667 20.1421 43.5275 19.601 43.5275 18.7759ZM45.1837 19.3063V16.8204H45.8695V19.2635C45.8695 19.826 46.1749 20.1368 46.7321 20.1368C47.2893 20.1368 47.6 19.8207 47.6 19.2635V16.8204H48.2858V19.3063C48.2858 20.2225 47.6857 20.8011 46.7321 20.8011C45.7838 20.8011 45.1837 20.2278 45.1837 19.3063ZM50.9991 19.3867H50.1365V20.7368H49.4508V16.8204H50.9991C51.7867 16.8204 52.2957 17.3347 52.2957 18.1009C52.2957 18.8563 51.7813 19.3867 50.9991 19.3867ZM50.8652 17.4311H50.1365V18.7759H50.8545C51.3259 18.7759 51.5778 18.5241 51.5778 18.0955C51.5778 17.6669 51.3206 17.4311 50.8652 17.4311ZM55.6453 16.8204V20.7368H54.9595V16.8204H55.6453ZM57.51 20.7368H56.8349V16.8204H57.5153L59.353 19.5956V16.8204H60.0281V20.7368H59.353L57.51 17.9616V20.7368ZM62.872 20.8011C61.7308 20.8011 60.9914 20.0082 60.9914 18.7813C60.9914 17.5651 61.7576 16.7561 62.9041 16.7561C63.831 16.7561 64.5221 17.2972 64.6561 18.1384H63.9328C63.7988 17.683 63.4077 17.4151 62.888 17.4151C62.1648 17.4151 61.7094 17.9401 61.7094 18.7759C61.7094 19.6064 62.1701 20.1421 62.888 20.1421C63.4184 20.1421 63.8256 19.8635 63.9542 19.4296H64.6668C64.5168 20.2546 63.7988 20.8011 62.872 20.8011ZM69.1768 18.7759C69.1768 19.9653 68.3946 20.8011 67.2695 20.8011C66.1497 20.8011 65.3782 19.9707 65.3782 18.7759C65.3782 17.5865 66.1551 16.7507 67.2748 16.7507C68.3946 16.7507 69.1768 17.5812 69.1768 18.7759ZM68.4535 18.7759C68.4535 17.9401 67.9927 17.4097 67.2748 17.4097C66.5569 17.4097 66.0961 17.9401 66.0961 18.7759C66.0961 19.6117 66.5569 20.1421 67.2748 20.1421C67.9927 20.1421 68.4535 19.601 68.4535 18.7759ZM70.8223 20.7368H70.1365V16.8204H71.6313C72.5207 16.8204 73.0404 17.2704 73.0404 18.0419C73.0404 18.567 72.7939 18.942 72.3331 19.1295L73.0779 20.7368H72.3278L71.6634 19.2742H70.8223V20.7368ZM70.8223 17.4311V18.6688H71.6313C72.0653 18.6688 72.3224 18.4384 72.3224 18.0419C72.3224 17.6508 72.0653 17.4311 71.6313 17.4311H70.8223ZM75.5955 19.3867H74.7329V20.7368H74.0472V16.8204H75.5955C76.3831 16.8204 76.8921 17.3347 76.8921 18.1009C76.8921 18.8563 76.3777 19.3867 75.5955 19.3867ZM75.4616 17.4311H74.7329V18.7759H75.4509C75.9223 18.7759 76.1742 18.5241 76.1742 18.0955C76.1742 17.6669 75.917 17.4311 75.4616 17.4311ZM81.364 18.7759C81.364 19.9653 80.5817 20.8011 79.4566 20.8011C78.3369 20.8011 77.5654 19.9707 77.5654 18.7759C77.5654 17.5865 78.3422 16.7507 79.462 16.7507C80.5817 16.7507 81.364 17.5812 81.364 18.7759ZM80.6407 18.7759C80.6407 17.9401 80.1799 17.4097 79.462 17.4097C78.7441 17.4097 78.2833 17.9401 78.2833 18.7759C78.2833 19.6117 78.7441 20.1421 79.462 20.1421C80.1799 20.1421 80.6407 19.601 80.6407 18.7759ZM83.0095 20.7368H82.3237V16.8204H83.8185C84.7078 16.8204 85.2275 17.2704 85.2275 18.0419C85.2275 18.567 84.9811 18.942 84.5203 19.1295L85.265 20.7368H84.515L83.8506 19.2742H83.0095V20.7368ZM83.0095 17.4311V18.6688H83.8185C84.2524 18.6688 84.5096 18.4384 84.5096 18.0419C84.5096 17.6508 84.2524 17.4311 83.8185 17.4311H83.0095ZM86.5719 20.7368H85.8593L87.2737 16.8204H87.9756L89.39 20.7368H88.6667L88.3506 19.8314H86.888L86.5719 20.7368ZM87.5363 17.9883L87.0916 19.2527H88.1524L87.7023 17.9883C87.6702 17.8865 87.6327 17.7687 87.622 17.6883C87.6059 17.7633 87.5738 17.8812 87.5363 17.9883ZM89.5091 17.4526V16.8204H92.488V17.4526H91.3414V20.7368H90.6557V17.4526H89.5091ZM95.766 20.7368H93.3336V16.8204H95.766V17.4526H94.0194V18.4598H95.5839V19.0652H94.0194V20.1046H95.766V20.7368ZM98.24 20.7368H96.831V16.8204H98.2025C99.3598 16.8204 100.158 17.6187 100.158 18.7866C100.158 19.9385 99.3759 20.7368 98.24 20.7368ZM98.1382 17.4526H97.5168V20.1046H98.1757C98.958 20.1046 99.4348 19.601 99.4348 18.7866C99.4348 17.9562 98.9472 17.4526 98.1382 17.4526Z" fill="#111C24"/>
<defs>
<clipPath id="clip0_699_14203">
<rect width="22.0609" height="23.9518" fill="white" transform="translate(0 0.293945)"/>
</clipPath>
<clipPath id="clip1_699_14203">
<rect width="22.0609" height="23.9518" fill="white" transform="translate(0 0.293945)"/>
</clipPath>
</defs>
</svg>
