<svg width="48" height="48" viewBox="0 0 48 48" fill="none" xmlns="http://www.w3.org/2000/svg">
<path d="M40 41H7V12C7 11.4473 6.55225 11 6 11C5.44775 11 5 11.4473 5 12V42C5 42.5527 5.44775 43 6 43H40C40.5522 43 41 42.5527 41 42C41 41.4473 40.5522 41 40 41Z" fill="#111C24"/>
<path d="M22 39C22.5522 39 23 38.5527 23 38V32C23 31.4473 22.5522 31 22 31H18C17.4477 31 17 31.4473 17 32V38C17 38.5527 17.4477 39 18 39H22ZM19 33H21V37H19V33Z" fill="#111C24"/>
<path d="M10 39H14C14.5522 39 15 38.5527 15 38V30C15 29.4473 14.5522 29 14 29H10C9.44775 29 9 29.4473 9 30V38C9 38.5527 9.44775 39 10 39ZM11 31H13V37H11V31Z" fill="black"/>
<path d="M30 39C30.5522 39 31 38.5527 31 38V26C31 25.4473 30.5522 25 30 25H26C25.4477 25 25 25.4473 25 26V38C25 38.5527 25.4477 39 26 39H30ZM27 27H29V37H27V27Z" fill="black"/>
<path d="M39 21C39 20.4473 38.5522 20 38 20H34C33.4477 20 33 20.4473 33 21V38C33 38.5527 33.4477 39 34 39H38C38.5522 39 39 38.5527 39 38V33C39 32.4473 38.5522 32 38 32C37.4478 32 37 32.4473 37 33V37H35V22H37V25C37 25.5527 37.4478 26 38 26C38.5522 26 39 25.5527 39 25V21Z" fill="black"/>
<path d="M42.707 17.293L40.7418 15.3274C41.5291 14.2522 42 12.9316 42 11.5C42 7.91602 39.084 5 35.5 5C31.916 5 29 7.91602 29 11.5C29 13.0774 29.5659 14.5247 30.504 15.6517L29.1212 17.2219C28.7742 17.0814 28.3969 17 28 17C26.3457 17 25 18.3457 25 20C25 20.3112 25.0611 20.6057 25.1495 20.8881L21.6607 23.5045C21.1847 23.1867 20.6141 23 20 23C18.9567 23 18.0381 23.5366 17.5004 24.347L14.9706 23.709C14.8217 22.1928 13.5546 21 12 21C10.3457 21 9 22.3457 9 24C9 25.6543 10.3457 27 12 27C13.0433 27 13.9619 26.4634 14.4996 25.653L17.0294 26.291C17.1783 27.8072 18.4454 29 20 29C21.6543 29 23 27.6543 23 26C23 25.6888 22.939 25.3944 22.8506 25.1119L26.3394 22.4955C26.8153 22.8133 27.3859 23 28 23C29.6543 23 31 21.6543 31 20C31 19.4734 30.8519 18.9855 30.6127 18.555L32.0064 16.9723C33.0167 17.6196 34.2137 18 35.5 18C36.9318 18 38.2526 17.529 39.3278 16.7415L41.293 18.707C41.6836 19.0977 42.3164 19.0977 42.707 18.707C43.0977 18.3164 43.0977 17.6836 42.707 17.293ZM12 25C11.4487 25 11 24.5518 11 24C11 23.4482 11.4487 23 12 23C12.5513 23 13 23.4482 13 24C13 24.5518 12.5513 25 12 25ZM20 27C19.4487 27 19 26.5518 19 26C19 25.4482 19.4487 25 20 25C20.5513 25 21 25.4482 21 26C21 26.5518 20.5513 27 20 27ZM28 21C27.4487 21 27 20.5518 27 20C27 19.4482 27.4487 19 28 19C28.5513 19 29 19.4482 29 20C29 20.5518 28.5513 21 28 21ZM33.3607 15.4343L34.3788 14.278C34.7259 14.4186 35.1031 14.5 35.5 14.5C37.1543 14.5 38.5 13.1543 38.5 11.5C38.5 9.8457 37.1543 8.5 35.5 8.5C33.8457 8.5 32.5 9.8457 32.5 11.5C32.5 12.0265 32.6482 12.5144 32.8874 12.945L31.8548 14.1176C31.3223 13.3784 31 12.4786 31 11.5C31 9.01855 33.0186 7 35.5 7C37.9814 7 40 9.01855 40 11.5C40 13.9815 37.9814 16 35.5 16C34.7216 16 34 15.7835 33.3607 15.4343ZM34.5 11.5C34.5 10.9482 34.9487 10.5 35.5 10.5C36.0513 10.5 36.5 10.9482 36.5 11.5C36.5 12.0518 36.0513 12.5 35.5 12.5C34.9487 12.5 34.5 12.0518 34.5 11.5Z" fill="#F74713"/>
<path d="M38 30C38.5523 30 39 29.5523 39 29C39 28.4477 38.5523 28 38 28C37.4477 28 37 28.4477 37 29C37 29.5523 37.4477 30 38 30Z" fill="black"/>
</svg>
