<svg width="48" height="50" viewBox="0 0 48 50" fill="none" xmlns="http://www.w3.org/2000/svg">
<path d="M0 6C0 2.68629 2.68629 0 6 0H42C45.3137 0 48 2.68629 48 6V44C48 47.3137 45.3137 50 42 50H6C2.68629 50 0 47.3137 0 44V6Z" fill="white"/>
<path d="M42.707 19.293L40.7417 17.3276C41.529 16.2524 42 14.9317 42 13.5C42 9.91602 39.084 7 35.5 7C31.916 7 29 9.91602 29 13.5C29 15.6499 30.0537 17.5538 31.667 18.7377L28.4087 25.0413C28.2738 25.0227 28.14 25 28 25C27.5015 25 27.0381 25.1338 26.624 25.3498L23.2481 22.1957C23.4084 21.8287 23.5 21.4254 23.5 21C23.5 19.3457 22.1543 18 20.5 18C18.8457 18 17.5 19.3457 17.5 21C17.5 21.7413 17.7804 22.4121 18.2275 22.9361L13.5462 31.0552C13.3685 31.0223 13.187 31 13 31C12.7222 31 12.4584 31.0501 12.2029 31.1211L7 23.6849V14C7 13.4473 6.55273 13 6 13C5.44727 13 5 13.4473 5 14V42C5 42.5527 5.44727 43 6 43H40C40.5527 43 41 42.5527 41 42C41 41.4473 40.5527 41 40 41H36.5V35C36.5 34.4473 36.0527 34 35.5 34C34.9473 34 34.5 34.4473 34.5 35V41H29V30.8157C30.1615 30.4016 31 29.3019 31 28C31 27.2099 30.687 26.4955 30.186 25.9592L33.4418 19.6605C33.7828 19.7748 34.1366 19.8584 34.5 19.9149V27C34.5 27.5527 34.9473 28 35.5 28C36.0527 28 36.5 27.5527 36.5 27V19.9149C37.546 19.7523 38.5084 19.3416 39.3276 18.7417L41.293 20.707C41.6836 21.0976 42.3164 21.0976 42.707 20.707C43.0977 20.3164 43.0977 19.6836 42.707 19.293ZM14 36.8157C15.1615 36.4016 16 35.3019 16 34C16 33.2587 15.7196 32.5879 15.2725 32.0639L19.5 24.7318V41H14V36.8157ZM20.5 20C21.0518 20 21.5 20.4482 21.5 21C21.5 21.5518 21.0518 22 20.5 22C19.9482 22 19.5 21.5518 19.5 21C19.5 20.4482 19.9482 20 20.5 20ZM14 34C14 34.5518 13.5518 35 13 35C12.4482 35 12 34.5518 12 34C12 33.4482 12.4482 33 13 33C13.5518 33 14 33.4482 14 34ZM7 27.1735L10.562 32.2644C10.2114 32.7554 10 33.352 10 34C10 35.3019 10.8385 36.4016 12 36.8157V41H7V27.1735ZM21.5 41V23.8157C21.6304 23.7692 21.7546 23.7135 21.876 23.6501L25.2519 26.8043C25.0916 27.1712 25 27.5746 25 28C25 29.3019 25.8385 30.4016 27 30.8157V41H21.5ZM28 29C27.4482 29 27 28.5518 27 28C27 27.4482 27.4482 27 28 27C28.5518 27 29 27.4482 29 28C29 28.5518 28.5518 29 28 29ZM34.5 13.5C34.5 12.9482 34.9482 12.5 35.5 12.5C36.0518 12.5 36.5 12.9482 36.5 13.5C36.5 14.0518 36.0518 14.5 35.5 14.5C34.9482 14.5 34.5 14.0518 34.5 13.5ZM35.0966 16.4592C35.2299 16.4774 35.3619 16.5 35.5 16.5C37.1543 16.5 38.5 15.1543 38.5 13.5C38.5 11.8457 37.1543 10.5 35.5 10.5C33.8457 10.5 32.5 11.8457 32.5 13.5C32.5 14.2921 32.8143 15.0082 33.3174 15.5449L32.6075 16.9183C31.6329 16.0922 31 14.8748 31 13.5C31 11.0185 33.0185 9 35.5 9C37.9815 9 40 11.0185 40 13.5C40 15.9815 37.9815 18 35.5 18C35.1118 18 34.7413 17.9352 34.3816 17.8424L35.0966 16.4592Z" fill="#F74713"/>
<path d="M35.5 32C36.0523 32 36.5 31.5523 36.5 31C36.5 30.4477 36.0523 30 35.5 30C34.9477 30 34.5 30.4477 34.5 31C34.5 31.5523 34.9477 32 35.5 32Z" fill="#F74713"/>
</svg>
