<svg width="62" height="62" viewBox="0 0 62 62" fill="none" xmlns="http://www.w3.org/2000/svg">
<g clip-path="url(#clip0_206_813)">
<rect width="62" height="62" rx="5.90476" fill="#111C24"/>
<path d="M51.5 27.5L39 53.5C34.2 50.7 26 51.6667 22.5 52.5L7 27.5H51.5Z" fill="url(#paint0_linear_206_813)"/>
<ellipse cx="31" cy="58" rx="14" ry="7" fill="#FDFDFD"/>
<g filter="url(#filter0_d_206_813)">
<ellipse cx="31" cy="58.5" rx="13" ry="6.5" fill="#111C24"/>
</g>
<path d="M20.1519 35.1064V31.9933C20.1519 31.2442 20.7575 30.6333 21.5119 30.6333H40.4935C41.2425 30.6333 41.8535 31.2389 41.8535 31.9933V35.1064" stroke="white" stroke-width="0.75" stroke-miterlimit="10" stroke-linecap="round" stroke-linejoin="round"/>
<path d="M31 35.1064V30.6333" stroke="white" stroke-width="0.75" stroke-miterlimit="10" stroke-linecap="round" stroke-linejoin="round"/>
<path d="M25.5069 28.3012C25.5069 25.2678 27.9666 22.8081 31 22.8081C34.0335 22.8081 36.4931 25.2678 36.4931 28.3012" stroke="white" stroke-width="0.75" stroke-miterlimit="10" stroke-linecap="round" stroke-linejoin="round"/>
<path d="M34.1663 19.6418C34.1663 21.3896 32.7479 22.8081 31.0001 22.8081C29.2522 22.8081 27.8338 21.3896 27.8338 19.6418C27.8338 17.894 29.2522 16.4756 31.0001 16.4756C32.7479 16.4756 34.1663 17.8887 34.1663 19.6418Z" stroke="white" stroke-width="0.75" stroke-miterlimit="10" stroke-linecap="round" stroke-linejoin="round"/>
<path d="M16.4916 45.5245C16.4916 43.5005 18.1331 41.8589 20.1572 41.8589C22.1813 41.8589 23.8228 43.5005 23.8228 45.5245" stroke="white" stroke-width="0.75" stroke-miterlimit="10" stroke-linecap="round" stroke-linejoin="round"/>
<path d="M22.261 39.7497C22.261 40.9131 21.3153 41.8587 20.1519 41.8587C18.9885 41.8587 18.0428 40.9131 18.0428 39.7497C18.0428 38.5863 18.9885 37.6406 20.1519 37.6406C21.3207 37.6406 22.261 38.5863 22.261 39.7497Z" stroke="white" stroke-width="0.75" stroke-miterlimit="10" stroke-linecap="round" stroke-linejoin="round"/>
<path d="M27.3344 45.5245C27.3344 43.5005 28.976 41.8589 31 41.8589C33.0241 41.8589 34.6657 43.5005 34.6657 45.5245" stroke="white" stroke-width="0.75" stroke-miterlimit="10" stroke-linecap="round" stroke-linejoin="round"/>
<path d="M33.1091 39.7497C33.1091 40.9131 32.1635 41.8587 31.0001 41.8587C29.8366 41.8587 28.891 40.9131 28.891 39.7497C28.891 38.5863 29.8366 37.6406 31.0001 37.6406C32.1635 37.6406 33.1091 38.5863 33.1091 39.7497Z" stroke="white" stroke-width="0.75" stroke-miterlimit="10" stroke-linecap="round" stroke-linejoin="round"/>
<path d="M38.1825 45.5245C38.1825 43.5005 39.8241 41.8589 41.8481 41.8589C43.8722 41.8589 45.5138 43.5005 45.5138 45.5245" stroke="white" stroke-width="0.75" stroke-miterlimit="10" stroke-linecap="round" stroke-linejoin="round"/>
<path d="M43.9572 39.7497C43.9572 40.9131 43.0116 41.8587 41.8481 41.8587C40.6847 41.8587 39.7391 40.9131 39.7391 39.7497C39.7391 38.5863 40.6847 37.6406 41.8481 37.6406C43.0116 37.6406 43.9572 38.5863 43.9572 39.7497Z" stroke="white" stroke-width="0.75" stroke-miterlimit="10" stroke-linecap="round" stroke-linejoin="round"/>
<ellipse cx="31" cy="62" rx="14" ry="7" fill="#FDFDFD"/>
<g filter="url(#filter1_d_206_813)">
<ellipse cx="31" cy="62.5" rx="13" ry="6.5" fill="#111C24"/>
</g>
<ellipse cx="31" cy="62" rx="9" ry="4.5" fill="#FDFDFD"/>
<g filter="url(#filter2_d_206_813)">
<ellipse cx="31" cy="62.3216" rx="8.35714" ry="4.17857" fill="#111C24"/>
</g>
<ellipse cx="31" cy="64.5" rx="9" ry="4.5" fill="#FDFDFD"/>
<g filter="url(#filter3_d_206_813)">
<ellipse cx="31" cy="64.8216" rx="8.35714" ry="4.17857" fill="#111C24"/>
</g>
</g>
<defs>
<filter id="filter0_d_206_813" x="-32" y="27" width="126" height="113" filterUnits="userSpaceOnUse" color-interpolation-filters="sRGB">
<feFlood flood-opacity="0" result="BackgroundImageFix"/>
<feColorMatrix in="SourceAlpha" type="matrix" values="0 0 0 0 0 0 0 0 0 0 0 0 0 0 0 0 0 0 127 0" result="hardAlpha"/>
<feOffset dy="25"/>
<feGaussianBlur stdDeviation="25"/>
<feColorMatrix type="matrix" values="0 0 0 0 0 0 0 0 0 0 0 0 0 0 0 0 0 0 0.25 0"/>
<feBlend mode="normal" in2="BackgroundImageFix" result="effect1_dropShadow_206_813"/>
<feBlend mode="normal" in="SourceGraphic" in2="effect1_dropShadow_206_813" result="shape"/>
</filter>
<filter id="filter1_d_206_813" x="-32" y="31" width="126" height="113" filterUnits="userSpaceOnUse" color-interpolation-filters="sRGB">
<feFlood flood-opacity="0" result="BackgroundImageFix"/>
<feColorMatrix in="SourceAlpha" type="matrix" values="0 0 0 0 0 0 0 0 0 0 0 0 0 0 0 0 0 0 127 0" result="hardAlpha"/>
<feOffset dy="25"/>
<feGaussianBlur stdDeviation="25"/>
<feColorMatrix type="matrix" values="0 0 0 0 0 0 0 0 0 0 0 0 0 0 0 0 0 0 0.25 0"/>
<feBlend mode="normal" in2="BackgroundImageFix" result="effect1_dropShadow_206_813"/>
<feBlend mode="normal" in="SourceGraphic" in2="effect1_dropShadow_206_813" result="shape"/>
</filter>
<filter id="filter2_d_206_813" x="-9.49997" y="42.0716" width="81" height="72.6426" filterUnits="userSpaceOnUse" color-interpolation-filters="sRGB">
<feFlood flood-opacity="0" result="BackgroundImageFix"/>
<feColorMatrix in="SourceAlpha" type="matrix" values="0 0 0 0 0 0 0 0 0 0 0 0 0 0 0 0 0 0 127 0" result="hardAlpha"/>
<feOffset dy="16.0714"/>
<feGaussianBlur stdDeviation="16.0714"/>
<feColorMatrix type="matrix" values="0 0 0 0 0 0 0 0 0 0 0 0 0 0 0 0 0 0 0.25 0"/>
<feBlend mode="normal" in2="BackgroundImageFix" result="effect1_dropShadow_206_813"/>
<feBlend mode="normal" in="SourceGraphic" in2="effect1_dropShadow_206_813" result="shape"/>
</filter>
<filter id="filter3_d_206_813" x="-9.49997" y="44.5716" width="81" height="72.6426" filterUnits="userSpaceOnUse" color-interpolation-filters="sRGB">
<feFlood flood-opacity="0" result="BackgroundImageFix"/>
<feColorMatrix in="SourceAlpha" type="matrix" values="0 0 0 0 0 0 0 0 0 0 0 0 0 0 0 0 0 0 127 0" result="hardAlpha"/>
<feOffset dy="16.0714"/>
<feGaussianBlur stdDeviation="16.0714"/>
<feColorMatrix type="matrix" values="0 0 0 0 0 0 0 0 0 0 0 0 0 0 0 0 0 0 0.25 0"/>
<feBlend mode="normal" in2="BackgroundImageFix" result="effect1_dropShadow_206_813"/>
<feBlend mode="normal" in="SourceGraphic" in2="effect1_dropShadow_206_813" result="shape"/>
</filter>
<linearGradient id="paint0_linear_206_813" x1="29.25" y1="27.5" x2="29.25" y2="53.5" gradientUnits="userSpaceOnUse">
<stop stop-color="#5993BD" stop-opacity="0"/>
<stop offset="1" stop-color="#1E3240"/>
</linearGradient>
<clipPath id="clip0_206_813">
<rect width="62" height="62" rx="5.90476" fill="white"/>
</clipPath>
</defs>
</svg>
