<svg width="48" height="50" viewBox="0 0 48 50" fill="none" xmlns="http://www.w3.org/2000/svg">
<path d="M40 30H39C38.4478 30 38 30.4473 38 31C38 31.5527 38.4478 32 39 32H40C40.5513 32 41 32.4482 41 33V41C41 41.5518 40.5513 42 40 42H30C29.4487 42 29 41.5518 29 41V33C29 32.4482 29.4487 32 30 32H31C31.5522 32 32 31.5527 32 31C32 30.4473 31.5522 30 31 30H30C28.3457 30 27 31.3457 27 33V36H25V26H30C30.5522 26 31 25.5522 31 25V23C31 21.6165 30.0538 20.4605 28.7781 20.1152L26.6364 12.9845C27.4658 12.251 28 11.1915 28 10C28 7.79443 26.2056 6 24 6C21.7944 6 20 7.79443 20 10C20 11.1915 20.5342 12.251 21.3636 12.9845L19.2219 20.1152C17.9461 20.4605 17 21.6165 17 23V25C17 25.5522 17.4478 26 18 26H23V36H21V33C21 31.3457 19.6543 30 18 30H8C6.3457 30 5 31.3457 5 33V41C5 42.6543 6.3457 44 8 44H18C19.6543 44 21 42.6543 21 41V38H27V41C27 42.6543 28.3457 44 30 44H40C41.6543 44 43 42.6543 43 41V33C43 31.3457 41.6543 30 40 30ZM8.15118 42L10.5532 39.0723L12.9749 42H8.15118ZM15.5709 42L14.1832 40.3226L15.4497 38.6543L17.9855 42H15.5709ZM19 40.027C19 40.027 16.2511 36.4008 16.2471 36.3955C15.8526 35.8752 15.0478 35.8763 14.6538 36.3955L12.8739 38.7402C12.8739 38.7402 11.3218 36.8642 11.3203 36.8623C10.9237 36.3829 10.1704 36.3855 9.77684 36.8662L7 40.2512V33C7 32.4482 7.44873 32 8 32H18C18.5513 32 19 32.4482 19 33V40.027ZM24 8C25.103 8 26 8.89697 26 10C26 11.103 25.103 12 24 12C22.897 12 22 11.103 22 10C22 8.89697 22.897 8 24 8ZM23.1729 13.9117C23.4401 13.9682 23.7162 14 24 14C24.2838 14 24.5599 13.9682 24.8271 13.9117L26.6558 20H21.3442L23.1729 13.9117ZM19 24V23C19 22.4487 19.4487 22 20 22H28C28.5513 22 29 22.4487 29 23V24H19Z" fill="#111C24"/>
<path d="M13 35.5C13.5523 35.5 14 35.0523 14 34.5C14 33.9477 13.5523 33.5 13 33.5C12.4477 33.5 12 33.9477 12 34.5C12 35.0523 12.4477 35.5 13 35.5Z" fill="#E14111"/>
<path d="M35 32C35.5523 32 36 31.5523 36 31C36 30.4477 35.5523 30 35 30C34.4477 30 34 30.4477 34 31C34 31.5523 34.4477 32 35 32Z" fill="black"/>
<path d="M31.7959 38.3383C31.7959 39.208 32.249 39.9804 33.0078 40.4043C33.7408 40.8137 34.6686 40.8061 35.4023 40.354L37.5776 39.0156C38.2827 38.5815 38.7041 37.8281 38.7041 37C38.7041 36.1718 38.2827 35.4184 37.5776 34.9848L35.4023 33.646C34.6626 33.1909 33.7676 33.1714 33.0078 33.5957C32.249 34.0195 31.7959 34.792 31.7959 35.6616V38.3383ZM33.7959 35.6616C33.7959 35.475 33.913 35.3813 33.9834 35.3415C34.1034 35.2738 34.237 35.2767 34.3545 35.3491L36.5298 36.6884C36.6816 36.7812 36.7041 36.9233 36.7041 37C36.7041 37.0766 36.6816 37.2187 36.5298 37.312L34.3545 38.6508C34.1958 38.747 34.0542 38.6982 33.9839 38.6587C33.9136 38.6191 33.7959 38.5254 33.7959 38.3383L33.7959 35.6616Z" fill="#F74713"/>
</svg>
