<svg width="456" height="329" viewBox="0 0 456 329" fill="none" xmlns="http://www.w3.org/2000/svg">
<path d="M224.488 237.991C264.936 237.991 297.725 205.202 297.725 164.753C297.725 124.305 264.936 91.5156 224.488 91.5156C184.039 91.5156 151.25 124.305 151.25 164.753C151.25 205.202 184.039 237.991 224.488 237.991Z" fill="#E8E8E8"/>
<g opacity="0.15">
<path d="M151.997 175.221C157.637 176.348 157.942 190.532 160.983 195.62C161.434 196.372 161.922 197.143 162.658 197.618C163.394 198.092 164.459 198.18 165.103 197.585C165.694 197.035 166 196.047 165.982 195.238C165.912 190.753 164.688 186.291 165.494 181.835C166.079 178.607 168.423 176.166 170.289 173.613C172.266 170.891 173.334 167.751 174.523 164.633C175.711 161.515 176.72 158.235 177.104 154.873C177.544 150.918 177.544 145.33 173.659 142.984C171.324 141.573 168.012 140.252 167.507 137.205C167.287 135.807 167.619 134.364 168.219 133.081C170.067 129.126 174.67 126.203 174.854 121.554C174.925 119.796 173.927 118.287 173.336 116.694L163.181 134.509C163.181 134.509 163.675 162.306 162.932 162.923C162.19 163.541 154.409 167.248 154.409 167.248L151.443 170.46L151.997 175.221Z" fill="black"/>
</g>
<g opacity="0.15">
<path d="M220.475 126.524C221.587 127.908 226.133 128.132 224.402 125.599C223.165 123.788 218.577 124.162 220.475 126.524Z" fill="black"/>
</g>
<g opacity="0.15">
<path d="M206.666 130.743C207.397 130.748 208.108 130.503 208.681 130.05C209.255 129.596 209.657 128.961 209.821 128.249C210.333 125.718 206.965 123.584 204.943 125.188C202.728 126.944 203.739 130.642 206.666 130.743Z" fill="black"/>
</g>
<g opacity="0.15">
<path d="M203.715 136.486C204.611 137.892 206.266 138.576 207.615 139.562C208.454 140.173 209.25 141.045 209.219 142.083C209.193 143.071 208.384 143.906 207.461 144.258C206.539 144.609 205.515 144.576 204.528 144.5C203.267 144.403 201.979 144.234 200.852 143.656C199.725 143.078 198.778 142.014 198.655 140.753C198.558 139.775 198.98 138.859 198.991 137.897C199.004 136.708 198.459 136.095 197.829 135.161C197.033 133.986 196.686 132.485 197.829 131.371C199.028 130.202 200.944 130.552 201.891 131.835C202.895 133.19 202.808 135.062 203.715 136.486Z" fill="black"/>
</g>
<g opacity="0.15">
<path d="M209.496 148.037C208.645 148.246 207.78 148.463 207.039 148.931C206.299 149.399 205.699 150.177 205.67 151.052C205.642 151.968 206.253 152.809 207.033 153.299C207.813 153.789 208.738 153.959 209.647 154.093C211.798 154.389 213.978 154.416 216.149 154.44C216.632 154.44 217.14 154.44 217.568 154.22C218.28 153.847 218.568 152.875 218.258 152.133C218.086 151.767 217.813 151.459 217.471 151.245C217.129 151.03 216.733 150.918 216.329 150.922C216.142 150.338 216.933 149.968 217.305 149.481C218.641 147.723 215.747 147.064 214.642 147.112C212.915 147.193 211.168 147.626 209.496 148.037Z" fill="black"/>
</g>
<g opacity="0.15">
<path d="M222.78 211.249C222.685 211.763 222.726 212.293 222.899 212.787C223.255 213.637 224.169 214.075 224.949 214.562C226.306 215.391 227.39 216.6 228.065 218.041C228.467 218.933 228.656 220.049 228.078 220.838C227.5 221.626 226.359 221.782 225.388 221.631C224.417 221.479 223.479 221.095 222.497 221.075C220.405 221.035 218.531 222.644 216.441 222.547C215.31 222.494 214.244 221.934 213.365 221.229C212.865 220.858 212.458 220.375 212.179 219.818C211.519 218.328 212.425 216.553 213.704 215.54C214.257 215.101 214.901 214.729 215.242 214.114C215.421 213.736 215.557 213.339 215.646 212.93C216.252 210.849 217.97 209.195 219.981 208.456C220.671 208.201 222.367 207.646 223.057 208.127C223.907 208.713 222.894 210.333 222.78 211.249Z" fill="black"/>
</g>
<g opacity="0.15">
<path d="M296.02 181.31C296.02 181.31 297.611 174.098 296.24 171.657C294.869 169.216 269.073 124.333 269.073 124.333C268.575 126.665 266.819 128.409 265.778 130.486C264.591 132.832 263.8 135.447 262.095 137.501C260.612 139.294 258.672 140.617 256.685 141.79C252.708 144.141 248.162 146.099 245.803 150.324C243.891 153.746 243.245 157.736 241.188 161.108C240.1 162.846 238.78 164.427 237.264 165.808C233.637 169.15 229.253 171.358 225.274 174.206C222.013 176.539 218.847 179.884 220.174 184.212C221.46 188.407 226.291 190.244 229.277 192.986C231.694 195.212 233.177 198.112 231.947 201.37C230.987 203.906 229.84 206.303 229.31 208.986C228.941 210.873 228.431 214.699 231.086 215.151C232.125 215.331 233.199 214.85 233.942 214.094C235.612 212.372 235.509 210.084 235.673 207.87C235.843 205.604 236.858 204.192 238.75 203.016C243.22 200.245 247.511 197.195 251.597 193.882C253.559 192.291 256.226 190.246 256.76 187.62C256.879 187.118 256.86 186.594 256.705 186.102C255.879 183.795 248.806 182.309 252.761 179.332C253.57 178.724 254.633 178.539 255.64 178.616C257.353 178.746 258.911 179.545 260.651 179.552C262.488 179.552 264.22 178.688 265.705 177.614C267.362 178.565 268.122 180.554 267.99 182.397C267.781 185.339 266.195 187.743 265.191 190.43C264.558 192.129 263.664 194.983 265.784 196.033C268.627 197.444 269.451 192.542 270.471 191.035C271.976 188.813 273.863 193.742 274.426 194.847C275.461 196.868 276.913 198.802 279.44 197.864C281.268 197.18 282.516 195.227 283.217 193.493C284.5 190.283 285.414 187.011 288.545 185.089C291.327 183.388 293.377 183.23 296.02 181.31Z" fill="black"/>
</g>
<g opacity="0.15">
<path d="M262.649 104.519C262.954 105.877 262.706 107.736 261.77 108.755C259.647 111.089 255.545 111.256 252.612 111.062C250.303 110.911 247.628 110.346 245.8 108.839C245.097 108.259 243.564 105.725 242.432 106.422C241.16 107.202 241.437 109.849 240.479 111.049C239.975 111.681 239.302 112.157 238.537 112.421C237.773 112.685 236.95 112.725 236.163 112.539C234.116 112.071 232.551 110.627 230.589 109.95C227.098 108.749 225.434 110.948 223.672 113.598C220.17 118.871 215.455 122.659 208.731 121.569C207.079 121.301 203.932 119.361 202.476 120.853C201.773 121.574 201.878 122.741 201.471 123.659C201.241 124.155 200.865 124.569 200.395 124.847C199.924 125.126 199.38 125.255 198.835 125.219C198.292 125.163 197.78 124.944 197.364 124.591C196.948 124.238 196.649 123.768 196.506 123.241C196.374 122.714 196.407 122.158 196.286 121.629C195.884 119.809 193.801 118.803 191.938 118.873C190.075 118.944 188.35 119.794 186.601 120.433C184.852 121.073 182.865 121.506 181.16 120.756C179.014 119.814 178.084 117.318 178.126 115.11C178.163 112.985 178.959 110.935 179.741 108.979L219.326 101.663L235.025 103.996L245.526 100.07L262.649 104.519Z" fill="black"/>
</g>
<path opacity="0.15" d="M153.159 182.013C153.159 182.013 222.22 244.218 295.827 182.013C295.827 182.013 283.356 235.845 226.017 237.873C226.012 237.873 170.194 241.632 153.159 182.013Z" fill="black"/>
<path opacity="0.15" d="M235.427 214.815C234.529 216.041 234.069 217.671 234.524 219.117C234.979 220.563 236.502 221.708 237.991 221.451C239.38 221.211 240.349 219.959 241.019 218.719C241.347 218.119 241.636 217.499 241.887 216.863C242.092 216.439 242.185 215.97 242.158 215.501C241.738 212.319 236.831 212.897 235.427 214.815Z" fill="black"/>
<path opacity="0.15" d="M252.981 201.801C251.973 202.541 250.944 203.405 250.604 204.609C250.263 205.813 250.703 207.101 251.548 207.984C252.394 208.867 253.605 209.342 254.82 209.465C255.404 209.542 255.998 209.487 256.558 209.302C257.041 209.109 257.48 208.821 257.85 208.456C259.483 206.938 260.28 204.739 260.884 202.592C261.348 200.946 261.324 198.092 258.938 198.27C257.037 198.413 254.455 200.711 252.981 201.801Z" fill="black"/>
<path d="M220.741 124.518C221.853 125.902 226.399 126.126 224.668 123.593C223.431 121.783 218.843 122.156 220.741 124.518Z" fill="#111C24"/>
<path d="M206.932 128.737C207.663 128.741 208.374 128.497 208.947 128.044C209.521 127.59 209.923 126.955 210.087 126.243C210.599 123.71 207.231 121.578 205.209 123.18C202.994 124.938 204.005 128.636 206.932 128.737Z" fill="#111C24"/>
<path d="M203.983 134.478C204.882 135.884 206.536 136.568 207.885 137.554C208.725 138.165 209.52 139.037 209.489 140.074C209.461 141.063 208.654 141.898 207.732 142.25C206.809 142.601 205.787 142.568 204.8 142.491C203.537 142.393 202.249 142.226 201.125 141.648C200 141.07 199.048 140.006 198.927 138.745C198.831 137.767 199.25 136.851 199.263 135.889C199.277 134.7 198.73 134.087 198.099 133.153C197.304 131.976 196.959 130.477 198.099 129.361C199.299 128.194 201.212 128.543 202.159 129.827C203.161 131.176 203.073 133.057 203.983 134.478Z" fill="#111C24"/>
<path d="M209.762 146.031C208.911 146.24 208.044 146.457 207.305 146.925C206.567 147.393 205.965 148.169 205.936 149.046C205.908 149.962 206.519 150.803 207.299 151.293C208.079 151.783 209.004 151.953 209.913 152.087C212.064 152.383 214.242 152.41 216.415 152.434C216.898 152.434 217.404 152.434 217.832 152.214C218.546 151.84 218.834 150.869 218.522 150.127C218.35 149.761 218.078 149.453 217.736 149.238C217.395 149.023 216.999 148.911 216.595 148.914C216.406 148.332 217.199 147.962 217.571 147.475C218.907 145.717 216.011 145.058 214.908 145.106C213.181 145.187 211.432 145.62 209.762 146.031Z" fill="#111C24"/>
<path d="M234.744 216.931C234.705 217.564 234.744 218.282 235.206 218.706C235.52 218.99 235.964 219.073 236.381 219.146C236.764 219.229 237.161 219.234 237.546 219.159C238.027 219.034 238.411 218.682 238.758 218.326C240.132 216.92 243.342 213.567 240.011 212.545C238.931 212.234 237.772 212.347 236.772 212.862C235.063 213.763 234.843 215.134 234.744 216.931Z" fill="#111C24"/>
<path d="M254.519 200.533C253.739 201.038 252.895 201.454 252.164 202.027C251.432 202.601 250.797 203.374 250.639 204.29C250.589 204.503 250.587 204.724 250.632 204.938C250.677 205.152 250.769 205.353 250.9 205.527C251.045 205.676 251.212 205.802 251.395 205.901C252.035 206.33 252.731 206.671 253.462 206.914C254.203 207.133 255.038 207.118 255.701 206.725C256.157 206.413 256.548 206.016 256.853 205.556C257.87 204.218 262.009 199.184 260.39 197.365C258.971 195.765 255.506 199.898 254.519 200.533Z" fill="#111C24"/>
<path d="M222.152 209.628C222.059 210.142 222.1 210.672 222.273 211.166C222.627 212.016 223.543 212.453 224.323 212.941C225.68 213.769 226.763 214.979 227.436 216.419C227.838 217.311 228.027 218.427 227.449 219.216C226.872 220.005 225.733 220.161 224.76 220.009C223.787 219.858 222.853 219.473 221.868 219.454C219.777 219.414 217.913 221.022 215.813 220.926C214.681 220.873 213.616 220.313 212.737 219.607C212.236 219.236 211.829 218.753 211.548 218.197C210.889 216.707 211.794 214.932 213.075 213.919C213.629 213.479 214.27 213.108 214.613 212.493C214.794 212.115 214.93 211.718 215.018 211.308C215.624 209.228 217.342 207.573 219.355 206.835C220.043 206.58 221.739 206.024 222.431 206.505C223.279 207.092 222.266 208.711 222.152 209.628Z" fill="#111C24"/>
<path d="M179.48 107.118C179.48 107.118 195.627 93.1328 219.909 91.6057C219.909 91.6057 221.561 96.3737 227.282 100.698C227.282 100.698 229.572 95.4838 234.213 92.1155C234.213 92.1155 251.821 94.4665 262.693 102.414C262.693 102.414 263.963 108.008 257.099 108.77C250.235 109.533 246.291 107.498 244.575 105.147C242.859 102.796 241.586 104.637 241.395 106.292C241.204 107.946 239.998 110.686 237.201 110.359C234.404 110.032 229.572 106.292 227.533 107.626C225.494 108.959 224.608 109.979 223.846 111.313C223.084 112.646 218.133 118.498 213.609 119.069C209.085 119.64 207.571 119.005 205.98 118.498C204.39 117.99 202.612 117.926 201.913 119.833C201.215 121.741 200.259 123.837 197.653 122.439C195.047 121.042 197.653 118.243 194.093 117.034C190.534 115.826 185.575 119.012 183.03 118.752C180.486 118.493 176.237 116.144 179.48 107.118Z" fill="#111C24"/>
<path d="M152.524 152.317C152.524 152.317 150.237 162.425 151.634 171.708C151.634 171.708 153.796 171.453 155.64 175.713C157.483 179.974 158.182 187.284 159.454 190.017C160.726 192.751 161.287 194.935 164.02 194.68C164.02 194.68 165.945 193.84 164.604 185.122C164.552 184.784 163.523 177.432 167.973 172.534C172.422 167.636 175.92 157.34 176.175 152.759C176.43 148.178 177.961 143.017 172.176 139.266C166.391 135.515 166.123 134.32 167.782 129.301C169.19 125.048 175.955 121.679 173.921 116.467L172.55 113.279C172.55 113.279 163.077 122.626 159.327 131.589C159.327 133.037 159.563 134.476 160.025 135.849C160.79 138.073 161.563 139.771 160.155 141.298C158.747 142.825 156.848 143.287 156.912 145.385C156.976 147.483 157.993 148.562 156.53 150.219C155.066 151.876 153.987 152.128 152.524 152.317Z" fill="#111C24"/>
<path d="M269.359 106.844C269.359 106.844 266.314 110.346 267.303 115.217C268.291 120.088 269.359 121.536 267.379 124.582C265.797 127.079 264.422 129.701 263.268 132.424C262.811 133.564 259.995 137.675 255.275 140.114C250.555 142.553 246.064 145.442 244.084 150.39C242.105 155.338 241.039 159.838 236.394 163.943C231.749 168.047 222.539 172.088 220.559 175.893C218.579 179.699 218.351 182.67 222.767 186.552C227.184 190.435 231.046 191.595 231.275 196.62C231.503 201.645 227.777 203.229 228.082 209.394C228.388 215.56 233.195 212.816 234.261 210.379C235.326 207.942 233.958 203.68 237.078 201.473C240.198 199.267 249.641 193.144 252.153 190.555C254.664 187.967 258.011 184.953 253.443 181.986C248.874 179.02 250.707 177.638 252.153 176.952C253.598 176.267 256.567 176.658 258.621 177.341C260.676 178.025 264.334 176.43 264.789 175.584C264.789 175.584 267.83 176.405 266.841 181.354C265.852 186.302 261.46 191.538 264.886 193.897C264.886 193.897 267.847 194.645 268.913 190.079C268.913 190.079 269.66 187.763 270.574 188.525C271.488 189.288 272.097 189.437 273.391 192.331C274.685 195.225 276.546 196.552 278.754 195.638C280.963 194.724 283.162 189.925 284.076 187.194C284.99 184.463 288.165 182.226 290.901 181.369C292.782 180.774 294.574 179.929 296.229 178.855C296.229 178.855 298.437 164.925 297.446 156.78C296.455 148.635 292.423 134.55 288.161 128.611C283.898 122.672 281.235 115.98 269.359 106.844Z" fill="#111C24"/>
<path d="M225.736 181.863C225.226 180.473 225.663 178.787 226.7 177.726C227.385 177.07 228.202 176.568 229.097 176.256C229.405 176.14 229.271 175.639 228.959 175.757C227.509 176.311 226.103 177.214 225.443 178.677C225.06 179.547 224.946 180.511 225.116 181.446C225.144 181.636 225.191 181.823 225.254 182.004C225.369 182.316 225.87 182.182 225.753 181.868L225.736 181.863Z" fill="#111C24"/>
<path d="M215.486 111.159C215.226 112.62 213.998 113.855 212.563 114.248C211.647 114.473 210.693 114.497 209.766 114.318C209.439 114.266 209.298 114.758 209.628 114.819C211.166 115.072 212.842 115.004 214.152 114.07C214.922 113.51 215.506 112.731 215.828 111.836C215.897 111.66 215.95 111.479 215.987 111.295C216.044 110.97 215.547 110.829 215.486 111.159Z" fill="#111C24"/>
<path d="M426.082 279.142C422.291 285.709 413.236 288.989 399.795 289.087C386.394 289.184 368.819 286.112 348.273 280.199C307.188 268.375 254.336 245.225 199.463 213.544C144.589 181.863 98.1142 147.666 67.3325 117.998C51.9387 103.161 40.4907 89.4763 33.8744 77.8221C27.2383 66.1332 25.5519 56.6512 29.3432 50.0846C33.1344 43.518 42.1892 40.2375 55.6301 40.14C69.0311 40.0429 86.6063 43.1149 107.152 49.0278C148.237 60.8514 201.089 84.0018 255.963 115.683C310.836 147.364 357.311 181.561 388.093 211.229C403.486 226.066 414.934 239.75 421.551 251.404C428.187 263.093 429.873 272.575 426.082 279.142Z" stroke="#E8E8E8"/>
<path fill-rule="evenodd" clip-rule="evenodd" d="M108.271 210.928C100.758 209.288 96.4999 206.499 95.3878 202.882C94.2758 199.264 96.2318 194.565 101.526 188.988C106.756 183.479 114.977 177.403 125.608 171.142C146.858 158.628 177.542 145.485 212.619 134.701C247.696 123.918 280.464 117.554 305.074 115.971C317.387 115.178 327.601 115.586 335.023 117.207C342.536 118.847 346.794 121.635 347.906 125.253C349.018 128.87 347.062 133.569 341.767 139.146C336.537 144.656 328.317 150.731 317.685 156.992C296.436 169.507 265.752 182.65 230.674 193.433C195.597 204.217 162.829 210.58 138.219 212.164C125.906 212.956 115.693 212.548 108.271 210.928ZM230.968 194.389C160.71 215.988 99.5801 219.922 94.432 203.176C89.2838 186.43 142.066 155.345 212.325 133.746C282.584 112.146 343.713 108.213 348.862 124.959C354.01 141.705 301.227 172.79 230.968 194.389ZM339.566 119.787C347.059 121.423 351.053 124.159 352.078 127.492C353.102 130.824 351.335 135.332 346.055 140.894C340.871 146.355 332.695 152.403 322.081 158.654C300.875 171.143 270.229 184.272 235.178 195.047C200.126 205.823 167.398 212.176 142.837 213.757C130.545 214.548 120.384 214.137 113.028 212.531C105.534 210.896 101.54 208.16 100.516 204.827C99.4913 201.494 101.259 196.987 106.539 191.424C111.723 185.963 119.898 179.916 130.512 173.665C151.719 161.176 182.365 148.047 217.416 137.271C252.468 126.496 285.196 120.142 309.756 118.562C322.049 117.77 332.21 118.181 339.566 119.787ZM309.564 115.568C284.708 117.167 251.742 123.58 216.535 134.404C181.327 145.227 150.452 158.44 128.99 171.08C118.269 177.393 109.823 183.607 104.363 189.359C98.9989 195.01 96.0989 200.668 97.6483 205.708C99.1978 210.749 104.776 213.801 112.388 215.462C120.137 217.154 130.614 217.55 143.03 216.751C167.886 215.151 200.852 208.738 236.059 197.915C271.267 187.091 302.142 173.878 323.604 161.239C334.324 154.925 342.77 148.712 348.231 142.959C353.595 137.309 356.495 131.65 354.945 126.61C353.396 121.57 347.818 118.518 340.206 116.856C332.457 115.165 321.979 114.769 309.564 115.568Z" fill="#F2F2F2"/>
<g filter="url(#filter0_i_189_342)">
<circle cx="137" cy="215" r="4" fill="url(#paint0_linear_189_342)"/>
</g>
<g clip-path="url(#clip0_189_342)">
<path d="M218.75 192.14C215.515 192.14 212.89 194.765 212.89 198C212.89 201.234 218 207.008 218 211.359H219.5C219.5 207.02 224.609 200.973 224.609 198C224.609 194.765 221.984 192.14 218.75 192.14ZM218.75 200.402C217.423 200.402 216.347 199.324 216.347 198C216.347 196.675 217.423 195.597 218.75 195.597C220.077 195.597 221.152 196.672 221.152 198C221.152 199.327 220.077 200.402 218.75 200.402Z" fill="#F74713"/>
</g>
<g clip-path="url(#clip1_189_342)">
<path d="M224.488 237.742C264.936 237.742 297.725 204.953 297.725 164.505C297.725 124.057 264.936 91.2668 224.488 91.2668C184.039 91.2668 151.25 124.057 151.25 164.505C151.25 204.953 184.039 237.742 224.488 237.742Z" fill="#E8E8E8"/>
<g opacity="0.15">
<path d="M151.997 174.972C157.637 176.1 157.942 190.283 160.983 195.372C161.434 196.123 161.922 196.894 162.658 197.369C163.394 197.843 164.459 197.931 165.103 197.336C165.694 196.787 166 195.798 165.982 194.989C165.912 190.505 164.688 186.042 165.494 181.586C166.079 178.358 168.423 175.917 170.289 173.364C172.266 170.642 173.334 167.502 174.523 164.384C175.711 161.266 176.72 157.986 177.104 154.624C177.544 150.669 177.544 145.081 173.659 142.735C171.324 141.324 168.012 140.004 167.507 136.956C167.287 135.559 167.619 134.115 168.219 132.832C170.067 128.877 174.67 125.955 174.854 121.305C174.925 119.548 173.927 118.038 173.336 116.445L163.181 134.26C163.181 134.26 163.675 162.057 162.932 162.675C162.19 163.292 154.409 166.999 154.409 166.999L151.443 170.211L151.997 174.972Z" fill="black"/>
</g>
<g opacity="0.15">
<path d="M220.475 126.275C221.587 127.659 226.133 127.884 224.402 125.35C223.165 123.54 218.577 123.913 220.475 126.275Z" fill="black"/>
</g>
<g opacity="0.15">
<path d="M206.666 130.494C207.397 130.499 208.108 130.254 208.681 129.801C209.255 129.348 209.657 128.713 209.821 128C210.333 125.469 206.965 123.336 204.943 124.939C202.728 126.695 203.739 130.393 206.666 130.494Z" fill="black"/>
</g>
<g opacity="0.15">
<path d="M203.715 136.237C204.611 137.644 206.266 138.327 207.615 139.314C208.454 139.924 209.25 140.797 209.219 141.834C209.193 142.823 208.384 143.658 207.461 144.009C206.539 144.361 205.515 144.328 204.528 144.251C203.267 144.154 201.979 143.985 200.852 143.407C199.725 142.829 198.778 141.766 198.655 140.504C198.558 139.527 198.98 138.61 198.991 137.648C199.004 136.459 198.459 135.846 197.829 134.913C197.033 133.737 196.686 132.236 197.829 131.122C199.028 129.953 200.944 130.303 201.891 131.586C202.895 132.942 202.808 134.814 203.715 136.237Z" fill="black"/>
</g>
<g opacity="0.15">
<path d="M209.496 147.788C208.645 147.997 207.78 148.215 207.039 148.683C206.299 149.151 205.699 149.928 205.67 150.803C205.642 151.719 206.253 152.561 207.033 153.051C207.813 153.541 208.738 153.71 209.647 153.844C211.798 154.141 213.978 154.167 216.149 154.191C216.632 154.191 217.14 154.191 217.568 153.971C218.28 153.598 218.568 152.627 218.258 151.884C218.086 151.519 217.813 151.21 217.471 150.996C217.129 150.781 216.733 150.669 216.329 150.673C216.142 150.089 216.933 149.72 217.305 149.232C218.641 147.474 215.747 146.815 214.642 146.863C212.915 146.945 211.168 147.377 209.496 147.788Z" fill="black"/>
</g>
<g opacity="0.15">
<path d="M296.02 181.061C296.02 181.061 297.611 173.85 296.24 171.408C294.869 168.967 269.073 124.085 269.073 124.085C268.575 126.416 266.819 128.161 265.778 130.237C264.591 132.584 263.8 135.198 262.095 137.253C260.612 139.046 258.672 140.368 256.685 141.542C252.708 143.893 248.162 145.85 245.803 150.076C243.891 153.497 243.245 157.487 241.188 160.86C240.1 162.597 238.78 164.178 237.264 165.559C233.637 168.901 229.253 171.11 225.274 173.957C222.013 176.291 218.847 179.635 220.174 183.963C221.46 188.158 226.291 189.995 229.277 192.737C231.694 194.963 233.177 197.863 231.947 201.122C230.987 203.657 229.84 206.054 229.31 208.737C228.941 210.625 228.431 214.45 231.086 214.903C232.125 215.083 233.199 214.601 233.942 213.846C235.612 212.123 235.509 209.836 235.673 207.621C235.843 205.356 236.858 203.943 238.75 202.767C243.22 199.997 247.511 196.946 251.597 193.633C253.559 192.043 256.226 189.997 256.76 187.371C256.879 186.869 256.86 186.345 256.705 185.853C255.879 183.546 248.806 182.061 252.761 179.083C253.57 178.475 254.633 178.29 255.64 178.367C257.353 178.497 258.911 179.297 260.651 179.303C262.488 179.303 264.22 178.44 265.705 177.365C267.362 178.317 268.122 180.305 267.99 182.149C267.781 185.091 266.195 187.494 265.191 190.182C264.558 191.88 263.664 194.734 265.784 195.784C268.627 197.195 269.451 192.293 270.471 190.786C271.976 188.564 273.863 193.493 274.426 194.598C275.461 196.619 276.913 198.553 279.44 197.615C281.268 196.931 282.516 194.978 283.217 193.244C284.5 190.034 285.414 186.763 288.545 184.84C291.327 183.139 293.377 182.981 296.02 181.061Z" fill="black"/>
</g>
<g opacity="0.15">
<path d="M262.649 104.27C262.954 105.628 262.706 107.487 261.77 108.506C259.647 110.84 255.545 111.007 252.612 110.814C250.303 110.662 247.628 110.097 245.8 108.59C245.097 108.01 243.564 105.476 242.432 106.173C241.16 106.953 241.437 109.601 240.479 110.8C239.975 111.432 239.302 111.908 238.537 112.172C237.773 112.436 236.95 112.477 236.163 112.29C234.116 111.822 232.551 110.378 230.589 109.702C227.098 108.5 225.434 110.699 223.672 113.349C220.17 118.622 215.455 122.41 208.731 121.321C207.079 121.053 203.932 119.112 202.476 120.604C201.773 121.325 201.878 122.492 201.471 123.41C201.241 123.906 200.865 124.32 200.395 124.599C199.924 124.877 199.38 125.007 198.835 124.97C198.292 124.914 197.78 124.695 197.364 124.342C196.948 123.989 196.649 123.519 196.506 122.993C196.374 122.465 196.407 121.909 196.286 121.38C195.884 119.561 193.801 118.554 191.938 118.625C190.075 118.695 188.35 119.545 186.601 120.185C184.852 120.824 182.865 121.257 181.16 120.508C179.014 119.565 178.084 117.069 178.126 114.861C178.163 112.736 178.959 110.686 179.741 108.731L219.326 101.414L235.025 103.747L245.526 99.8208L262.649 104.27Z" fill="black"/>
</g>
<path d="M220.741 124.269C221.853 125.654 226.399 125.878 224.668 123.344C223.431 121.534 218.843 121.907 220.741 124.269Z" fill="#111C24"/>
<path d="M206.932 128.488C207.663 128.493 208.374 128.248 208.947 127.795C209.521 127.342 209.923 126.706 210.087 125.994C210.599 123.461 207.231 121.329 205.209 122.931C202.994 124.689 204.005 128.387 206.932 128.488Z" fill="#111C24"/>
<path d="M203.983 134.229C204.882 135.636 206.536 136.319 207.885 137.305C208.725 137.916 209.52 138.789 209.489 139.826C209.461 140.814 208.654 141.649 207.732 142.001C206.809 142.352 205.787 142.32 204.8 142.243C203.537 142.144 202.249 141.977 201.125 141.399C200 140.821 199.048 139.758 198.927 138.496C198.831 137.519 199.25 136.602 199.263 135.64C199.277 134.451 198.73 133.838 198.099 132.904C197.304 131.727 196.959 130.228 198.099 129.112C199.299 127.945 201.212 128.295 202.159 129.578C203.161 130.927 203.073 132.808 203.983 134.229Z" fill="#111C24"/>
<path d="M209.762 145.782C208.911 145.991 208.044 146.208 207.305 146.677C206.567 147.145 205.965 147.92 205.936 148.797C205.908 149.713 206.519 150.555 207.299 151.045C208.079 151.535 209.004 151.704 209.913 151.838C212.064 152.134 214.242 152.161 216.415 152.185C216.898 152.185 217.404 152.185 217.832 151.965C218.546 151.592 218.834 150.621 218.522 149.878C218.35 149.513 218.078 149.204 217.736 148.989C217.395 148.774 216.999 148.662 216.595 148.665C216.406 148.083 217.199 147.714 217.571 147.226C218.907 145.468 216.011 144.809 214.908 144.857C213.181 144.938 211.432 145.371 209.762 145.782Z" fill="#111C24"/>
<path d="M179.48 106.869C179.48 106.869 195.627 92.884 219.909 91.3569C219.909 91.3569 221.561 96.1249 227.282 100.449C227.282 100.449 229.572 95.235 234.213 91.8667C234.213 91.8667 251.821 94.2177 262.693 102.165C262.693 102.165 263.963 107.759 257.099 108.522C250.235 109.284 246.291 107.249 244.575 104.898C242.859 102.547 241.586 104.389 241.395 106.043C241.204 107.698 239.998 110.438 237.201 110.11C234.404 109.783 229.572 106.043 227.533 107.377C225.494 108.711 224.608 109.73 223.846 111.064C223.084 112.398 218.133 118.249 213.609 118.82C209.085 119.391 207.571 118.756 205.98 118.249C204.39 117.741 202.612 117.677 201.913 119.585C201.215 121.492 200.259 123.588 197.653 122.191C195.047 120.793 197.653 117.994 194.093 116.785C190.534 115.577 185.575 118.763 183.03 118.504C180.486 118.244 176.237 115.896 179.48 106.869Z" fill="#111C24"/>
<path d="M152.524 152.069C152.524 152.069 150.237 162.176 151.634 171.459C151.634 171.459 153.796 171.204 155.64 175.465C157.483 179.725 158.182 187.035 159.454 189.769C160.726 192.502 161.287 194.686 164.02 194.431C164.02 194.431 165.945 193.592 164.604 184.873C164.552 184.535 163.523 177.183 167.973 172.285C172.422 167.388 175.92 157.091 176.175 152.51C176.43 147.929 177.961 142.768 172.176 139.017C166.391 135.266 166.123 134.071 167.782 129.053C169.19 124.799 175.955 121.431 173.921 116.219L172.55 113.031C172.55 113.031 163.077 122.378 159.327 131.34C159.327 132.789 159.563 134.227 160.025 135.6C160.79 137.824 161.563 139.522 160.155 141.05C158.747 142.577 156.848 143.038 156.912 145.136C156.976 147.235 157.993 148.314 156.53 149.97C155.066 151.627 153.987 151.88 152.524 152.069Z" fill="#111C24"/>
<path d="M269.359 106.595C269.359 106.595 266.314 110.097 267.303 114.968C268.291 119.84 269.359 121.288 267.379 124.333C265.797 126.83 264.422 129.453 263.268 132.175C262.811 133.315 259.995 137.426 255.275 139.865C250.555 142.304 246.064 145.193 244.084 150.141C242.105 155.09 241.039 159.59 236.394 163.694C231.749 167.798 222.539 171.839 220.559 175.645C218.579 179.45 218.351 182.421 222.767 186.303C227.184 190.186 231.046 191.346 231.275 196.371C231.503 201.396 227.777 202.98 228.082 209.146C228.388 215.311 233.195 212.567 234.261 210.13C235.326 207.693 233.958 203.431 237.078 201.225C240.198 199.019 249.641 192.895 252.153 190.307C254.664 187.718 258.011 184.704 253.443 181.738C248.874 178.771 250.707 177.389 252.153 176.704C253.598 176.018 256.567 176.409 258.621 177.093C260.676 177.776 264.334 176.181 264.789 175.335C264.789 175.335 267.83 176.157 266.841 181.105C265.852 186.053 261.46 191.289 264.886 193.649C264.886 193.649 267.847 194.396 268.913 189.83C268.913 189.83 269.66 187.514 270.574 188.276C271.488 189.039 272.097 189.188 273.391 192.082C274.685 194.976 276.546 196.303 278.754 195.389C280.963 194.475 283.162 189.676 284.076 186.945C284.99 184.214 288.165 181.977 290.901 181.12C292.782 180.526 294.574 179.68 296.229 178.607C296.229 178.607 298.437 164.676 297.446 156.531C296.455 148.386 292.423 134.302 288.161 128.363C283.898 122.424 281.235 115.731 269.359 106.595Z" fill="#111C24"/>
<path d="M215.486 110.91C215.226 112.371 213.998 113.606 212.563 113.999C211.647 114.225 210.693 114.249 209.766 114.07C209.439 114.017 209.298 114.509 209.628 114.571C211.166 114.823 212.842 114.755 214.152 113.821C214.922 113.261 215.506 112.482 215.828 111.587C215.897 111.412 215.95 111.231 215.987 111.046C216.044 110.721 215.547 110.58 215.486 110.91Z" fill="#111C24"/>
</g>
<g filter="url(#filter1_d_189_342)">
<g filter="url(#filter2_d_189_342)">
<circle cx="69" cy="121" r="12" fill="#111C24"/>
</g>
<g clip-path="url(#clip2_189_342)">
<g clip-path="url(#clip3_189_342)">
<path d="M73.214 115.403V113.2H75.8172V115.403H73.214Z" fill="white"/>
<path d="M72.0125 113.2V115.403H63.8022V126.217H74.015V120.209H70.01V118.407H75.8172V128.019H61.9999V113.2H72.0125Z" fill="white"/>
<path d="M75.8172 115.803V118.006H66.8059V120.61H73.6144V125.816H64.4029V123.613H71.2114V122.812H64.4029V115.803H75.8172Z" fill="#F74713"/>
</g>
</g>
</g>
<g clip-path="url(#clip4_189_342)">
<path d="M201 93.3906C197.766 93.3906 195.141 96.0156 195.141 99.25C195.141 102.484 200.25 108.259 200.25 112.609H201.75C201.75 108.271 206.859 102.224 206.859 99.25C206.859 96.0156 204.234 93.3906 201 93.3906ZM201 101.652C199.673 101.652 198.598 100.574 198.598 99.25C198.598 97.9258 199.673 96.8477 201 96.8477C202.327 96.8477 203.402 97.9229 203.402 99.25C203.402 100.577 202.327 101.652 201 101.652Z" fill="#B5B5B5"/>
</g>
<g clip-path="url(#clip5_189_342)">
<path d="M277.75 144.141C274.516 144.141 271.891 146.766 271.891 150C271.891 153.234 277 159.009 277 163.359H278.5C278.5 159.021 283.609 152.974 283.609 150C283.609 146.766 280.984 144.141 277.75 144.141ZM277.75 152.402C276.423 152.402 275.348 151.324 275.348 150C275.348 148.676 276.423 147.598 277.75 147.598C279.077 147.598 280.152 148.673 280.152 150C280.152 151.327 279.077 152.402 277.75 152.402Z" fill="#B5B5B5"/>
</g>
<g clip-path="url(#clip6_189_342)">
<path d="M275.75 101.141C272.516 101.141 269.891 103.766 269.891 107C269.891 110.234 275 116.009 275 120.359H276.5C276.5 116.021 281.609 109.974 281.609 107C281.609 103.766 278.984 101.141 275.75 101.141ZM275.75 109.402C274.423 109.402 273.348 108.324 273.348 107C273.348 105.676 274.423 104.598 275.75 104.598C277.077 104.598 278.152 105.673 278.152 107C278.152 108.327 277.077 109.402 275.75 109.402Z" fill="#F74713"/>
</g>
<defs>
<filter id="filter0_i_189_342" x="133" y="211" width="8" height="10" filterUnits="userSpaceOnUse" color-interpolation-filters="sRGB">
<feFlood flood-opacity="0" result="BackgroundImageFix"/>
<feBlend mode="normal" in="SourceGraphic" in2="BackgroundImageFix" result="shape"/>
<feColorMatrix in="SourceAlpha" type="matrix" values="0 0 0 0 0 0 0 0 0 0 0 0 0 0 0 0 0 0 127 0" result="hardAlpha"/>
<feOffset dy="2"/>
<feGaussianBlur stdDeviation="2"/>
<feComposite in2="hardAlpha" operator="arithmetic" k2="-1" k3="1"/>
<feColorMatrix type="matrix" values="0 0 0 0 0 0 0 0 0 0 0 0 0 0 0 0 0 0 0.06 0"/>
<feBlend mode="normal" in2="shape" result="effect1_innerShadow_189_342"/>
</filter>
<filter id="filter1_d_189_342" x="49" y="102" width="40" height="40" filterUnits="userSpaceOnUse" color-interpolation-filters="sRGB">
<feFlood flood-opacity="0" result="BackgroundImageFix"/>
<feColorMatrix in="SourceAlpha" type="matrix" values="0 0 0 0 0 0 0 0 0 0 0 0 0 0 0 0 0 0 127 0" result="hardAlpha"/>
<feOffset dy="1"/>
<feGaussianBlur stdDeviation="1.5"/>
<feColorMatrix type="matrix" values="0 0 0 0 0 0 0 0 0 0 0 0 0 0 0 0 0 0 0.1 0"/>
<feBlend mode="normal" in2="BackgroundImageFix" result="effect1_dropShadow_189_342"/>
<feBlend mode="normal" in="SourceGraphic" in2="effect1_dropShadow_189_342" result="shape"/>
</filter>
<filter id="filter2_d_189_342" x="53" y="105" width="32" height="32" filterUnits="userSpaceOnUse" color-interpolation-filters="sRGB">
<feFlood flood-opacity="0" result="BackgroundImageFix"/>
<feColorMatrix in="SourceAlpha" type="matrix" values="0 0 0 0 0 0 0 0 0 0 0 0 0 0 0 0 0 0 127 0" result="hardAlpha"/>
<feMorphology radius="4" operator="dilate" in="SourceAlpha" result="effect1_dropShadow_189_342"/>
<feOffset/>
<feComposite in2="hardAlpha" operator="out"/>
<feColorMatrix type="matrix" values="0 0 0 0 0.968627 0 0 0 0 0.278431 0 0 0 0 0.0745098 0 0 0 1 0"/>
<feBlend mode="normal" in2="BackgroundImageFix" result="effect1_dropShadow_189_342"/>
<feBlend mode="normal" in="SourceGraphic" in2="effect1_dropShadow_189_342" result="shape"/>
</filter>
<linearGradient id="paint0_linear_189_342" x1="137" y1="219" x2="137" y2="211" gradientUnits="userSpaceOnUse">
<stop stop-color="#FF5E3A"/>
<stop offset="1" stop-color="#FF9500"/>
</linearGradient>
<clipPath id="clip0_189_342">
<rect width="19.5" height="19.5" fill="white" transform="translate(209 192)"/>
</clipPath>
<clipPath id="clip1_189_342">
<rect width="147" height="75" fill="white" transform="translate(151 91)"/>
</clipPath>
<clipPath id="clip2_189_342">
<rect width="14.0176" height="15.2192" fill="white" transform="translate(62 113)"/>
</clipPath>
<clipPath id="clip3_189_342">
<rect width="14.0176" height="15.2192" fill="white" transform="translate(62 113)"/>
</clipPath>
<clipPath id="clip4_189_342">
<rect width="19.5" height="19.5" fill="white" transform="translate(191.25 93.25)"/>
</clipPath>
<clipPath id="clip5_189_342">
<rect width="19.5" height="19.5" fill="white" transform="translate(268 144)"/>
</clipPath>
<clipPath id="clip6_189_342">
<rect width="19.5" height="19.5" fill="white" transform="translate(266 101)"/>
</clipPath>
</defs>
</svg>
