<svg width="48" height="48" viewBox="0 0 48 48" fill="none" xmlns="http://www.w3.org/2000/svg">
<path d="M36.0098 28.9756C36.2442 28.4111 36.4014 27.5342 35.9883 26.3848C36.8096 25.4805 37 24.6118 37 24C37 23.3887 36.8096 22.519 35.9883 21.6152C36.4014 20.4658 36.2441 19.5898 36.0098 19.0249C35.7764 18.4605 35.2676 17.73 34.1631 17.209C34.1045 15.9897 33.625 15.2402 33.1924 14.8076C32.7607 14.3755 32.0107 13.895 30.791 13.8369C30.2705 12.7324 29.54 12.2241 28.9756 11.9897C28.4111 11.7549 27.5322 11.5977 26.3848 12.0117C25.4805 11.1904 24.6113 11 24 11C23.3887 11 22.519 11.1904 21.6152 12.0117C20.4673 11.5977 19.5903 11.7554 19.0254 11.9893C18.4605 12.2236 17.73 12.7319 17.209 13.8369C15.9897 13.895 15.2397 14.3755 14.8076 14.8076C14.375 15.2397 13.895 15.9893 13.8369 17.209C12.7319 17.73 12.2236 18.4605 11.9893 19.0254C11.7554 19.5903 11.5986 20.4663 12.0117 21.6152C11.1904 22.519 11 23.3887 11 24C11 24.6113 11.1904 25.4805 12.0117 26.3848C11.5986 27.5342 11.7554 28.4102 11.9897 28.9756C12.2236 29.54 12.7319 30.2705 13.8369 30.791C13.895 32.0107 14.375 32.7607 14.8076 33.1924C15.2402 33.625 15.9893 34.1055 17.209 34.1631C17.73 35.2676 18.4605 35.7764 19.0249 36.0098C19.5903 36.2432 20.4658 36.4014 21.6152 35.9883C22.519 36.8096 23.3887 37 24 37C24.6118 37 25.4805 36.8096 26.3848 35.9883C27.5342 36.4004 28.4121 36.2441 28.9756 36.0098C29.541 35.7754 30.2705 35.2666 30.791 34.1631C32.0107 34.1045 32.7607 33.625 33.1924 33.1924C33.625 32.7598 34.1045 32.0107 34.1631 30.791C35.2676 30.2705 35.7764 29.54 36.0098 28.9756ZM34.1504 25.3799C33.791 25.6816 33.6894 26.1924 33.9062 26.6084C34.1397 27.0576 34.374 27.7002 34.1621 28.21C33.9512 28.7197 33.3311 29.0088 32.8486 29.1602C32.4014 29.3018 32.1123 29.7344 32.1533 30.2012C32.1973 30.7061 32.168 31.3887 31.7783 31.7783C31.3897 32.168 30.709 32.2002 30.2002 32.1533C29.7344 32.1055 29.2998 32.4014 29.1592 32.8496C29.0078 33.332 28.7197 33.9512 28.21 34.1621C27.6992 34.375 27.0566 34.1397 26.6084 33.9063C26.1934 33.6904 25.6816 33.791 25.3799 34.1504C25.0557 34.5381 24.5518 35 24 35C23.4482 35 22.9443 34.5381 22.6191 34.1504C22.4238 33.917 22.1406 33.793 21.8525 33.793C21.6958 33.793 21.5376 33.8301 21.3916 33.9062C20.9424 34.1387 20.3008 34.376 19.7905 34.1621C19.2808 33.9512 18.9922 33.3311 18.8398 32.8486C18.6987 32.4014 18.2632 32.1064 17.7988 32.1533C17.2925 32.1992 16.6118 32.168 16.2217 31.7783C15.8315 31.3877 15.8023 30.7051 15.8462 30.2012C15.8872 29.7344 15.5981 29.3018 15.1509 29.1602C14.6685 29.0088 14.0488 28.7197 13.8374 28.2099C13.626 27.7002 13.8604 27.0576 14.0942 26.6084C14.3106 26.1924 14.209 25.6816 13.8496 25.3799C13.4619 25.0557 13 24.5518 13 24C13 23.4482 13.4619 22.9443 13.8501 22.6191C14.209 22.3174 14.3105 21.8071 14.0938 21.3911C13.8603 20.9424 13.626 20.3003 13.8374 19.7905C14.0483 19.2807 14.668 18.9922 15.1509 18.8398C15.5981 18.6987 15.8872 18.2661 15.8462 17.7988C15.8022 17.2949 15.8315 16.6123 16.2217 16.2217C16.6123 15.832 17.2974 15.8032 17.7988 15.8462C18.2725 15.8872 18.6992 15.5976 18.8398 15.1509C18.9922 14.668 19.2808 14.0483 19.7905 13.8374C20.2993 13.6255 20.9424 13.8613 21.3911 14.0937C21.8071 14.3115 22.3174 14.209 22.6192 13.8501C22.9443 13.4619 23.4482 13 24 13C24.5518 13 25.0557 13.4619 25.3799 13.8496C25.6826 14.21 26.1943 14.3106 26.6084 14.0942C27.0566 13.8604 27.6992 13.6255 28.21 13.8374C28.7197 14.0488 29.0078 14.668 29.1592 15.1504C29.2998 15.5981 29.7344 15.8848 30.2002 15.8462C30.708 15.8013 31.3877 15.832 31.7783 16.2217C32.168 16.6118 32.1973 17.2949 32.1533 17.7988C32.1123 18.2661 32.4014 18.6987 32.8486 18.8398C33.331 18.9922 33.9512 19.2808 34.1621 19.7905C34.374 20.3003 34.1397 20.9424 33.9062 21.3916C33.6894 21.8071 33.791 22.3179 34.1504 22.6191C34.5381 22.9443 35 23.4482 35 24C35 24.5518 34.5381 25.0557 34.1504 25.3799Z" fill="#F74713"/>
<path d="M32.0439 21.3525C31.9258 20.9907 31.6133 20.7266 31.2363 20.6719L26.8555 20.0357L24.897 16.0659C24.7285 15.7246 24.3809 15.5083 24 15.5083C23.6191 15.5083 23.2715 15.7246 23.103 16.0659L21.144 20.0357L16.7637 20.6719C16.3867 20.7266 16.0737 20.9907 15.9561 21.3525C15.8384 21.7144 15.9365 22.1118 16.209 22.3774L19.3789 25.4678L18.6304 29.8311C18.5664 30.2061 18.7207 30.585 19.0283 30.8086C19.3369 31.0332 19.7456 31.0635 20.0815 30.8848L24 28.8252L27.918 30.8848C28.0644 30.9619 28.2246 31 28.3838 31C28.5908 31 28.7969 30.9356 28.9717 30.8086C29.2793 30.585 29.4336 30.2061 29.3691 29.8311L28.6211 25.4678L31.791 22.3774C32.0635 22.1118 32.1611 21.7144 32.0439 21.3525ZM26.8486 24.4033C26.6133 24.6328 26.5059 24.9639 26.5615 25.2881L27.0557 28.1719L24.4653 26.8106C24.3198 26.7334 24.1597 26.6953 24 26.6953C23.8403 26.6953 23.6802 26.7334 23.5347 26.8105L20.9443 28.1719L21.4395 25.2881C21.4946 24.9639 21.3872 24.6328 21.1519 24.4033L19.0562 22.3599L21.9517 21.9394C22.2778 21.8921 22.5591 21.6875 22.7051 21.3921L24 18.7681L25.2949 21.3921C25.4404 21.6875 25.7217 21.8921 26.0478 21.9395L28.9443 22.3599L26.8486 24.4033Z" fill="#111C24"/>
<path d="M24 33C24.5523 33 25 32.5523 25 32C25 31.4477 24.5523 31 24 31C23.4477 31 23 31.4477 23 32C23 32.5523 23.4477 33 24 33Z" fill="black"/>
<path d="M31.6085 27.4722C32.1607 27.4722 32.6085 27.0245 32.6085 26.4722C32.6085 25.9199 32.1607 25.4722 31.6085 25.4722C31.0562 25.4722 30.6085 25.9199 30.6085 26.4722C30.6085 27.0245 31.0562 27.4722 31.6085 27.4722Z" fill="black"/>
<path d="M28.7023 18.5278C29.2546 18.5278 29.7023 18.0801 29.7023 17.5278C29.7023 16.9755 29.2546 16.5278 28.7023 16.5278C28.15 16.5278 27.7023 16.9755 27.7023 17.5278C27.7023 18.0801 28.15 18.5278 28.7023 18.5278Z" fill="black"/>
<path d="M19.2977 18.5278C19.85 18.5278 20.2977 18.0801 20.2977 17.5278C20.2977 16.9755 19.85 16.5278 19.2977 16.5278C18.7454 16.5278 18.2977 16.9755 18.2977 17.5278C18.2977 18.0801 18.7454 18.5278 19.2977 18.5278Z" fill="black"/>
<path d="M16.3915 27.4722C16.9438 27.4722 17.3915 27.0245 17.3915 26.4722C17.3915 25.9199 16.9438 25.4722 16.3915 25.4722C15.8393 25.4722 15.3915 25.9199 15.3915 26.4722C15.3915 27.0245 15.8393 27.4722 16.3915 27.4722Z" fill="black"/>
<path d="M24 9C24.5523 9 25 8.55225 25 8V6C25 5.44775 24.5523 5 24 5C23.4477 5 23 5.44775 23 6V8C23 8.55225 23.4477 9 24 9Z" fill="black"/>
<path d="M11.9795 13.3935C12.352 13.766 13.0049 13.7821 13.3935 13.3935C13.7842 13.0029 13.7842 12.3701 13.3935 11.9795L11.979 10.5649C11.5884 10.1743 10.9556 10.1743 10.5649 10.5649C10.1743 10.9556 10.1743 11.5884 10.5649 11.979C10.5649 11.979 11.9771 13.3912 11.9795 13.3935Z" fill="black"/>
<path d="M16.9531 9.6005C17.1578 10.0946 17.7663 10.3451 18.2598 10.1415C18.77 9.93009 19.0122 9.34513 18.8008 8.83488L17.6528 6.0634C17.4409 5.55363 16.8584 5.31047 16.3462 5.52238C15.8359 5.73381 15.5937 6.31877 15.8052 6.82902C15.8052 6.82902 16.9498 9.5926 16.9531 9.6005Z" fill="black"/>
<path d="M9.60059 16.953L6.8291 15.8051C6.31689 15.5932 5.73389 15.8363 5.52246 16.3461C5.31103 16.8564 5.55322 17.4413 6.06348 17.6528L8.83502 18.8007C9.33848 19.0083 9.93236 18.7647 10.1416 18.2597C10.353 17.7494 10.1108 17.1645 9.60059 16.953Z" fill="black"/>
<path d="M9 24C9 23.4477 8.55225 23 8 23H6C5.44775 23 5 23.4477 5 24C5 24.5523 5.44775 25 6 25H8C8.55225 25 9 24.5523 9 24Z" fill="black"/>
<path d="M13.3935 36.0205C13.766 35.648 13.7821 34.995 13.3935 34.6064C13.0029 34.2158 12.3701 34.2158 11.9795 34.6064L10.5649 36.021C10.1743 36.4116 10.1743 37.0444 10.5649 37.4351C10.9556 37.8257 11.5884 37.8257 11.979 37.4351C11.979 37.4351 13.3912 36.0229 13.3935 36.0205Z" fill="black"/>
<path d="M9.60059 31.0469C10.0947 30.8422 10.3452 30.2338 10.1416 29.7403C9.93018 29.23 9.34522 28.9878 8.83497 29.1992L6.06349 30.3472C5.55372 30.5591 5.31056 31.1416 5.52247 31.6538C5.7339 32.1641 6.31886 32.4063 6.82911 32.1949C6.82911 32.1949 9.59269 31.0502 9.60059 31.0469Z" fill="black"/>
<path d="M16.9531 38.3994L15.8052 41.1709C15.5933 41.6831 15.8364 42.2661 16.3462 42.4776C16.8564 42.689 17.4414 42.4468 17.6528 41.9365L18.8008 39.165C19.0084 38.6615 18.7648 38.0677 18.2598 37.8584C17.7495 37.647 17.1645 37.8892 16.9531 38.3994Z" fill="black"/>
<path d="M24 39C23.4477 39 23 39.4477 23 40V42C23 42.5522 23.4477 43 24 43C24.5523 43 25 42.5522 25 42V40C25 39.4477 24.5523 39 24 39Z" fill="black"/>
<path d="M36.0205 34.6065C35.648 34.234 34.995 34.2179 34.6064 34.6065C34.2158 34.9971 34.2158 35.6299 34.6064 36.0205L36.021 37.4351C36.4116 37.8257 37.0444 37.8257 37.4351 37.4351C37.8257 37.0445 37.8257 36.4116 37.4351 36.021C37.4351 36.021 36.0229 34.6088 36.0205 34.6065Z" fill="black"/>
<path d="M31.0469 38.3994C30.8422 37.9053 30.2337 37.6548 29.7402 37.8584C29.23 38.0698 28.9878 38.6548 29.1992 39.165L30.3472 41.9365C30.5591 42.4463 31.1416 42.6894 31.6538 42.4775C32.1641 42.2661 32.4062 41.6811 32.1948 41.1709C32.1948 41.1709 31.0501 38.4073 31.0469 38.3994Z" fill="black"/>
<path d="M38.3994 31.0468L41.1709 32.1948C41.6831 32.4067 42.2661 32.1635 42.4775 31.6537C42.689 31.1435 42.4468 30.5585 41.9365 30.3471L39.165 29.1991C38.6615 28.9915 38.0676 29.2352 37.8584 29.7402C37.647 30.2504 37.8892 30.8354 38.3994 31.0468Z" fill="black"/>
<path d="M39 24C39 24.5523 39.4477 25 40 25H42C42.5522 25 43 24.5523 43 24C43 23.4477 42.5522 23 42 23H40C39.4477 23 39 23.4477 39 24Z" fill="black"/>
<path d="M34.6064 11.9795C34.234 12.352 34.2178 13.0049 34.6064 13.3935C34.9971 13.7842 35.6299 13.7842 36.0205 13.3935L37.4351 11.979C37.8257 11.5884 37.8257 10.9556 37.4351 10.5649C37.0444 10.1743 36.4116 10.1743 36.021 10.5649C36.021 10.5649 34.6088 11.9771 34.6064 11.9795Z" fill="black"/>
<path d="M38.3994 16.9531C37.9053 17.1578 37.6548 17.7663 37.8584 18.2598C38.0698 18.77 38.6548 19.0122 39.165 18.8008L41.9365 17.6529C42.4463 17.4409 42.6894 16.8584 42.4775 16.3462C42.2661 15.836 41.6811 15.5938 41.1709 15.8052C41.1709 15.8052 38.4073 16.9499 38.3994 16.9531Z" fill="black"/>
<path d="M31.0469 9.60061L32.1948 6.82913C32.4067 6.31692 32.1636 5.73392 31.6538 5.52249C31.1436 5.31106 30.5586 5.55325 30.3472 6.06351L29.1992 8.83505C28.9916 9.33851 29.2352 9.93239 29.7402 10.1416C30.2505 10.353 30.8354 10.1109 31.0469 9.60061Z" fill="black"/>
</svg>
