<svg width="24" height="24" viewBox="0 0 24 24" fill="none" xmlns="http://www.w3.org/2000/svg">
<path fill-rule="evenodd" clip-rule="evenodd" d="M3.75 0H20.25C22.3211 0 24 1.67893 24 3.75V20.25C24 22.3211 22.3211 24 20.25 24H3.75C1.67894 24 0 22.3211 0 20.25V3.75C0 1.67893 1.67894 0 3.75 0ZM7.27501 8.775C7.34999 8.85 7.425 9 7.425 9.15V14.4C7.5 14.625 7.425 14.775 7.27501 14.925L6 16.425V16.65H9.52501V16.425L8.25 14.925C8.175 14.775 8.09999 14.625 8.09999 14.4V9.825L11.25 16.65H11.55L14.25 9.825V15.3C14.25 15.45 14.25 15.525 14.175 15.6L13.2 16.575V16.8H17.925V16.575L17.025 15.675C16.95 15.6 16.95 15.45 16.95 15.375V8.625C16.875 8.475 16.95 8.4 17.025 8.325L18 7.425V7.2H14.7L12.3 13.125L9.59999 7.2H6.15001V7.425L7.27501 8.775Z" fill="white"/>
</svg>
