<svg width="26" height="26" viewBox="0 0 26 26" fill="none" xmlns="http://www.w3.org/2000/svg">
<path d="M10.9651 1.06787L12.8457 2.55006L15.8101 1.43443L10.9651 1.06787ZM9.59447 1.27506L5.51446 3.10787L11.4273 2.70943L9.59447 1.27506ZM16.8301 2.19943L14.1207 3.15568L18.8223 5.19568L16.8301 2.19943ZM18.1529 2.34287L20.4001 5.70568L21.8823 4.94068L18.1529 2.34287ZM11.5229 3.72943L5.35509 4.12787L8.4629 7.18787L11.5229 3.72943ZM13.5151 4.03225L15.1407 9.73787L19.2207 6.47068L13.5151 4.03225ZM12.4951 4.17568L9.33947 7.74568L14.0729 9.73787L12.4951 4.17568ZM3.6179 4.74943L1.27509 9.08443L3.15571 11.7779L3.6179 4.74943ZM4.6379 4.84506L4.17571 11.8257L7.74571 7.95287L4.6379 4.84506ZM22.5357 5.76943L20.8145 6.63006L22.1373 11.5229L24.3207 10.6622L22.5357 5.76943ZM19.9379 7.23568L16.0173 10.3594L21.1173 11.5229L19.9379 7.23568ZM9.08447 8.71787L9.59447 15.2044L13.9773 10.8057L9.08447 8.71787ZM8.06446 9.13225L4.3829 13.1007L8.62228 15.3957L8.06446 9.13225ZM1.0679 10.5507L1.48228 16.5272L2.96446 13.3079L1.0679 10.5507ZM15.6029 11.3157L17.2445 17.4994L20.9579 12.5429L15.6029 11.3157ZM14.6307 11.6344L10.1523 16.0651L16.2723 17.8501L14.6307 11.6344ZM24.4323 11.7301L22.4401 12.5429L23.6195 16.8779L24.4323 11.7301ZM21.5795 13.3557L18.1051 18.0094L22.7429 17.6429L21.5795 13.3557ZM4.3829 14.2801L5.56228 18.3122L8.2079 16.3679L4.3829 14.2801ZM3.47446 14.6944L2.24728 17.2922L4.49446 18.2644L3.47446 14.6944ZM9.02071 17.0851L6.32728 19.0294L11.5229 21.2607L9.02071 17.0851ZM10.2957 17.1807L12.8457 21.5794L15.9695 18.8222L10.2957 17.1807ZM2.3429 18.4557L5.96071 22.4401L4.8929 19.5394L2.3429 18.4557ZM22.9979 18.6151L18.2645 19.0294L21.0695 21.4201L22.9979 18.6151ZM17.0373 19.2844L14.2323 21.7229L19.4757 21.3722L17.0373 19.2844ZM6.1679 20.0972L7.1879 22.8544L11.0129 22.1372L6.1679 20.0972ZM19.3323 22.4401L13.7223 22.7907L14.8379 24.2729L19.3323 22.4401ZM12.5429 22.9022L8.41509 23.6672L13.6745 24.3844L12.5429 22.9022Z" fill="white"/>
</svg>
