<svg width="48" height="48" viewBox="0 0 48 48" fill="none" xmlns="http://www.w3.org/2000/svg">
<path d="M35 25.059V17C35 14.7939 33.2056 13 31 13H28.4141L29.207 12.207C29.5976 11.8164 29.5976 11.1836 29.207 10.793C28.8164 10.4023 28.1836 10.4023 27.793 10.793L25.293 13.293C24.9024 13.6836 24.9024 14.3164 25.293 14.707C25.293 14.707 27.7881 17.2021 27.793 17.207C28.1626 17.5767 28.8135 17.6005 29.207 17.207C29.5976 16.8164 29.5976 16.1836 29.207 15.793L28.4141 15H31C32.103 15 33 15.8975 33 17V25.059C28.507 25.5585 25 29.3755 25 34C25 38.9629 29.0376 43 34 43C38.9624 43 43 38.9629 43 34C43 29.3755 39.493 25.5585 35 25.059ZM29.6665 39.4867V38.5879C29.6665 37.9277 30.0552 37.3262 30.6558 37.0576C31.4163 36.7174 32.2045 36.5038 33 36.4036V37.5557C33 38.1084 33.4478 38.5557 34 38.5557C34.5522 38.5557 35 38.1084 35 37.5557V36.4035C35.7955 36.5038 36.5834 36.7174 37.3438 37.0576C37.9448 37.3262 38.3335 37.9277 38.3335 38.5879V39.4867C37.1402 40.4312 35.6365 41 34 41C32.3635 41 30.8598 40.4312 29.6665 39.4867ZM34 34.167C33.1728 34.167 32.5 33.4941 32.5 32.667C32.5 31.8398 33.1728 31.167 34 31.167C34.8272 31.167 35.5 31.8398 35.5 32.667C35.5 33.4941 34.8272 34.167 34 34.167ZM40.1226 37.3852C39.7953 36.444 39.1001 35.6525 38.1606 35.2314C37.7145 35.032 37.259 34.8782 36.8002 34.745C37.2341 34.1622 37.5 33.4477 37.5 32.667C37.5 30.7373 35.9297 29.167 34 29.167C32.0703 29.167 30.5 30.7373 30.5 32.667C30.5 33.4477 30.766 34.1621 31.1998 34.745C30.7409 34.8781 30.2852 35.032 29.8389 35.2314C28.8998 35.6525 28.2046 36.444 27.8774 37.3852C27.3199 36.381 27 35.2276 27 34C27 30.1406 30.1401 27 34 27C37.8599 27 41 30.1406 41 34C41 35.2276 40.68 36.381 40.1226 37.3852Z" fill="#111C24"/>
<path d="M27 24C27 22.3457 25.6543 21 24 21C22.3457 21 21 22.3457 21 24C21 25.6543 22.3457 27 24 27C25.6543 27 27 25.6543 27 24ZM24 25C23.4487 25 23 24.5518 23 24C23 23.4482 23.4487 23 24 23C24.5513 23 25 23.4482 25 24C25 24.5518 24.5513 25 24 25Z" fill="#111C24"/>
<path d="M20.207 30.793C19.8164 30.4024 19.1836 30.4024 18.793 30.793C18.4024 31.1836 18.4024 31.8164 18.793 32.207L19.5859 33H17C15.897 33 15 32.1025 15 31V22.941C19.4935 22.4416 23 18.6246 23 14C23 13.1562 22.8828 12.3174 22.6523 11.5068C22.501 10.9746 21.9443 10.666 21.417 10.8184C20.8857 10.9697 20.5772 11.5225 20.7285 12.0537C20.9082 12.6865 21 13.3418 21 14C21 15.2277 20.68 16.3811 20.1224 17.3854C19.7953 16.4436 19.0999 15.6519 18.1602 15.2315C17.714 15.0321 17.2587 14.8782 16.8001 14.7452C17.234 14.1623 17.5 13.4478 17.5 12.667C17.5 10.7373 15.9297 9.16699 14 9.16699C12.0703 9.16699 10.5 10.7373 10.5 12.667C10.5 13.4477 10.7659 14.1621 11.1998 14.745C10.7409 14.8781 10.2853 15.032 9.83887 15.2314C8.89978 15.6525 8.20465 16.444 7.87744 17.3852C7.31995 16.381 7 15.2276 7 14C7 10.1406 10.1401 7 14 7C14.6582 7 15.3135 7.0918 15.9463 7.27148C16.4697 7.42382 17.0303 7.11523 17.1816 6.583C17.333 6.05175 17.0244 5.49902 16.4932 5.34765C15.6826 5.11719 14.8433 5 14 5C9.0376 5 5 9.03711 5 14C5 18.6245 8.50702 22.4415 13 22.941V31C13 33.2061 14.7944 35 17 35H19.5859L18.793 35.793C18.4024 36.1836 18.4024 36.8164 18.7933 37.2074C19.1863 37.6 19.816 37.5977 20.207 37.207L22.707 34.707C23.0976 34.3164 23.0976 33.6836 22.707 33.293L20.207 30.793ZM14 11.167C14.8272 11.167 15.5 11.8398 15.5 12.667C15.5 13.4941 14.8272 14.167 14 14.167C13.1728 14.167 12.5 13.4941 12.5 12.667C12.5 11.8398 13.1728 11.167 14 11.167ZM10.6558 17.0576C11.4163 16.7177 12.2045 16.5041 13 16.4037V17.5557C13 18.1084 13.4478 18.5557 14 18.5557C14.5522 18.5557 15 18.1084 15 17.5557V16.4034C15.7954 16.5036 16.5833 16.7172 17.3438 17.0576C17.9443 17.3262 18.333 17.9268 18.333 18.5879V19.4869C17.1398 20.4313 15.6362 21 14 21C12.3635 21 10.8598 20.4312 9.6665 19.4867V18.5879C9.6665 17.9277 10.0552 17.3262 10.6558 17.0576Z" fill="#F74713"/>
<path d="M19.6569 9.34326C20.2091 9.34326 20.6569 8.89555 20.6569 8.34326C20.6569 7.79098 20.2091 7.34326 19.6569 7.34326C19.1046 7.34326 18.6569 7.79098 18.6569 8.34326C18.6569 8.89555 19.1046 9.34326 19.6569 9.34326Z" fill="#111C24"/>
</svg>
