<svg width="62" height="62" viewBox="0 0 62 62" fill="none" xmlns="http://www.w3.org/2000/svg">
<g clip-path="url(#clip0_206_769)">
<rect width="62" height="62" rx="5.90476" fill="#111C24"/>
<path d="M51.5 27.5L39 53.5C34.2 50.7 26 51.6667 22.5 52.5L7 27.5H51.5Z" fill="url(#paint0_linear_206_769)"/>
<ellipse cx="31" cy="58" rx="14" ry="7" fill="#FDFDFD"/>
<g filter="url(#filter0_d_206_769)">
<ellipse cx="31" cy="58.5" rx="13" ry="6.5" fill="#111C24"/>
</g>
<path d="M40.3659 33.2579L41.6781 31.5154C41.965 31.1382 41.8853 30.5963 41.5081 30.3147L41.3169 30.1713C40.9397 29.8844 40.3978 29.9641 40.1163 30.3413L36.3975 35.2926L36.4719 33.8901C36.5038 33.3269 36.0841 32.8382 35.5209 32.7797L35.3828 32.7638C34.8463 32.7107 34.3522 33.0666 34.2406 33.5979C34.2406 33.5979 33.975 35.436 33.7306 35.9991C32.4928 38.7988 33.1834 40.3129 33.1834 40.3129L28.3172 46.6029" stroke="white" stroke-width="0.75" stroke-miterlimit="10" stroke-linecap="round" stroke-linejoin="round"/>
<path d="M41.8906 37.8583L42.7619 36.6948C43.0488 36.3176 43.5853 36.2379 43.9625 36.5248C44.3397 36.8117 44.4194 37.3483 44.1325 37.7254L40.8441 42.1083C40.3978 42.7033 39.8135 43.1761 39.1388 43.4895L38.0763 43.9889L36.1478 46.6026" stroke="white" stroke-width="0.75" stroke-miterlimit="10" stroke-linecap="round" stroke-linejoin="round"/>
<path d="M42.6078 36.9021L43.9412 35.1277C44.2281 34.7505 44.1484 34.2087 43.7712 33.9271L43.5853 33.789C43.2081 33.5021 42.6662 33.5818 42.3847 33.959L40.8281 36.0309" stroke="white" stroke-width="0.75" stroke-miterlimit="10" stroke-linecap="round" stroke-linejoin="round"/>
<path d="M41.6516 34.9311L43.9944 31.8127C44.2813 31.4355 44.2016 30.8936 43.8244 30.6121L43.5694 30.4208C43.1922 30.1339 42.6503 30.2136 42.3688 30.5908L39.5213 34.3839" stroke="white" stroke-width="0.75" stroke-miterlimit="10" stroke-linecap="round" stroke-linejoin="round"/>
<path d="M40.7431 18.9249L41.9066 17.3736C42.1616 17.0336 42.0925 16.5555 41.7525 16.3058L41.5825 16.1783C41.2425 15.9233 40.7644 15.9924 40.5147 16.3324L37.205 20.7364L37.2688 19.488C37.2953 18.9886 36.9234 18.553 36.4241 18.4999L36.3019 18.4892C35.8238 18.4414 35.3881 18.7602 35.2872 19.2277C35.2872 19.2277 35.0534 20.8639 34.8303 21.3633C33.7306 23.8549 34.3416 25.2042 34.3416 25.2042L28.8538 32.3071" stroke="white" stroke-width="0.75" stroke-miterlimit="10" stroke-linecap="round" stroke-linejoin="round"/>
<path d="M42.0978 23.0208L42.8734 21.9849C43.1284 21.6449 43.6066 21.5811 43.9412 21.8308C44.2812 22.0858 44.345 22.5639 44.0953 22.8986L41.1681 26.798C40.7697 27.3293 40.2491 27.7489 39.6487 28.0305L38.7031 28.4714L36.7853 31.0268" stroke="white" stroke-width="0.75" stroke-miterlimit="10" stroke-linecap="round" stroke-linejoin="round"/>
<path d="M42.7406 22.1654L43.9253 20.5875C44.1803 20.2475 44.1113 19.7694 43.7713 19.5197L43.6066 19.3975C43.2666 19.1425 42.7884 19.2116 42.5388 19.5516L41.1522 21.395" stroke="white" stroke-width="0.75" stroke-miterlimit="10" stroke-linecap="round" stroke-linejoin="round"/>
<path d="M41.8853 20.4123L43.9678 17.6339C44.2228 17.2939 44.1538 16.8158 43.8138 16.5661L43.5906 16.3961C43.2506 16.1411 42.7725 16.2101 42.5228 16.5501L39.9888 19.9289" stroke="white" stroke-width="0.75" stroke-miterlimit="10" stroke-linecap="round" stroke-linejoin="round"/>
<path d="M21.6341 33.2579L20.3219 31.5154C20.035 31.1382 20.1147 30.5963 20.4919 30.3147L20.6831 30.1713C21.0603 29.8844 21.6022 29.9641 21.8838 30.3413L25.6025 35.2926L25.5281 33.8901C25.4963 33.3269 25.9159 32.8382 26.4791 32.7797L26.6172 32.7638C27.1538 32.7107 27.6478 33.0666 27.7594 33.5979C27.7594 33.5979 28.025 35.436 28.2694 35.9991C29.5072 38.7988 28.8166 40.3129 28.8166 40.3129L29.8791 41.6835" stroke="white" stroke-width="0.75" stroke-miterlimit="10" stroke-linecap="round" stroke-linejoin="round"/>
<path d="M20.1094 37.8584L19.2381 36.6949C18.9513 36.3124 18.4147 36.2381 18.0322 36.5249C17.655 36.8118 17.5753 37.3484 17.8622 37.7255L21.1506 42.1084C21.5969 42.7034 22.1813 43.1762 22.8559 43.4896L23.9184 43.989L25.8788 46.6027" stroke="white" stroke-width="0.75" stroke-miterlimit="10" stroke-linecap="round" stroke-linejoin="round"/>
<path d="M19.3922 36.9021L18.0588 35.1277C17.7719 34.7505 17.8516 34.2087 18.2288 33.9271L18.4147 33.789C18.7919 33.5021 19.3338 33.5818 19.6153 33.959L21.1719 36.0309" stroke="white" stroke-width="0.75" stroke-miterlimit="10" stroke-linecap="round" stroke-linejoin="round"/>
<path d="M20.3484 34.9311L18.0056 31.8127C17.7187 31.4355 17.7984 30.8936 18.1756 30.6121L18.4306 30.4208C18.8078 30.1339 19.3497 30.2136 19.6312 30.5908L22.4787 34.3839" stroke="white" stroke-width="0.75" stroke-miterlimit="10" stroke-linecap="round" stroke-linejoin="round"/>
<path d="M22.1653 18.3033L21.0019 16.752C20.7469 16.412 20.8159 15.9339 21.1559 15.6842L21.3259 15.5567C21.6659 15.3017 22.144 15.3708 22.3937 15.7108L25.7034 20.1149L25.6397 18.8664C25.6131 18.367 25.985 17.9314 26.4844 17.8783L26.6065 17.8677C27.0847 17.8199 27.5203 18.1386 27.6212 18.6061C27.6212 18.6061 27.855 20.2424 28.0781 20.7417C29.1778 23.2333 28.5669 24.5827 28.5669 24.5827L30.0597 26.5164" stroke="white" stroke-width="0.75" stroke-miterlimit="10" stroke-linecap="round" stroke-linejoin="round"/>
<path d="M20.8106 22.3992L20.035 21.3633C19.78 21.0233 19.3019 20.9595 18.9672 21.2092C18.6272 21.4642 18.5634 21.9424 18.8131 22.277L21.7403 26.1764C22.1387 26.7077 22.6594 27.1274 23.2597 27.4089L24.2053 27.8499L26.1231 30.4052" stroke="white" stroke-width="0.75" stroke-miterlimit="10" stroke-linecap="round" stroke-linejoin="round"/>
<path d="M20.1678 21.5438L18.9831 19.966C18.7334 19.6313 18.8025 19.1532 19.1372 18.8982L19.3019 18.776C19.6419 18.521 20.12 18.59 20.3697 18.93L21.7562 20.7735" stroke="white" stroke-width="0.75" stroke-miterlimit="10" stroke-linecap="round" stroke-linejoin="round"/>
<path d="M21.0231 19.7907L18.9406 17.0176C18.6856 16.6776 18.7547 16.1995 19.0894 15.9445L19.3125 15.7745C19.6525 15.5195 20.1306 15.5886 20.3803 15.9286L22.9144 19.3073" stroke="white" stroke-width="0.75" stroke-miterlimit="10" stroke-linecap="round" stroke-linejoin="round"/>
<ellipse cx="31" cy="62" rx="14" ry="7" fill="#FDFDFD"/>
<g filter="url(#filter1_d_206_769)">
<ellipse cx="31" cy="62.5" rx="13" ry="6.5" fill="#111C24"/>
</g>
<ellipse cx="31" cy="62" rx="9" ry="4.5" fill="#FDFDFD"/>
<g filter="url(#filter2_d_206_769)">
<ellipse cx="31" cy="62.3216" rx="8.35714" ry="4.17857" fill="#111C24"/>
</g>
<ellipse cx="31" cy="64.5" rx="9" ry="4.5" fill="#FDFDFD"/>
<g filter="url(#filter3_d_206_769)">
<ellipse cx="31" cy="64.8216" rx="8.35714" ry="4.17857" fill="#111C24"/>
</g>
</g>
<defs>
<filter id="filter0_d_206_769" x="-32" y="27" width="126" height="113" filterUnits="userSpaceOnUse" color-interpolation-filters="sRGB">
<feFlood flood-opacity="0" result="BackgroundImageFix"/>
<feColorMatrix in="SourceAlpha" type="matrix" values="0 0 0 0 0 0 0 0 0 0 0 0 0 0 0 0 0 0 127 0" result="hardAlpha"/>
<feOffset dy="25"/>
<feGaussianBlur stdDeviation="25"/>
<feColorMatrix type="matrix" values="0 0 0 0 0 0 0 0 0 0 0 0 0 0 0 0 0 0 0.25 0"/>
<feBlend mode="normal" in2="BackgroundImageFix" result="effect1_dropShadow_206_769"/>
<feBlend mode="normal" in="SourceGraphic" in2="effect1_dropShadow_206_769" result="shape"/>
</filter>
<filter id="filter1_d_206_769" x="-32" y="31" width="126" height="113" filterUnits="userSpaceOnUse" color-interpolation-filters="sRGB">
<feFlood flood-opacity="0" result="BackgroundImageFix"/>
<feColorMatrix in="SourceAlpha" type="matrix" values="0 0 0 0 0 0 0 0 0 0 0 0 0 0 0 0 0 0 127 0" result="hardAlpha"/>
<feOffset dy="25"/>
<feGaussianBlur stdDeviation="25"/>
<feColorMatrix type="matrix" values="0 0 0 0 0 0 0 0 0 0 0 0 0 0 0 0 0 0 0.25 0"/>
<feBlend mode="normal" in2="BackgroundImageFix" result="effect1_dropShadow_206_769"/>
<feBlend mode="normal" in="SourceGraphic" in2="effect1_dropShadow_206_769" result="shape"/>
</filter>
<filter id="filter2_d_206_769" x="-9.5" y="42.0716" width="81" height="72.6426" filterUnits="userSpaceOnUse" color-interpolation-filters="sRGB">
<feFlood flood-opacity="0" result="BackgroundImageFix"/>
<feColorMatrix in="SourceAlpha" type="matrix" values="0 0 0 0 0 0 0 0 0 0 0 0 0 0 0 0 0 0 127 0" result="hardAlpha"/>
<feOffset dy="16.0714"/>
<feGaussianBlur stdDeviation="16.0714"/>
<feColorMatrix type="matrix" values="0 0 0 0 0 0 0 0 0 0 0 0 0 0 0 0 0 0 0.25 0"/>
<feBlend mode="normal" in2="BackgroundImageFix" result="effect1_dropShadow_206_769"/>
<feBlend mode="normal" in="SourceGraphic" in2="effect1_dropShadow_206_769" result="shape"/>
</filter>
<filter id="filter3_d_206_769" x="-9.5" y="44.5716" width="81" height="72.6426" filterUnits="userSpaceOnUse" color-interpolation-filters="sRGB">
<feFlood flood-opacity="0" result="BackgroundImageFix"/>
<feColorMatrix in="SourceAlpha" type="matrix" values="0 0 0 0 0 0 0 0 0 0 0 0 0 0 0 0 0 0 127 0" result="hardAlpha"/>
<feOffset dy="16.0714"/>
<feGaussianBlur stdDeviation="16.0714"/>
<feColorMatrix type="matrix" values="0 0 0 0 0 0 0 0 0 0 0 0 0 0 0 0 0 0 0.25 0"/>
<feBlend mode="normal" in2="BackgroundImageFix" result="effect1_dropShadow_206_769"/>
<feBlend mode="normal" in="SourceGraphic" in2="effect1_dropShadow_206_769" result="shape"/>
</filter>
<linearGradient id="paint0_linear_206_769" x1="29.25" y1="27.5" x2="29.25" y2="53.5" gradientUnits="userSpaceOnUse">
<stop stop-color="#5993BD" stop-opacity="0"/>
<stop offset="1" stop-color="#1E3240"/>
</linearGradient>
<clipPath id="clip0_206_769">
<rect width="62" height="62" rx="5.90476" fill="white"/>
</clipPath>
</defs>
</svg>
