<svg width="74" height="39" viewBox="0 0 74 39" fill="none" xmlns="http://www.w3.org/2000/svg">
<path d="M36.0954 16.2562C36.0954 18.2947 37.241 19.5583 39.4648 20.0131L41.3686 20.4006C42.1941 20.5691 42.5142 20.923 42.5142 21.6137C42.5142 22.4055 41.7392 22.8941 40.5094 22.8941C39.2963 22.8941 38.6225 22.3886 38.6225 21.4789H35.9102C35.9102 23.8207 37.7128 25.3201 40.4925 25.3201C43.3565 25.3201 45.2434 23.7533 45.2434 21.3442C45.2434 19.373 44.1819 18.3117 41.9582 17.8569L40.0882 17.4694C39.2121 17.284 38.8246 16.9134 38.8246 16.1553C38.8246 15.3299 39.5322 14.8244 40.6441 14.8244C41.6718 14.8244 42.3288 15.3635 42.3288 16.2396H45.0411C45.0411 13.881 43.3565 12.3984 40.6778 12.3984C37.999 12.3984 36.0954 13.9988 36.0954 16.2563V16.2562Z" fill="white"/>
<path d="M52.6557 14.9926C53.9529 14.9926 55.0985 15.5655 55.4187 16.8795H58.2827C57.9963 14.184 55.7051 12.4319 52.7231 12.4319C48.8652 12.4319 46.355 15.1442 46.355 18.9011C46.355 22.7254 48.7978 25.2862 52.2851 25.2862C53.7677 25.2862 55.1155 24.7639 55.7893 23.9721L55.9409 25.1009H58.2827V17.9409H52.4199V20.3332H55.7218C55.604 21.6304 54.6941 22.7423 52.6389 22.7423C50.651 22.7423 49.2358 21.4956 49.2358 18.9855C49.2358 16.5764 50.3983 14.9927 52.6557 14.9927V14.9926Z" fill="white"/>
<path d="M63.2678 12.634H60.5386V25.1008H63.2678V12.634Z" fill="white"/>
<path d="M36.1753 28.6097V27.9677H36.8464V28.6097H37.1115V27.0957H36.8464V27.7212H36.1753V27.0957H35.9102V28.6097H36.1753Z" fill="white"/>
<path d="M38.8264 27.8516C38.8264 27.3897 38.5241 27.0686 38.0911 27.0686C37.6583 27.0686 37.3579 27.3917 37.3579 27.8516C37.3579 28.3135 37.6562 28.6346 38.0891 28.6346C38.5241 28.6346 38.8264 28.3115 38.8264 27.8516ZM38.5468 27.8516C38.5468 28.1705 38.3686 28.3798 38.0911 28.3798C37.8136 28.3798 37.6354 28.1747 37.6354 27.8516C37.6354 27.5285 37.8136 27.3234 38.0911 27.3234C38.3687 27.3234 38.5468 27.5284 38.5468 27.8516Z" fill="white"/>
<path d="M39.3394 27.0957H39.0742V28.6097H39.9732V28.3654H39.3394V27.0957Z" fill="white"/>
<path d="M40.7343 28.6097C41.1735 28.6097 41.4757 28.3011 41.4757 27.8558C41.4757 27.4042 41.1671 27.0957 40.7197 27.0957H40.1895V28.6098H40.7342L40.7343 28.6097ZM40.6949 27.3399C41.0076 27.3399 41.1962 27.5346 41.1962 27.8557C41.1962 28.1705 41.0118 28.3652 40.7094 28.3652H40.4546V27.3399H40.6949Z" fill="white"/>
<path d="M41.9859 27.0957H41.7207V28.6097H41.9859V27.0957Z" fill="white"/>
<path d="M42.5823 28.6097V27.5368L43.2948 28.6097H43.5558V27.0957H43.2948V28.1685L42.5843 27.0957H42.3213V28.6097H42.5823Z" fill="white"/>
<path d="M44.554 27.3193C44.7363 27.3193 44.8896 27.4022 44.9372 27.5803H45.2169C45.1733 27.2717 44.9062 27.0708 44.5603 27.0708C44.1046 27.0708 43.8042 27.3981 43.8042 27.858C43.8042 28.3239 44.1004 28.6327 44.5249 28.6327C44.7301 28.6327 44.9019 28.5519 44.9848 28.436L45.0013 28.6099H45.2251V27.7586H44.5209V27.9927H44.9786V27.9989C44.9786 28.2413 44.8191 28.3863 44.5561 28.3863C44.2764 28.3863 44.0817 28.2019 44.0817 27.8643C44.0817 27.537 44.2537 27.3196 44.5539 27.3196L44.554 27.3193Z" fill="white"/>
<path d="M45.4232 27.5181C45.4232 27.7501 45.5578 27.8972 45.8146 27.9531L46.0549 28.0069C46.1792 28.0338 46.2309 28.0939 46.2309 28.1954C46.2309 28.3217 46.119 28.3983 45.943 28.3983C45.7732 28.3983 45.6696 28.3216 45.6675 28.1932H45.4023C45.4086 28.4645 45.6198 28.6365 45.943 28.6365C46.2765 28.6365 46.4961 28.4542 46.4961 28.1724C46.4961 27.9466 46.3697 27.8141 46.1108 27.7581L45.8725 27.7063C45.7461 27.6773 45.6881 27.6173 45.6881 27.5096C45.6881 27.3832 45.7938 27.3045 45.9574 27.3045C46.1065 27.3045 46.1997 27.3812 46.2059 27.5116H46.4711C46.4628 27.2382 46.2681 27.0684 45.9615 27.0684C45.6425 27.0684 45.423 27.2528 45.423 27.5178L45.4232 27.5181Z" fill="white"/>
<path d="M47.8964 28.0879C48.1988 28.0879 48.3977 27.8827 48.3977 27.5908C48.3977 27.2946 48.201 27.0957 47.8964 27.0957H47.2979V28.6098H47.563V28.0879H47.8965H47.8964ZM47.8446 27.3318C48.0206 27.3318 48.1201 27.4229 48.1201 27.5886C48.1201 27.7543 48.0228 27.8516 47.8404 27.8516H47.5629V27.3318H47.8446Z" fill="white"/>
<path d="M48.4863 27.3401H48.9296V28.6097H49.1946V27.3401H49.638V27.0957H48.4863V27.3401Z" fill="white"/>
<path d="M50.4217 28.6346C50.78 28.6346 51.0576 28.4233 51.1156 28.1044H50.8401C50.7905 28.2721 50.633 28.3798 50.428 28.3798C50.1505 28.3798 49.9723 28.1727 49.9723 27.8516C49.9723 27.5285 50.1484 27.3256 50.428 27.3256C50.6289 27.3256 50.7802 27.4291 50.8319 27.6052H51.1115C51.0597 27.28 50.7925 27.0708 50.4342 27.0708C49.991 27.0708 49.6948 27.3836 49.6948 27.8538C49.6948 28.3281 49.9807 28.6347 50.4218 28.6347L50.4217 28.6346Z" fill="white"/>
<path d="M52.1778 27.0957H51.9126V28.6097H52.8115V28.3654H52.1778V27.0957Z" fill="white"/>
<path d="M52.7373 27.3401H53.1807V28.6097H53.4457V27.3401H53.889V27.0957H52.7373V27.3401Z" fill="white"/>
<path d="M54.6342 28.6097C55.0734 28.6097 55.3756 28.3011 55.3756 27.8558C55.3756 27.4042 55.067 27.0957 54.6196 27.0957H54.0894V28.6098H54.6341L54.6342 28.6097ZM54.5948 27.3399C54.9075 27.3399 55.0961 27.5346 55.0961 27.8557C55.0961 28.1705 54.9117 28.3652 54.6093 28.3652H54.3545V27.3399H54.5948Z" fill="white"/>
<path d="M55.6634 28.6346C55.7544 28.6346 55.8311 28.5601 55.8311 28.4709C55.8311 28.3798 55.7544 28.3052 55.6634 28.3052C55.5722 28.3052 55.4956 28.3797 55.4956 28.4709C55.4956 28.5599 55.5722 28.6346 55.6634 28.6346Z" fill="white"/>
<path fill-rule="evenodd" clip-rule="evenodd" d="M33.1056 28.6354H10V10.6365H33.1056V28.6354Z" fill="white"/>
<mask id="mask0_566_12154" style="mask-type:luminance" maskUnits="userSpaceOnUse" x="10" y="10" width="24" height="19">
<path d="M33.1056 28.6354H10V10.6365H33.1056V28.6354Z" fill="white"/>
</mask>
<g mask="url(#mask0_566_12154)">
<path fill-rule="evenodd" clip-rule="evenodd" d="M28.6568 28.6354V21.3988H33.2822V28.6354H39.2387V10.6365H33.2822V17.9169H28.6568V10.6365H9.97998V28.6354H28.6568Z" fill="#111C24"/>
<path fill-rule="evenodd" clip-rule="evenodd" d="M23.1123 14.0884V11.7026H25.9319V14.0884H23.1123Z" fill="white"/>
<path fill-rule="evenodd" clip-rule="evenodd" d="M25.9319 14.522V16.9078H16.172V19.7273H23.5462V25.3663H13.5693V22.9807H20.9435V22.1131H13.5693V14.522H25.9319Z" fill="white"/>
<path fill-rule="evenodd" clip-rule="evenodd" d="M21.8121 11.7026V14.0884H12.9198V25.8002H23.981V19.2936H19.6433V17.3417H25.933V27.7523H10.9678V11.7026H21.8121Z" fill="white"/>
</g>
</svg>
