<svg width="122" height="27" viewBox="0 0 122 27" fill="none" xmlns="http://www.w3.org/2000/svg">
<g clip-path="url(#clip0_453_14768)">
<g clip-path="url(#clip1_453_14768)">
<rect x="-3.30078" y="25.2954" width="28.9308" height="8.07479" rx="0.794518" transform="rotate(-45 -3.30078 25.2954)" fill="white"/>
<rect x="5.20264" y="31.5159" width="27.3167" height="8.07479" rx="0.794518" transform="rotate(-45 5.20264 31.5159)" fill="#F2EDE4"/>
<rect x="-9.52051" y="16.7937" width="27.3167" height="8.07479" rx="0.794518" transform="rotate(-45 -9.52051 16.7937)" fill="white"/>
</g>
<path d="M39.2507 18.3072C38.4843 18.3072 37.7778 18.2206 37.1313 18.0473C36.4849 17.8807 35.905 17.6707 35.3918 17.4175C34.8853 17.1575 34.4488 16.891 34.0822 16.6177C33.7157 16.3445 33.4258 16.1045 33.2125 15.8979L34.872 13.2187C35.0919 13.412 35.3552 13.6286 35.6618 13.8685C35.9683 14.1084 36.3116 14.3384 36.6915 14.5583C37.0714 14.7716 37.4812 14.9515 37.9211 15.0982C38.3676 15.2381 38.8408 15.3081 39.3407 15.3081C39.8072 15.3081 40.2171 15.2348 40.5703 15.0882C40.9302 14.9415 41.2135 14.7249 41.4201 14.4383C41.6267 14.1451 41.73 13.7819 41.73 13.3487C41.73 12.9554 41.6467 12.6222 41.4801 12.349C41.3134 12.069 41.0668 11.8191 40.7403 11.5992C40.4204 11.3726 40.0238 11.1526 39.5506 10.9394C39.0841 10.7194 38.5509 10.4795 37.9511 10.2196C37.5046 10.0196 37.078 9.79305 36.6715 9.53979C36.2716 9.27986 35.915 8.97995 35.6018 8.64005C35.2885 8.30015 35.0386 7.91693 34.852 7.49039C34.6721 7.05718 34.5821 6.57399 34.5821 6.04081C34.5821 5.40767 34.7087 4.80118 34.962 4.22135C35.2152 3.64152 35.5751 3.125 36.0417 2.6718C36.5149 2.2186 37.0747 1.85871 37.7212 1.59212C38.3743 1.32553 39.1008 1.19224 39.9005 1.19224C40.5003 1.19224 41.1002 1.27221 41.7 1.43217C42.2998 1.59212 42.8597 1.80206 43.3795 2.06198C43.8993 2.32191 44.3392 2.60516 44.6991 2.91173L43.3495 5.45099C43.0629 5.20439 42.7364 4.98446 42.3698 4.79118C42.0099 4.59124 41.6233 4.43129 41.2101 4.31132C40.8036 4.19136 40.3904 4.13138 39.9705 4.13138C39.4973 4.13138 39.0941 4.21468 38.7609 4.3813C38.4343 4.54792 38.181 4.77119 38.0011 5.05111C37.8278 5.32436 37.7412 5.63093 37.7412 5.97084C37.7412 6.25075 37.7978 6.49068 37.9111 6.69062C38.0311 6.8839 38.1977 7.05385 38.411 7.20047C38.6242 7.34043 38.8808 7.47706 39.1807 7.61035C39.4806 7.73698 39.8105 7.87361 40.1704 8.02023C40.9435 8.3468 41.6433 8.67004 42.2698 8.98995C42.8963 9.30985 43.4328 9.66642 43.8794 10.0596C44.3259 10.4462 44.6658 10.8994 44.8991 11.4192C45.139 11.9391 45.2589 12.5589 45.2589 13.2787C45.2589 14.3317 45.0057 15.2348 44.4992 15.9879C43.9993 16.741 43.2995 17.3175 42.3998 17.7174C41.5001 18.1106 40.4504 18.3072 39.2507 18.3072ZM48.5808 17.9873V1.49215H51.8198V17.9873H48.5808ZM56.3324 17.9873V1.49215H59.5715V15.1481H65.5297V17.9873H56.3324ZM73.0035 17.9873L66.0855 1.49215H69.7444L74.2731 13.1187L78.8117 1.49215H82.4607L75.5427 17.9873H73.0035ZM84.8787 17.9873V1.49215H88.1178V17.9873H84.8787ZM92.6303 17.9873V1.49215H95.8694L102.977 12.5889V1.49215H106.216V17.9873H102.977L95.8694 6.89056V17.9873H92.6303ZM110.711 17.9873V1.49215H119.888V4.33132H113.95V8.30015H119.648V11.1393H113.95V15.1481H119.888V17.9873H110.711Z" fill="white"/>
<path d="M38.8532 22.7245V25.7678H38.4407V22.7245H38.8532ZM45.9526 25.7678H45.5401V22.7245H45.9526L47.51 25.0775V22.7245H47.9225V25.7678H47.51L45.9526 23.4148V25.7678ZM55.4545 25.7678L54.297 22.7245H54.739L55.4798 24.6692C55.5471 24.8418 55.6061 25.0144 55.6692 25.2417C55.7408 25.0017 55.8123 24.7997 55.8628 24.665L56.5995 22.7245H57.0288L55.8839 25.7678H55.4545ZM65.2577 25.7678H63.4014V22.7245H65.2577V23.1033H63.814V24.0546H65.1146V24.4208H63.814V25.3848H65.2577V25.7678ZM71.6559 23.5453C71.6559 23.0234 72.0768 22.6698 72.704 22.6698C73.2849 22.6698 73.6595 22.9939 73.6932 23.5201H73.2765C73.2554 23.217 73.0407 23.0402 72.6998 23.0402C72.3167 23.0402 72.0684 23.2338 72.0684 23.5327C72.0684 23.7768 72.2073 23.9242 72.4935 23.9915L72.9944 24.1094C73.4911 24.223 73.7437 24.4924 73.7437 24.9218C73.7437 25.469 73.3186 25.8183 72.6703 25.8183C72.0516 25.8183 71.6391 25.4942 71.6138 24.9723H72.0347C72.0431 25.2627 72.2873 25.4479 72.6703 25.4479C73.0744 25.4479 73.3312 25.2585 73.3312 24.9554C73.3312 24.7155 73.2007 24.564 72.9103 24.4966L72.4094 24.383C71.9127 24.2693 71.6559 23.9831 71.6559 23.5453ZM79.9035 23.1033V22.7245H82.147V23.1033H81.2336V25.7678H80.8211V23.1033H79.9035ZM88.943 25.7678H88.539V22.7245H88.943L89.9912 25.2838L91.0393 22.7245H91.4518V25.7678H91.0477V24.564C91.0477 23.9957 91.0519 23.7895 91.0729 23.5748L90.1848 25.7678H89.7975L88.9136 23.5832C88.9346 23.7305 88.943 24.042 88.943 24.4672V25.7678ZM99.9939 25.7678H98.1376V22.7245H99.9939V23.1033H98.5501V24.0546H99.8508V24.4208H98.5501V25.3848H99.9939V25.7678ZM106.981 25.7678H106.569V22.7245H106.981L108.539 25.0775V22.7245H108.951V25.7678H108.539L106.981 23.4148V25.7678ZM115.343 23.1033V22.7245H117.586V23.1033H116.673V25.7678H116.26V23.1033H115.343Z" fill="white"/>
</g>
<defs>
<clipPath id="clip0_453_14768">
<rect width="121.164" height="27" fill="white" transform="translate(0.524414)"/>
</clipPath>
<clipPath id="clip1_453_14768">
<rect x="0.524414" y="-1" width="28.2054" height="28.2054" rx="2.38355" fill="white"/>
</clipPath>
</defs>
</svg>
