<svg width="55" height="14" viewBox="0 0 55 14" fill="none" xmlns="http://www.w3.org/2000/svg">
<g clip-path="url(#clip0_189_472)">
<rect x="-1.71478" y="12.2876" width="12.969" height="3.61974" rx="0.356164" transform="rotate(-45 -1.71478 12.2876)" fill="white"/>
<rect x="2.09717" y="15.0762" width="12.2455" height="3.61974" rx="0.356164" transform="rotate(-45 2.09717 15.0762)" fill="#F2EDE4"/>
<rect x="-4.50275" y="8.47656" width="12.2455" height="3.61974" rx="0.356164" transform="rotate(-45 -4.50275 8.47656)" fill="white"/>
</g>
<path d="M17.36 9.53403C17.0164 9.53403 16.6997 9.49519 16.4099 9.41751C16.1201 9.34282 15.8602 9.24871 15.6302 9.13518C15.4031 9.01866 15.2074 8.89916 15.0431 8.77667C14.8788 8.65417 14.7488 8.54662 14.6532 8.454L15.3971 7.25297C15.4957 7.33961 15.6137 7.43671 15.7512 7.54427C15.8886 7.65182 16.0425 7.75489 16.2128 7.85349C16.383 7.94909 16.5668 8.02976 16.764 8.09548C16.9641 8.15823 17.1763 8.1896 17.4003 8.1896C17.6095 8.1896 17.7932 8.15673 17.9516 8.091C18.1129 8.02528 18.2399 7.92818 18.3325 7.79971C18.4251 7.66825 18.4714 7.50543 18.4714 7.31123C18.4714 7.13496 18.4341 6.98558 18.3594 6.86308C18.2847 6.7376 18.1741 6.62557 18.0277 6.52698C17.8843 6.4254 17.7066 6.3268 17.4944 6.2312C17.2853 6.13261 17.0463 6.02505 16.7774 5.90853C16.5772 5.81891 16.386 5.71733 16.2038 5.6038C16.0245 5.48728 15.8647 5.35283 15.7243 5.20046C15.5839 5.0481 15.4718 4.87631 15.3882 4.6851C15.3075 4.4909 15.2672 4.2743 15.2672 4.03529C15.2672 3.75146 15.3239 3.47959 15.4375 3.21966C15.551 2.95974 15.7123 2.7282 15.9215 2.52504C16.1336 2.32188 16.3845 2.16055 16.6743 2.04104C16.9671 1.92153 17.2928 1.86178 17.6513 1.86178C17.9202 1.86178 18.1891 1.89763 18.458 1.96934C18.7268 2.04104 18.9778 2.13515 19.2108 2.25167C19.4439 2.36819 19.6411 2.49516 19.8024 2.63259L19.1974 3.77088C19.0689 3.66034 18.9225 3.56175 18.7582 3.4751C18.5969 3.38548 18.4236 3.31377 18.2384 3.26C18.0561 3.20622 17.8709 3.17933 17.6827 3.17933C17.4705 3.17933 17.2898 3.21667 17.1404 3.29137C16.994 3.36606 16.8805 3.46614 16.7998 3.59162C16.7221 3.71412 16.6833 3.85155 16.6833 4.00392C16.6833 4.1294 16.7087 4.23695 16.7595 4.32658C16.8133 4.41322 16.888 4.48941 16.9836 4.55514C17.0792 4.61788 17.1942 4.67912 17.3286 4.73887C17.4631 4.79564 17.611 4.85689 17.7723 4.92261C18.1189 5.06901 18.4326 5.21391 18.7134 5.35732C18.9942 5.50072 19.2347 5.66056 19.4349 5.83683C19.6351 6.01011 19.7875 6.21327 19.892 6.44631C19.9996 6.67934 20.0534 6.9572 20.0534 7.27986C20.0534 7.75191 19.9398 8.15673 19.7128 8.49433C19.4887 8.83194 19.175 9.09037 18.7717 9.26963C18.3683 9.4459 17.8978 9.53403 17.36 9.53403ZM21.5425 9.39062V1.99622H22.9945V9.39062H21.5425ZM25.0173 9.39062V1.99622H26.4693V8.11789H29.1403V9.39062H25.0173ZM32.4906 9.39062L29.3894 1.99622H31.0296L33.0597 7.20816L35.0943 1.99622H36.73L33.6289 9.39062H32.4906ZM37.814 9.39062V1.99622H39.266V9.39062H37.814ZM41.2889 9.39062V1.99622H42.7409L45.9272 6.97064V1.99622H47.3792V9.39062H45.9272L42.7409 4.41621V9.39062H41.2889ZM49.394 9.39062V1.99622H53.508V3.26896H50.846V5.0481H53.4004V6.32083H50.846V8.11789H53.508V9.39062H49.394Z" fill="white"/>
<path d="M17.2506 11.3418V12.7061H17.0657V11.3418H17.2506ZM20.4331 12.7061H20.2482V11.3418H20.4331L21.1313 12.3966V11.3418H21.3162V12.7061H21.1313L20.4331 11.6513V12.7061ZM24.6926 12.7061L24.1737 11.3418H24.3719L24.704 12.2136C24.7341 12.2909 24.7606 12.3683 24.7889 12.4702C24.8209 12.3626 24.853 12.2721 24.8757 12.2117L25.2059 11.3418H25.3983L24.8851 12.7061H24.6926ZM29.0872 12.7061H28.2551V11.3418H29.0872V11.5116H28.44V11.9381H29.023V12.1022H28.44V12.5343H29.0872V12.7061ZM31.9553 11.7098C31.9553 11.4758 32.144 11.3173 32.4252 11.3173C32.6856 11.3173 32.8535 11.4626 32.8686 11.6984H32.6818C32.6724 11.5626 32.5761 11.4833 32.4233 11.4833C32.2516 11.4833 32.1403 11.5701 32.1403 11.7041C32.1403 11.8135 32.2025 11.8796 32.3308 11.9098L32.5554 11.9626C32.778 12.0136 32.8912 12.1343 32.8912 12.3268C32.8912 12.5721 32.7007 12.7287 32.4101 12.7287C32.1327 12.7287 31.9478 12.5834 31.9365 12.3494H32.1252C32.1289 12.4796 32.2384 12.5626 32.4101 12.5626C32.5912 12.5626 32.7063 12.4777 32.7063 12.3419C32.7063 12.2343 32.6478 12.1664 32.5176 12.1362L32.2931 12.0853C32.0704 12.0343 31.9553 11.906 31.9553 11.7098ZM35.6525 11.5116V11.3418H36.6583V11.5116H36.2488V12.7061H36.0639V11.5116H35.6525ZM39.7048 12.7061H39.5236V11.3418H39.7048L40.1746 12.4891L40.6445 11.3418H40.8294V12.7061H40.6482V12.1664C40.6482 11.9117 40.6501 11.8192 40.6596 11.723L40.2614 12.7061H40.0878L39.6916 11.7267C39.701 11.7928 39.7048 11.9324 39.7048 12.123V12.7061ZM44.6586 12.7061H43.8265V11.3418H44.6586V11.5116H44.0114V11.9381H44.5945V12.1022H44.0114V12.5343H44.6586V12.7061ZM47.7909 12.7061H47.606V11.3418H47.7909L48.4891 12.3966V11.3418H48.674V12.7061H48.4891L47.7909 11.6513V12.7061ZM51.5391 11.5116V11.3418H52.5448V11.5116H52.1353V12.7061H51.9504V11.5116H51.5391Z" fill="white"/>
<defs>
<clipPath id="clip0_189_472">
<rect y="0.5" width="12.6438" height="12.6438" rx="1.06849" fill="white"/>
</clipPath>
</defs>
</svg>
