<svg width="52" height="12" viewBox="0 0 52 12" fill="none" xmlns="http://www.w3.org/2000/svg">
<g clip-path="url(#clip0_970_63541)">
<g clip-path="url(#clip1_970_63541)">
<path d="M8.45667 1.8335V0.172363H10.4198V1.8335H8.45667Z" fill="white"/>
<path d="M7.5506 0.172363V1.8335H1.35911V9.98815H9.06072V5.45779H6.04048V4.09868H10.4198V11.3473H0V0.172363H7.5506Z" fill="white"/>
<path d="M10.4198 2.13525V3.79639H3.62428V5.75954H8.75869V9.68586H1.81213V8.02472H6.94654V7.42068H1.81213V2.13525H10.4198Z" fill="#F5F5F5"/>
</g>
</g>
<path d="M12.4671 3.13991C12.4671 2.36673 13.1074 1.82912 14.0376 1.82912C14.9316 1.82912 15.4994 2.32444 15.5236 3.12179H14.7504C14.7323 2.74124 14.4604 2.51774 14.0255 2.51774C13.5483 2.51774 13.2403 2.74728 13.2403 3.11575C13.2403 3.42985 13.4094 3.60502 13.7779 3.68959L14.4725 3.8406C15.2276 4.0037 15.5961 4.39029 15.5961 5.0487C15.5961 5.87021 14.9558 6.40177 13.9832 6.40177C13.0409 6.40177 12.4248 5.90041 12.4067 5.10911H13.1799C13.1859 5.48362 13.4879 5.70711 13.9832 5.70711C14.4967 5.70711 14.8229 5.48362 14.8229 5.11515C14.8229 4.81916 14.6719 4.64399 14.3094 4.56546L13.6087 4.40841C12.8597 4.24532 12.4671 3.81644 12.4671 3.13991ZM15.8499 2.62043V1.90765H19.2085V2.62043H17.9158V6.32324H17.1426V2.62043H15.8499ZM22.5419 6.32324H19.7995V1.90765H22.5419V2.62043H20.5727V3.75604H22.3365V4.43861H20.5727V5.61047H22.5419V6.32324ZM24.6184 6.32324L22.9512 1.90765H23.7727L24.7392 4.45069C24.8359 4.71647 24.9204 4.97621 25.0171 5.3326C25.1258 4.94601 25.2164 4.67419 25.301 4.45069L26.2554 1.90765H27.0588L25.4158 6.32324H24.6184ZM30.352 6.32324H27.6096V1.90765H30.352V2.62043H28.3828V3.75604H30.1466V4.43861H28.3828V5.61047H30.352V6.32324ZM31.9634 6.32324H31.1903V1.90765H32.8756C33.8783 1.90765 34.4642 2.41505 34.4642 3.28488C34.4642 3.87685 34.1863 4.29968 33.6669 4.5111L34.5065 6.32324H33.6608L32.9118 4.67419H31.9634V6.32324ZM31.9634 2.59626V3.99162H32.8756C33.3648 3.99162 33.6548 3.73188 33.6548 3.28488C33.6548 2.84392 33.3648 2.59626 32.8756 2.59626H31.9634ZM35.6175 6.32324H34.8141L36.4088 1.90765H37.2001L38.7948 6.32324H37.9793L37.6229 5.3024H35.9739L35.6175 6.32324ZM36.7048 3.22447L36.2034 4.65003H37.3994L36.892 3.22447C36.8558 3.10971 36.8135 2.97681 36.8014 2.88621C36.7833 2.97077 36.747 3.10366 36.7048 3.22447ZM38.5666 2.62043V1.90765H41.9251V2.62043H40.6325V6.32324H39.8593V2.62043H38.5666ZM46.3682 4.11243C46.3682 5.45341 45.4863 6.39573 44.2178 6.39573C42.9553 6.39573 42.0855 5.45945 42.0855 4.11243C42.0855 2.77144 42.9614 1.82912 44.2238 1.82912C45.4863 1.82912 46.3682 2.7654 46.3682 4.11243ZM45.5527 4.11243C45.5527 3.17011 45.0333 2.5721 44.2238 2.5721C43.4144 2.5721 42.8949 3.17011 42.8949 4.11243C42.8949 5.05474 43.4144 5.65275 44.2238 5.65275C45.0333 5.65275 45.5527 5.04266 45.5527 4.11243ZM47.8489 6.32324H47.0878V1.90765H47.855L49.9269 5.03662V1.90765H50.688V6.32324H49.9269L47.8489 3.19427V6.32324Z" fill="white"/>
<path d="M16.281 7.82153C15.9088 7.82153 15.6957 8.09109 15.6957 8.4967C15.6957 8.91516 15.937 9.14364 16.2836 9.14364C16.6096 9.14364 16.8073 8.96394 16.8073 8.66357V8.65587H16.24V8.36578H17.1128V9.4209H16.8356L16.815 9.20525C16.7123 9.34902 16.4992 9.44914 16.2451 9.44914C15.7188 9.44914 15.3517 9.06662 15.3517 8.489C15.3517 7.91908 15.724 7.51347 16.2887 7.51347C16.7175 7.51347 17.0486 7.76248 17.1025 8.145H16.756C16.6969 7.92422 16.507 7.82153 16.281 7.82153ZM17.9503 9.4209H17.6217V7.54427H18.3379C18.7641 7.54427 19.0131 7.75992 19.0131 8.12959C19.0131 8.38118 18.895 8.56088 18.6743 8.65074L19.0311 9.4209H18.6717L18.3534 8.72005H17.9503V9.4209ZM17.9503 7.83693V8.42996H18.3379C18.5459 8.42996 18.6691 8.31957 18.6691 8.12959C18.6691 7.94219 18.5459 7.83693 18.3379 7.83693H17.9503ZM21.2029 8.4813C21.2029 9.05122 20.8281 9.4517 20.2889 9.4517C19.7524 9.4517 19.3827 9.05379 19.3827 8.4813C19.3827 7.91138 19.755 7.5109 20.2915 7.5109C20.8281 7.5109 21.2029 7.90881 21.2029 8.4813ZM20.8563 8.4813C20.8563 8.08082 20.6355 7.82666 20.2915 7.82666C19.9475 7.82666 19.7267 8.08082 19.7267 8.4813C19.7267 8.88179 19.9475 9.13594 20.2915 9.13594C20.6355 9.13594 20.8563 8.87665 20.8563 8.4813ZM21.6499 8.73545V7.54427H21.9785V8.71492C21.9785 8.98447 22.1248 9.13337 22.3918 9.13337C22.6588 9.13337 22.8077 8.98191 22.8077 8.71492V7.54427H23.1363V8.73545C23.1363 9.17445 22.8488 9.4517 22.3918 9.4517C21.9374 9.4517 21.6499 9.17701 21.6499 8.73545ZM24.4365 8.77396H24.0231V9.4209H23.6945V7.54427H24.4365C24.8138 7.54427 25.0577 7.79072 25.0577 8.15783C25.0577 8.51981 24.8113 8.77396 24.4365 8.77396ZM24.3723 7.83693H24.0231V8.4813H24.3672C24.5931 8.4813 24.7137 8.36064 24.7137 8.15527C24.7137 7.94989 24.5905 7.83693 24.3723 7.83693ZM26.6628 7.54427V9.4209H26.3342V7.54427H26.6628ZM27.5562 9.4209H27.2328V7.54427H27.5588L28.4394 8.87408V7.54427H28.7628V9.4209H28.4394L27.5562 8.09109V9.4209ZM30.1255 9.4517C29.5787 9.4517 29.2244 9.07176 29.2244 8.48387C29.2244 7.90111 29.5916 7.51347 30.1409 7.51347C30.5851 7.51347 30.9162 7.77275 30.9804 8.1758H30.6338C30.5697 7.95759 30.3823 7.82923 30.1332 7.82923C29.7867 7.82923 29.5684 8.08082 29.5684 8.4813C29.5684 8.87922 29.7892 9.13594 30.1332 9.13594C30.3874 9.13594 30.5825 9.00244 30.6441 8.7945H30.9855C30.9137 9.18985 30.5697 9.4517 30.1255 9.4517ZM33.1466 8.4813C33.1466 9.05122 32.7718 9.4517 32.2327 9.4517C31.6961 9.4517 31.3264 9.05379 31.3264 8.4813C31.3264 7.91138 31.6987 7.5109 32.2352 7.5109C32.7718 7.5109 33.1466 7.90881 33.1466 8.4813ZM32.8 8.4813C32.8 8.08082 32.5792 7.82666 32.2352 7.82666C31.8912 7.82666 31.6704 8.08082 31.6704 8.4813C31.6704 8.88179 31.8912 9.13594 32.2352 9.13594C32.5792 9.13594 32.8 8.87665 32.8 8.4813ZM33.9351 9.4209H33.6065V7.54427H34.3227C34.7489 7.54427 34.9979 7.75992 34.9979 8.12959C34.9979 8.38118 34.8798 8.56088 34.659 8.65074L35.0159 9.4209H34.6564L34.3381 8.72005H33.9351V9.4209ZM33.9351 7.83693V8.42996H34.3227C34.5307 8.42996 34.6539 8.31957 34.6539 8.12959C34.6539 7.94219 34.5307 7.83693 34.3227 7.83693H33.9351ZM36.2222 8.77396H35.8089V9.4209H35.4803V7.54427H36.2222C36.5996 7.54427 36.8435 7.79072 36.8435 8.15783C36.8435 8.51981 36.5971 8.77396 36.2222 8.77396ZM36.1581 7.83693H35.8089V8.4813H36.1529C36.3788 8.4813 36.4995 8.36064 36.4995 8.15527C36.4995 7.94989 36.3763 7.83693 36.1581 7.83693ZM38.9863 8.4813C38.9863 9.05122 38.6115 9.4517 38.0724 9.4517C37.5358 9.4517 37.1661 9.05379 37.1661 8.4813C37.1661 7.91138 37.5384 7.5109 38.0749 7.5109C38.6115 7.5109 38.9863 7.90881 38.9863 8.4813ZM38.6397 8.4813C38.6397 8.08082 38.4189 7.82666 38.0749 7.82666C37.7309 7.82666 37.5101 8.08082 37.5101 8.4813C37.5101 8.88179 37.7309 9.13594 38.0749 9.13594C38.4189 9.13594 38.6397 8.87665 38.6397 8.4813ZM39.7748 9.4209H39.4462V7.54427H40.1624C40.5886 7.54427 40.8376 7.75992 40.8376 8.12959C40.8376 8.38118 40.7195 8.56088 40.4987 8.65074L40.8555 9.4209H40.4961L40.1778 8.72005H39.7748V9.4209ZM39.7748 7.83693V8.42996H40.1624C40.3703 8.42996 40.4936 8.31957 40.4936 8.12959C40.4936 7.94219 40.3703 7.83693 40.1624 7.83693H39.7748ZM41.4817 9.4209H41.1403L41.818 7.54427H42.1543L42.8321 9.4209H42.4855L42.3341 8.98704H41.6332L41.4817 9.4209ZM41.9438 8.10392L41.7308 8.70978H42.2391L42.0234 8.10392C42.008 8.05515 41.99 7.99867 41.9849 7.96016C41.9772 7.9961 41.9618 8.05258 41.9438 8.10392ZM42.8892 7.8472V7.54427H44.3165V7.8472H43.7672V9.4209H43.4386V7.8472H42.8892ZM45.8873 9.4209H44.7218V7.54427H45.8873V7.8472H45.0504V8.32984H45.8V8.61993H45.0504V9.11797H45.8873V9.4209ZM47.0727 9.4209H46.3976V7.54427H47.0548C47.6093 7.54427 47.9918 7.92679 47.9918 8.48644C47.9918 9.03838 47.617 9.4209 47.0727 9.4209ZM47.024 7.8472H46.7262V9.11797H47.0419C47.4167 9.11797 47.6452 8.87665 47.6452 8.48644C47.6452 8.08852 47.4116 7.8472 47.024 7.8472Z" fill="white"/>
<defs>
<clipPath id="clip0_970_63541">
<rect width="10.5708" height="11.4769" fill="white" transform="translate(0 0.0209961)"/>
</clipPath>
<clipPath id="clip1_970_63541">
<rect width="10.5708" height="11.4769" fill="white" transform="translate(0 0.0209961)"/>
</clipPath>
</defs>
</svg>
