<svg width="28" height="29" viewBox="0 0 28 29" fill="none" xmlns="http://www.w3.org/2000/svg">
<path d="M0 0.0625L28 0.0625L28 26.0715C28 27.1711 27.1085 28.0626 26.0089 28.0626H1.99109C0.891429 28.0626 -2.46657e-05 27.1711 -2.36652e-05 26.0715L0 0.0625Z" fill="#F74713"/>
<path d="M18.7656 8.55064L18.7656 6.2395L21.497 6.2395L21.497 8.55064L18.7656 8.55064Z" fill="white"/>
<path d="M17.5052 6.2395L17.5052 8.55064L8.89093 8.55064L8.89093 19.8962L19.6062 19.8962L19.6062 13.5931L15.4041 13.5931L15.4041 11.7022L21.4971 11.7022L21.4971 21.7872L7 21.7872L7 6.2395L17.5052 6.2395Z" fill="white"/>
<path d="M21.4974 8.97095L21.4974 11.2821L12.0427 11.2821L12.0427 14.0134L19.1862 14.0134L19.1862 19.4761L9.52148 19.4761L9.52148 17.165L16.665 17.165L16.665 16.3246L9.52148 16.3246L9.52148 8.97095L21.4974 8.97095Z" fill="white"/>
</svg>
