<svg width="48" height="48" viewBox="0 0 48 48" fill="none" xmlns="http://www.w3.org/2000/svg">
<path d="M14 25C9.03711 25 5 29.0371 5 34C5 38.9629 9.03711 43 14 43C18.9629 43 23 38.9629 23 34C23 29.0371 18.9629 25 14 25ZM9.66699 39.4869V38.5879C9.66699 37.9268 10.0557 37.3262 10.6562 37.0576C11.4165 36.7174 12.2045 36.5039 13 36.4036V37.5557C13 38.1084 13.4473 38.5557 14 38.5557C14.5527 38.5557 15 38.1084 15 37.5557V36.4036C15.7955 36.5038 16.5835 36.7174 17.3438 37.0576C17.9443 37.3262 18.333 37.9267 18.333 38.5879V39.4869C17.1398 40.4313 15.6362 41 14 41C12.3638 41 10.8602 40.4313 9.66699 39.4869ZM14 34.167C13.1728 34.167 12.5 33.4941 12.5 32.667C12.5 31.8398 13.1728 31.167 14 31.167C14.8272 31.167 15.5 31.8398 15.5 32.667C15.5 33.4941 14.8272 34.167 14 34.167ZM20.1224 37.3854C19.7953 36.4436 19.0999 35.6519 18.1602 35.2314C17.7142 35.032 17.2588 34.8782 16.8001 34.7451C17.234 34.1622 17.5 33.4477 17.5 32.667C17.5 30.7373 15.9297 29.167 14 29.167C12.0703 29.167 10.5 30.7373 10.5 32.667C10.5 33.4477 10.766 34.1622 11.1999 34.745C10.7412 34.8782 10.2858 35.032 9.83984 35.2314C8.90014 35.652 8.20471 36.4435 7.87762 37.3854C7.32001 36.3811 7 35.2277 7 34C7 30.1406 10.1406 27 14 27C17.8594 27 21 30.1406 21 34C21 35.2277 20.68 36.3811 20.1224 37.3854Z" fill="#111C24"/>
<path d="M34 25C29.0371 25 25 29.0371 25 34C25 38.9629 29.0371 43 34 43C38.9629 43 43 38.9629 43 34C43 29.0371 38.9629 25 34 25ZM29.667 39.4869V38.5879C29.667 37.9268 30.0557 37.3262 30.6562 37.0576C31.4165 36.7174 32.2045 36.5039 33 36.4036V37.5557C33 38.1084 33.4473 38.5557 34 38.5557C34.5527 38.5557 35 38.1084 35 37.5557V36.4036C35.7955 36.5038 36.5835 36.7174 37.3438 37.0576C37.9443 37.3262 38.333 37.9267 38.333 38.5879V39.4869C37.1398 40.4313 35.6362 41 34 41C32.3638 41 30.8602 40.4313 29.667 39.4869ZM34 34.167C33.1728 34.167 32.5 33.4941 32.5 32.667C32.5 31.8398 33.1728 31.167 34 31.167C34.8272 31.167 35.5 31.8398 35.5 32.667C35.5 33.4941 34.8272 34.167 34 34.167ZM40.1224 37.3854C39.7953 36.4436 39.0999 35.6519 38.1602 35.2314C37.7142 35.032 37.2588 34.8782 36.8001 34.7451C37.234 34.1622 37.5 33.4477 37.5 32.667C37.5 30.7373 35.9297 29.167 34 29.167C32.0703 29.167 30.5 30.7373 30.5 32.667C30.5 33.4477 30.766 34.1622 31.1999 34.745C30.7412 34.8782 30.2858 35.032 29.8398 35.2314C28.9001 35.652 28.2047 36.4435 27.8776 37.3854C27.32 36.3811 27 35.2277 27 34C27 30.1406 30.1406 27 34 27C37.8594 27 41 30.1406 41 34C41 35.2277 40.68 36.3811 40.1224 37.3854Z" fill="#F74713"/>
<path d="M33.2314 23.1401C33.6112 23.596 34.3664 23.6217 34.7686 23.1401L36.5518 21H38C39.6543 21 41 19.6543 41 18V8C41 6.3457 39.6543 5 38 5H10C8.3457 5 7 6.3457 7 8V18C7 19.6543 8.3457 21 10 21H11.4482L13.2314 23.1401C13.6123 23.5962 14.3877 23.5962 14.7685 23.1401L16.5518 21H31.4482L33.2314 23.1401ZM16.083 19C15.7861 19 15.5049 19.1318 15.3145 19.3599L14 20.938L12.6855 19.3599C12.4951 19.1318 12.2139 19 11.917 19H10C9.44824 19 9 18.5513 9 18V8C9 7.44873 9.44824 7 10 7H23V9C23 9.55225 23.4473 10 24 10C24.5527 10 25 9.55225 25 9V7H38C38.5518 7 39 7.44873 39 8V18C39 18.5513 38.5518 19 38 19H36.083C35.7861 19 35.5049 19.1318 35.3145 19.3599L34 20.938L32.6856 19.3599C32.4951 19.1318 32.2139 19 31.917 19H25V17C25 16.4478 24.5527 16 24 16C23.4473 16 23 16.4478 23 17V19H16.083Z" fill="#111C24"/>
<path d="M30.293 15.7071C30.6804 16.0944 31.3197 16.0943 31.707 15.707L35.707 11.707C36.0977 11.3164 36.0977 10.6836 35.707 10.293C35.3164 9.90235 34.6836 9.90235 34.293 10.293L31 13.5859L29.707 12.293C29.3164 11.9023 28.6836 11.9023 28.293 12.293C27.9024 12.6836 27.9024 13.3164 28.293 13.707L30.293 15.7071Z" fill="#111C24"/>
<path d="M17.4141 9.14941C16.9131 9.14941 16.4297 9.27197 16 9.50244C15.5703 9.27197 15.0869 9.14941 14.5859 9.14941C12.9316 9.14941 11.5859 10.4951 11.5859 12.1494C11.5859 13.8593 13.1913 15.3905 14.538 16.3739C15.3693 16.981 16.606 16.9978 17.4619 16.374C18.8086 15.3906 20.4141 13.8594 20.4141 12.1494C20.4141 10.4951 19.0684 9.14941 17.4141 9.14941ZM16.2822 14.7588C16.1162 14.8799 15.8838 14.8799 15.7178 14.7588C14.4023 13.7988 13.5859 12.7988 13.5859 12.1494C13.5859 11.5981 14.0342 11.1494 14.5859 11.1494C14.8525 11.1494 15.1035 11.2534 15.293 11.4429C15.6836 11.8325 16.3164 11.8325 16.707 11.4429C16.8965 11.2534 17.1475 11.1494 17.4141 11.1494C17.9658 11.1494 18.4141 11.5981 18.4141 12.1494C18.4141 12.7988 17.5977 13.7988 16.2822 14.7588Z" fill="#F74713"/>
<path d="M24 14C24.5523 14 25 13.5523 25 13C25 12.4477 24.5523 12 24 12C23.4477 12 23 12.4477 23 13C23 13.5523 23.4477 14 24 14Z" fill="#111C24"/>
</svg>
