<svg width="86" height="42" viewBox="0 0 86 42" fill="none" xmlns="http://www.w3.org/2000/svg">
<path fill-rule="evenodd" clip-rule="evenodd" d="M21.5067 25.2802L18.9439 23.0222C16.8375 21.1683 15.519 19.5434 14.9742 18.1839C14.4264 16.8197 14.292 15.3762 14.7011 13.7167C14.72 13.6423 14.739 13.5667 14.7578 13.4939C9.83421 18.5582 8.22516 20.3252 13.7125 26.0622C14.8668 27.3712 17.5135 29.3134 19.2757 29.6309C20.1143 29.7823 20.8234 29.7714 21.3964 29.4806C23.3212 28.5049 22.6993 26.3289 21.5069 25.2804L21.5067 25.2802Z" fill="#8C8C8C"/>
<path fill-rule="evenodd" clip-rule="evenodd" d="M18.3137 26.1591L16.4868 23.2729C14.9845 20.9027 14.1745 18.9731 14.0329 17.5153C13.9109 16.2692 14.0943 15.0522 14.6808 13.8053C14.6879 13.7754 14.6937 13.7463 14.7011 13.7164C14.72 13.642 14.739 13.5665 14.7578 13.4937C9.83421 18.5579 8.22516 20.325 13.7125 26.062C14.6885 27.1687 16.7298 28.7246 18.4032 29.3719C19.0794 28.4857 18.9083 27.097 18.3135 26.1591H18.3137Z" fill="#111C24"/>
<path fill-rule="evenodd" clip-rule="evenodd" d="M22.523 27.9756C21.8154 30.8433 18.1868 29.4125 16.7119 28.4618C15.7409 27.8333 14.2358 26.5827 13.4038 25.7394C13.8553 26.6333 14.5864 29.0476 17.1824 30.4197C19.5005 31.6468 22.0586 31.5062 23.4735 30.2779C27.7149 26.5953 20.5586 22.3114 18.4504 20.4747C14.059 16.6455 14.7965 13.3151 14.7586 13.4934C13.4591 17.7822 16.1482 20.6184 18.8897 23.0675C20.0943 24.1415 23.0096 26.0061 22.5232 27.9756H22.523Z" fill="white"/>
<path fill-rule="evenodd" clip-rule="evenodd" d="M19.8869 15.9922L22.4512 18.2503C24.558 20.1057 25.8764 21.729 26.421 23.0886C26.9675 24.4543 27.1032 25.8978 26.6943 27.5559C26.6754 27.6319 26.6565 27.706 26.6373 27.7801C31.561 22.716 33.17 20.9489 27.6828 15.2119C26.5285 13.9028 23.8804 11.9591 22.1198 11.6432C21.2812 11.4917 20.5721 11.5027 19.9973 11.7934C18.074 12.7676 18.6962 14.9437 19.8869 15.9922Z" fill="#8C8C8C"/>
<path fill-rule="evenodd" clip-rule="evenodd" d="M27.6528 23.7679C27.7416 25.049 27.5141 26.2899 26.8584 27.551C31.6047 22.6631 33.0841 20.8606 27.6813 15.212C26.7864 14.1974 24.9954 12.8047 23.4146 12.0811C22.9375 12.9468 23.098 14.1558 23.6072 15.011L25.3564 17.946C26.793 20.3578 27.5508 22.307 27.6527 23.768L27.6528 23.7679Z" fill="#111C24"/>
<path fill-rule="evenodd" clip-rule="evenodd" d="M18.8732 13.2968C19.5808 10.4306 23.2095 11.8596 24.6827 12.8118C25.6555 13.4388 27.1588 14.6893 27.9912 15.5342C27.5393 14.6403 26.81 12.2245 24.2137 10.8522C21.8957 9.6254 19.3375 9.76734 17.9226 10.9941C13.6812 14.6768 20.8375 18.9623 22.9441 20.7989C27.3372 24.6266 26.5981 27.9585 26.6375 27.7801C27.9371 23.4913 25.2463 20.6552 22.5067 18.2061C21.3018 17.1322 18.3868 15.2659 18.8731 13.2968H18.8732Z" fill="white"/>
<path d="M36.1709 19.1163C36.1709 20.3942 36.889 21.1862 38.2831 21.4714L39.4765 21.7143C39.9939 21.8199 40.1945 22.0417 40.1945 22.4746C40.1945 22.971 39.7087 23.2772 38.9378 23.2772C38.1775 23.2772 37.755 22.9604 37.755 22.3901H36.0547C36.0547 23.858 37.1847 24.7979 38.9272 24.7979C40.7226 24.7979 41.9053 23.8157 41.9053 22.3055C41.9053 21.0699 41.24 20.4045 39.846 20.1194L38.6737 19.8765C38.1246 19.7604 37.8816 19.528 37.8816 19.0528C37.8816 18.5354 38.325 18.2186 39.0222 18.2186C39.6663 18.2186 40.0783 18.5564 40.0783 19.1057H41.7786C41.7786 17.6272 40.7226 16.6978 39.0434 16.6978C37.3643 16.6978 36.1709 17.7011 36.1709 19.1162V19.1163Z" fill="white"/>
<path d="M44.7456 16.8455H43.0347V24.6606H44.7456V16.8455Z" fill="white"/>
<path d="M48.0825 16.8455H46.3716V24.6606H51.1663V23.0764H48.0825V16.8455Z" fill="white"/>
<path d="M53.6178 24.6606H55.3815L58.254 16.8457H56.4692L55.0118 20.7954C54.8428 21.2601 54.6949 21.6931 54.4943 22.4428C54.3254 21.7669 54.1775 21.2811 53.9979 20.7954L52.5194 16.8457H50.6924L53.6176 24.6606H53.6178Z" fill="white"/>
<path d="M60.8822 16.8455H59.1714V24.6606H60.8822V16.8455Z" fill="white"/>
<path d="M64.198 24.6606V19.6969L67.493 24.6606H69.1827V16.8455H67.493V21.8195L64.198 16.8455H62.5083V24.6606H64.198Z" fill="white"/>
<path d="M75.775 24.6606V23.0764H72.5223V21.4606H75.4054V19.9609H72.5223V18.4296H75.775V16.8455H70.8115V24.6606H75.775Z" fill="white"/>
<path d="M39.6022 27.6753V27.4504H38.8848V26.8518H39.7386V26.6245H38.6372V28.4507H38.8848V27.6753H39.6022Z" fill="white"/>
<path d="M41.6269 26.6245H41.3794V28.4507H41.6269V26.6245Z" fill="white"/>
<path d="M43.6435 28.4507V27.0388L44.5783 28.4507H44.8257V26.6245H44.5783V28.0365L43.6435 26.6245H43.396V28.4507H43.6435Z" fill="white"/>
<path d="M46.5342 27.8875H47.3046V27.6753H46.5342V27.8875Z" fill="white"/>
<path d="M48.8672 27.117C48.8672 27.3797 49.0213 27.5515 49.3194 27.6197L49.62 27.6878C49.7942 27.7283 49.8725 27.8192 49.8725 27.9632C49.8725 28.145 49.7183 28.2588 49.4759 28.2588C49.2461 28.2588 49.0995 28.1476 49.0945 27.9733H48.8418C48.8569 28.2866 49.1045 28.4811 49.4758 28.4811C49.8648 28.4811 50.1199 28.2715 50.1199 27.9431C50.1199 27.6854 49.9683 27.5239 49.6703 27.4556L49.3697 27.3848C49.1978 27.3445 49.1146 27.2561 49.1146 27.1095C49.1146 26.9301 49.2636 26.8139 49.4935 26.8139C49.6981 26.8139 49.8268 26.92 49.8395 27.1018H50.0897C50.0694 26.7861 49.8447 26.5916 49.496 26.5916C49.1197 26.5916 48.867 26.8037 48.867 27.117H48.8672Z" fill="white"/>
<path d="M53.4197 27.5363C53.4197 26.9806 53.0585 26.5916 52.5406 26.5916C52.0253 26.5916 51.6641 26.9831 51.6641 27.5363C51.6641 28.0919 52.0227 28.4809 52.538 28.4809C53.0558 28.4809 53.4196 28.0919 53.4196 27.5363H53.4197ZM53.1595 27.5363C53.1595 27.958 52.9119 28.2435 52.5406 28.2435C52.1693 28.2435 51.9243 27.9606 51.9243 27.5363C51.9243 27.1119 52.1693 26.8315 52.5406 26.8315C52.9119 26.8315 53.1595 27.1119 53.1595 27.5363Z" fill="white"/>
<path d="M55.3216 26.6245H55.0742V28.4507H56.125V28.2209H55.3216V26.6245Z" fill="white"/>
<path d="M57.6436 27.8014C57.6436 28.2232 57.9114 28.4809 58.3433 28.4809C58.7728 28.4809 59.0404 28.2206 59.0404 27.8014V26.6243H58.7903V27.7863C58.7903 28.0768 58.6312 28.2409 58.3433 28.2409C58.0528 28.2409 57.8911 28.0792 57.8911 27.7863V26.6243H57.6436V27.8014Z" fill="white"/>
<path d="M60.6162 26.8518H61.1668V28.4507H61.4143V26.8518H61.9624V26.6245H60.6162V26.8518Z" fill="white"/>
<path d="M63.8006 26.6245H63.5532V28.4507H63.8006V26.6245Z" fill="white"/>
<path d="M67.2137 27.5363C67.2137 26.9806 66.8525 26.5916 66.3346 26.5916C65.8192 26.5916 65.458 26.9831 65.458 27.5363C65.458 28.0919 65.8166 28.4809 66.332 28.4809C66.8497 28.4809 67.2135 28.0919 67.2135 27.5363H67.2137ZM66.9534 27.5363C66.9534 27.958 66.7059 28.2435 66.3346 28.2435C65.9632 28.2435 65.7183 27.9606 65.7183 27.5363C65.7183 27.1119 65.9632 26.8315 66.3346 26.8315C66.7059 26.8315 66.9534 27.1119 66.9534 27.5363Z" fill="white"/>
<path d="M69.1157 28.4507V27.0388L70.0503 28.4507H70.2978V26.6245H70.0503V28.0365L69.1157 26.6245H68.8682V28.4507H69.1157Z" fill="white"/>
<path d="M71.936 27.117C71.936 27.3797 72.0902 27.5515 72.3882 27.6197L72.6888 27.6878C72.8631 27.7283 72.9413 27.8192 72.9413 27.9632C72.9413 28.145 72.7872 28.2588 72.5448 28.2588C72.3149 28.2588 72.1683 28.1476 72.1633 27.9733H71.9106C71.9258 28.2866 72.1733 28.4811 72.5446 28.4811C72.9336 28.4811 73.1887 28.2715 73.1887 27.9431C73.1887 27.6854 73.0371 27.5239 72.7391 27.4556L72.4385 27.3848C72.2667 27.3445 72.1834 27.2561 72.1834 27.1095C72.1834 26.9301 72.3324 26.8139 72.5623 26.8139C72.7669 26.8139 72.8957 26.92 72.9084 27.1018H73.1585C73.1383 26.7861 72.9135 26.5916 72.5649 26.5916C72.1886 26.5916 71.9359 26.8037 71.9359 27.117H71.936Z" fill="white"/>
</svg>
