<svg width="48" height="48" viewBox="0 0 48 48" fill="none" xmlns="http://www.w3.org/2000/svg">
<path d="M21 15H16C15.4477 15 15 15.4473 15 16C15 16.5527 15.4477 17 16 17H17.5V22C17.5 22.5527 17.9478 23 18.5 23C19.0522 23 19.5 22.5527 19.5 22V17H21C21.5522 17 22 16.5527 22 16C22 15.4473 21.5522 15 21 15Z" fill="#F74713"/>
<path d="M32 20H23C22.4477 20 22 20.4473 22 21C22 21.5527 22.4477 22 23 22H32C32.5522 22 33 21.5527 33 21C33 20.4473 32.5522 20 32 20Z" fill="#F74713"/>
<path d="M32 16H25C24.4477 16 24 16.4473 24 17C24 17.5527 24.4477 18 25 18H32C32.5522 18 33 17.5527 33 17C33 16.4473 32.5522 16 32 16Z" fill="black"/>
<path d="M40 11H37V8C37 6.3457 35.6543 5 34 5H14C12.3457 5 11 6.3457 11 8V11H8C6.34998 11 5 12.35 5 14V34C5 35.65 6.34998 37 8 37H18.22L17.22 41H16C15.45 41 15 41.45 15 42C15 42.55 15.45 43 16 43H32C32.55 43 33 42.55 33 42C33 41.45 32.55 41 32 41H30.78L29.78 37H40C41.65 37 43 35.65 43 34V26C43 25.45 42.55 25 42 25C41.45 25 41 25.45 41 26V31H7V14C7 13.45 7.45001 13 8 13H11V24C11 25.6543 12.3457 27 14 27H34C35.6543 27 37 25.6543 37 24V13H40C40.55 13 41 13.45 41 14V18C41 18.55 41.45 19 42 19C42.55 19 43 18.55 43 18V14C43 12.35 41.65 11 40 11ZM19.28 41L20.28 37H27.72L28.72 41H19.28ZM37 33H41V34C41 34.55 40.55 35 40 35H37V33ZM13 33H35V35H13V33ZM11 33V35H8C7.45001 35 7 34.55 7 34V33H11ZM35 8V11H25.7209L24.3875 7H34C34.5513 7 35 7.44824 35 8ZM21.7209 11L20.3875 7H22.2791L23.6125 11H21.7209ZM14 7H18.2791L19.6125 11H13V8C13 7.44824 13.4487 7 14 7ZM34 25H14C13.4487 25 13 24.5518 13 24V13H35V24C35 24.5518 34.5513 25 34 25Z" fill="black"/>
<path d="M42 23C42.5523 23 43 22.5523 43 22C43 21.4477 42.5523 21 42 21C41.4477 21 41 21.4477 41 22C41 22.5523 41.4477 23 42 23Z" fill="black"/>
</svg>
