<svg width="128" height="27" viewBox="0 0 128 27" fill="none" xmlns="http://www.w3.org/2000/svg">
<path fill-rule="evenodd" clip-rule="evenodd" d="M16.5602 22.3135C15.1931 17.7733 12.7269 14.197 9.08356 10.9215L3.81295 20.0391C5.44938 22.7194 13.4469 25.6021 16.5602 22.3135ZM18.3352 18.8061C19.6077 15.2146 19.2214 11.5528 16.5516 8.35612C15.2502 6.79786 14.8186 6.41552 13.3392 5.23435C13.1198 5.05894 12.8958 4.88749 12.6691 4.71932L10.2404 8.9211L10.745 8.04868C13.8917 10.8525 16.6258 14.0912 18.3359 18.8054L18.3352 18.8061ZM10.109 3.05068C8.55407 2.15133 6.90516 1.37089 5.23982 0.667312C4.26164 0.254097 1.49134 -0.902116 0.540749 -1C-0.236407 3.17288 -0.194363 9.54649 0.7871 13.6241C1.09783 14.915 1.47951 16.0804 1.97221 17.144L10.109 3.05068Z" fill="white"/>
<mask id="mask0_262_8928" style="mask-type:luminance" maskUnits="userSpaceOnUse" x="0" y="-1" width="20" height="25">
<path d="M16.5602 22.3135C15.1931 17.7733 12.7269 14.197 9.08356 10.9215L3.81295 20.0391C5.44938 22.7194 13.4469 25.6021 16.5602 22.3135ZM18.3352 18.8061C19.6077 15.2146 19.2214 11.5528 16.5516 8.35612C15.2502 6.79786 14.8186 6.41552 13.3392 5.23435C13.1198 5.05894 12.8958 4.88749 12.6691 4.71932L10.2404 8.9211L10.745 8.04868C13.8917 10.8525 16.6258 14.0912 18.3359 18.8054L18.3352 18.8061ZM10.109 3.05068C8.55407 2.15133 6.90516 1.37089 5.23982 0.667312C4.26164 0.254097 1.49134 -0.902116 0.540749 -1C-0.236407 3.17288 -0.194363 9.54649 0.7871 13.6241C1.09783 14.915 1.47951 16.0804 1.97221 17.144L10.109 3.05068Z" fill="white"/>
</mask>
<g mask="url(#mask0_262_8928)">
<path d="M0.540119 25.5952C15.2287 25.5952 27.1362 13.6877 27.1362 -1.00098C27.1362 -15.6897 15.2287 -27.5972 0.540119 -27.5972C-14.1485 -27.5972 -26.056 -15.6897 -26.056 -1.00098C-26.056 13.6877 -14.1485 25.5952 0.540119 25.5952Z" fill="white"/>
<path d="M0.539888 23.239C13.9271 23.239 24.7795 12.3865 24.7795 -1.00074C24.7795 -14.388 13.9271 -25.2405 0.539888 -25.2405C-12.8473 -25.2405 -23.6998 -14.388 -23.6998 -1.00074C-23.6998 12.3865 -12.8473 23.239 0.539888 23.239Z" fill="white"/>
<path d="M0.540264 21.0906C12.741 21.0906 22.6317 11.1999 22.6317 -1.00097C22.6317 -13.2018 12.741 -23.0925 0.540264 -23.0925C-11.6605 -23.0925 -21.5512 -13.2018 -21.5512 -1.00097C-21.5512 11.1999 -11.6605 21.0906 0.540264 21.0906Z" fill="white"/>
<path d="M0.540169 18.2121C11.1511 18.2121 19.7529 9.61018 19.7529 -1.00078C19.7529 -11.6117 11.1511 -20.2136 0.540169 -20.2136C-10.0708 -20.2136 -18.6726 -11.6117 -18.6726 -1.00078C-18.6726 9.61018 -10.0708 18.2121 0.540169 18.2121Z" fill="white"/>
<path d="M0.540392 15.2079C9.49216 15.2079 16.749 7.95099 16.749 -1.00081C16.749 -9.95261 9.49216 -17.2095 0.540392 -17.2095C-8.41137 -17.2095 -15.6682 -9.95261 -15.6682 -1.00081C-15.6682 7.95099 -8.41137 15.2079 0.540392 15.2079Z" fill="white"/>
<path d="M0.540129 12.2423C7.85414 12.2423 13.7833 6.31314 13.7833 -1.0009C13.7833 -8.31494 7.85414 -14.2441 0.540129 -14.2441C-6.77388 -14.2441 -12.7031 -8.31494 -12.7031 -1.0009C-12.7031 6.31314 -6.77388 12.2423 0.540129 12.2423Z" fill="white"/>
<path d="M0.539914 9.34394C6.25318 9.34394 10.8847 4.7124 10.8847 -1.00088C10.8847 -6.71417 6.25318 -11.3457 0.539914 -11.3457C-5.17335 -11.3457 -9.80487 -6.71417 -9.80487 -1.00088C-9.80487 4.7124 -5.17335 9.34394 0.539914 9.34394Z" fill="white"/>
<path d="M0.539885 6.55651C4.71372 6.55651 8.09729 3.17294 8.09729 -1.00092C8.09729 -5.17477 4.71372 -8.55835 0.539885 -8.55835C-3.63395 -8.55835 -7.01752 -5.17477 -7.01752 -1.00092C-7.01752 3.17294 -3.63395 6.55651 0.539885 6.55651Z" fill="white"/>
<path d="M0.54031 3.81797C3.20157 3.81797 5.35894 1.66058 5.35894 -1.00069C5.35894 -3.66195 3.20157 -5.81934 0.54031 -5.81934C-2.12095 -5.81934 -4.27832 -3.66195 -4.27832 -1.00069C-4.27832 1.66058 -2.12095 3.81797 0.54031 3.81797Z" fill="white"/>
<path fill-rule="evenodd" clip-rule="evenodd" d="M0.540718 -4.20557C2.31051 -4.20557 3.74526 -2.77081 3.74526 -1.00101C3.74526 0.76878 2.31051 2.20354 0.540718 2.20354C-1.22907 2.20354 -2.66382 0.76878 -2.66382 -1.00101C-2.66382 -2.77081 -1.22907 -4.20557 0.540718 -4.20557Z" fill="white"/>
</g>
<path d="M110.115 27.422V25.417H110.499L111.681 26.8603H111.495V25.417H111.953V27.422H111.573L110.386 25.978H110.573V27.422H110.115Z" fill="white"/>
<path d="M112.398 27.4222V25.881H112.844V27.4222H112.398ZM112.621 25.6662C112.539 25.6662 112.472 25.6425 112.421 25.5946C112.369 25.5473 112.343 25.4875 112.343 25.4172C112.343 25.3462 112.369 25.2871 112.421 25.2398C112.472 25.1919 112.539 25.1682 112.621 25.1682C112.703 25.1682 112.77 25.1905 112.821 25.2352C112.873 25.2805 112.899 25.3377 112.899 25.4086C112.899 25.4829 112.873 25.5446 112.823 25.5933C112.772 25.6419 112.704 25.6662 112.621 25.6662Z" fill="white"/>
<path d="M113.984 28.0001C113.839 28.0001 113.699 27.9824 113.565 27.9469C113.43 27.9114 113.318 27.8589 113.228 27.7879L113.406 27.4667C113.471 27.5199 113.554 27.5626 113.653 27.5941C113.754 27.6257 113.852 27.6414 113.95 27.6414C114.108 27.6414 114.224 27.6059 114.295 27.5356C114.367 27.4654 114.402 27.3603 114.402 27.2203V26.9884L114.431 26.6015L114.425 26.2119V25.8795H114.849V27.1625C114.849 27.4489 114.775 27.6598 114.626 27.7958C114.477 27.9311 114.263 27.9988 113.984 27.9988L113.984 28.0001ZM113.916 27.3471C113.773 27.3471 113.644 27.3162 113.528 27.2538C113.412 27.1921 113.32 27.1047 113.25 26.993C113.18 26.8813 113.146 26.7506 113.146 26.6021C113.146 26.451 113.18 26.3197 113.25 26.208C113.32 26.0963 113.412 26.0096 113.528 25.9485C113.644 25.8874 113.773 25.8572 113.916 25.8572C114.046 25.8572 114.161 25.8835 114.26 25.936C114.359 25.9886 114.436 26.0694 114.492 26.1791C114.547 26.2888 114.574 26.4294 114.574 26.6015C114.574 26.7716 114.547 26.9109 114.492 27.0213C114.436 27.131 114.359 27.2124 114.26 27.2663C114.161 27.3195 114.046 27.3465 113.916 27.3465V27.3471ZM114.005 26.9805C114.083 26.9805 114.153 26.9648 114.214 26.9332C114.275 26.9017 114.323 26.857 114.357 26.7999C114.391 26.7427 114.408 26.677 114.408 26.6021C114.408 26.5253 114.391 26.4596 114.357 26.4031C114.323 26.3466 114.275 26.3026 114.214 26.271C114.153 26.2395 114.083 26.2237 114.005 26.2237C113.927 26.2237 113.857 26.2395 113.795 26.271C113.734 26.3026 113.686 26.3466 113.651 26.4031C113.615 26.4596 113.598 26.5259 113.598 26.6021C113.598 26.6764 113.615 26.7421 113.651 26.7999C113.686 26.857 113.734 26.9017 113.795 26.9332C113.856 26.9648 113.926 26.9805 114.005 26.9805Z" fill="white"/>
<path d="M116.03 27.445C115.854 27.445 115.7 27.4108 115.567 27.3419C115.435 27.2729 115.332 27.1789 115.259 27.0594C115.187 26.9405 115.15 26.8038 115.15 26.6514C115.15 26.497 115.186 26.3597 115.258 26.2402C115.329 26.1206 115.427 26.0273 115.551 25.959C115.676 25.8913 115.816 25.8572 115.973 25.8572C116.124 25.8572 116.26 25.8894 116.381 25.9531C116.502 26.0168 116.598 26.1088 116.668 26.2283C116.739 26.3479 116.774 26.4905 116.774 26.6567C116.774 26.6737 116.773 26.6934 116.771 26.7151C116.769 26.7368 116.767 26.7578 116.765 26.7769H115.513V26.5161H116.53L116.358 26.5936C116.358 26.5135 116.342 26.4438 116.31 26.3847C116.277 26.3256 116.232 26.2789 116.175 26.2461C116.118 26.2126 116.051 26.1962 115.975 26.1962C115.898 26.1962 115.831 26.2132 115.773 26.2461C115.714 26.2796 115.67 26.3262 115.637 26.386C115.605 26.4464 115.588 26.5174 115.588 26.5995V26.6685C115.588 26.7526 115.607 26.8268 115.644 26.8905C115.682 26.9543 115.734 27.0029 115.802 27.0364C115.869 27.0699 115.949 27.0863 116.041 27.0863C116.123 27.0863 116.195 27.0738 116.257 27.0489C116.319 27.0239 116.376 26.9871 116.427 26.9372L116.665 27.1954C116.595 27.2755 116.505 27.3373 116.398 27.38C116.291 27.4233 116.168 27.4443 116.028 27.4443L116.03 27.445Z" fill="white"/>
<path d="M117.073 27.4218V25.8806H117.5V26.3162L117.439 26.1901C117.485 26.081 117.558 25.9989 117.66 25.9424C117.761 25.8859 117.884 25.8577 118.029 25.8577V26.2702C118.01 26.2682 117.993 26.2669 117.978 26.2656C117.963 26.265 117.946 26.2643 117.929 26.2643C117.807 26.2643 117.708 26.2991 117.633 26.3688C117.557 26.4384 117.52 26.5468 117.52 26.6939V27.4212H117.073L117.073 27.4218Z" fill="white"/>
<path d="M118.295 27.4222V25.881H118.742V27.4222H118.295ZM118.518 25.6662C118.436 25.6662 118.369 25.6425 118.318 25.5946C118.267 25.5473 118.24 25.4875 118.24 25.4172C118.24 25.3462 118.266 25.2871 118.318 25.2398C118.369 25.1919 118.436 25.1682 118.518 25.1682C118.6 25.1682 118.667 25.1905 118.719 25.2352C118.771 25.2805 118.796 25.3377 118.796 25.4086C118.796 25.4829 118.771 25.5446 118.72 25.5933C118.669 25.6419 118.602 25.6662 118.518 25.6662Z" fill="white"/>
<path d="M120.103 27.4217V27.1208L120.074 27.0551V26.5164C120.074 26.4211 120.045 26.3463 119.987 26.293C119.928 26.2398 119.839 26.2129 119.719 26.2129C119.637 26.2129 119.556 26.226 119.476 26.2517C119.397 26.2773 119.33 26.3121 119.275 26.3561L119.114 26.0441C119.198 25.9849 119.3 25.939 119.418 25.9068C119.536 25.8746 119.656 25.8582 119.779 25.8582C120.014 25.8582 120.196 25.9133 120.326 26.0243C120.456 26.1354 120.521 26.3082 120.521 26.5427V27.4223H120.102L120.103 27.4217ZM119.633 27.4447C119.513 27.4447 119.41 27.4243 119.324 27.3829C119.238 27.3422 119.172 27.2863 119.126 27.2154C119.08 27.1444 119.057 27.0656 119.057 26.9776C119.057 26.8863 119.08 26.8061 119.124 26.7371C119.17 26.6682 119.24 26.6143 119.338 26.5755C119.435 26.5368 119.562 26.5171 119.719 26.5171H120.129V26.7779H119.767C119.662 26.7779 119.591 26.7949 119.551 26.8291C119.512 26.8633 119.493 26.9066 119.493 26.9579C119.493 27.015 119.515 27.0603 119.56 27.0938C119.605 27.1273 119.666 27.1438 119.744 27.1438C119.819 27.1438 119.886 27.126 119.945 27.0906C120.004 27.0551 120.047 27.0032 120.073 26.9342L120.142 27.1405C120.11 27.2397 120.051 27.3152 119.965 27.3665C119.879 27.4177 119.768 27.444 119.633 27.444L119.633 27.4447Z" fill="white"/>
<path d="M121.767 27.422V25.417H122.231V27.0436H123.237V27.422H121.767Z" fill="white"/>
<path d="M124.082 27.4447C123.901 27.4447 123.759 27.3987 123.658 27.3054C123.557 27.2128 123.507 27.0748 123.507 26.8915V25.5396H123.953V26.8856C123.953 26.9507 123.97 27.0006 124.005 27.0361C124.039 27.0715 124.086 27.0893 124.145 27.0893C124.215 27.0893 124.276 27.0702 124.325 27.0321L124.445 27.3474C124.399 27.3803 124.345 27.4046 124.281 27.4204C124.217 27.4368 124.151 27.4447 124.082 27.4447ZM123.269 26.2589V25.9153H124.337V26.2589H123.269Z" fill="white"/>
<path d="M125.31 27.445C125.165 27.445 125.035 27.4121 124.918 27.3464C124.801 27.2808 124.709 27.1881 124.642 27.0699C124.574 26.9516 124.54 26.8117 124.54 26.6514C124.54 26.4891 124.574 26.3486 124.642 26.2303C124.709 26.1121 124.801 26.0201 124.918 25.9551C125.035 25.89 125.165 25.8578 125.31 25.8578C125.441 25.8578 125.554 25.8867 125.651 25.9439C125.749 26.001 125.824 26.0884 125.877 26.2047C125.931 26.3216 125.958 26.4701 125.958 26.6514C125.958 26.8307 125.932 26.9792 125.88 27.0968C125.828 27.2144 125.755 27.3018 125.658 27.3589C125.561 27.4161 125.446 27.445 125.31 27.445H125.31ZM125.388 27.0784C125.46 27.0784 125.527 27.0613 125.586 27.0272C125.645 26.993 125.692 26.9437 125.728 26.8794C125.763 26.8156 125.781 26.7394 125.781 26.6521C125.781 26.5621 125.763 26.4859 125.728 26.4228C125.692 26.3597 125.645 26.3111 125.586 26.2769C125.527 26.2428 125.46 26.2257 125.388 26.2257C125.314 26.2257 125.247 26.2428 125.187 26.2769C125.128 26.3111 125.081 26.3597 125.045 26.4228C125.01 26.4859 124.992 26.5621 124.992 26.6521C124.992 26.7394 125.01 26.8156 125.045 26.8794C125.081 26.9437 125.128 26.9924 125.187 27.0272C125.246 27.0613 125.313 27.0784 125.388 27.0784ZM125.792 27.422V27.1067L125.801 26.6481L125.772 26.1929V25.2961H126.218V27.4213H125.791L125.792 27.422Z" fill="white"/>
<path d="M126.8 27.4449C126.724 27.4449 126.659 27.4187 126.604 27.3661C126.549 27.3135 126.523 27.2465 126.523 27.1644C126.523 27.0823 126.549 27.0159 126.604 26.9654C126.659 26.9148 126.724 26.8892 126.8 26.8892C126.879 26.8892 126.944 26.9148 126.998 26.9654C127.051 27.0159 127.078 27.0823 127.078 27.1644C127.078 27.2465 127.051 27.3142 126.998 27.3661C126.945 27.4187 126.879 27.4449 126.8 27.4449Z" fill="white"/>
<path d="M34.3243 10.5984V13.9567H34.0057C33.8086 13.1815 33.5931 12.6244 33.3553 12.2867C33.1175 11.9458 32.7897 11.6771 32.3738 11.4767C32.1426 11.367 31.736 11.3112 31.1539 11.3112H30.2158V20.9163C30.2158 21.5574 30.25 21.9575 30.3189 22.1172C30.3879 22.2768 30.5252 22.4174 30.7256 22.5363C30.9292 22.6585 31.2045 22.7176 31.554 22.7176H31.9606V23.0362H25.4885V22.7176H25.8984C26.2551 22.7176 26.5422 22.6519 26.7616 22.5238C26.918 22.4364 27.0428 22.2893 27.1335 22.0797C27.1992 21.9326 27.2333 21.545 27.2333 20.9169V11.3118H26.3327C25.501 11.3118 24.8979 11.4899 24.5189 11.8433C23.9907 12.3373 23.6589 13.0409 23.5183 13.9573H23.1616V10.599H34.3243V10.5984ZM37.7916 14.4632L37.7975 16.4143C38.3605 15.5294 38.8572 14.9414 39.2829 14.6537C39.7085 14.3626 40.1178 14.2188 40.5113 14.2188C40.8523 14.2188 41.1275 14.3252 41.3305 14.5348C41.5335 14.7443 41.6373 15.0413 41.6373 15.4262C41.6373 15.8329 41.5375 16.1515 41.3404 16.3768C41.1433 16.6022 40.9061 16.7145 40.6243 16.7145C40.3024 16.7145 40.0239 16.6113 39.7894 16.4051C39.5515 16.1955 39.411 16.0799 39.3702 16.0582C39.3078 16.0208 39.2388 16.0017 39.1607 16.0017C38.9853 16.0017 38.8164 16.0674 38.6607 16.2021C38.4104 16.4116 38.2226 16.7086 38.0951 17.0935C37.9013 17.6841 37.8041 18.3378 37.8041 19.0539L37.81 21.0201V21.5358C37.81 21.8859 37.8317 22.1113 37.8757 22.2111C37.9473 22.3767 38.057 22.4988 38.2009 22.5737C38.348 22.6519 38.5918 22.6992 38.936 22.7176V23.0362H34.2836V22.7176C34.6587 22.6867 34.9122 22.5829 35.0436 22.4115C35.175 22.2361 35.2407 21.7769 35.2407 21.0293V16.2829C35.2407 15.7856 35.2158 15.4702 35.1658 15.3323C35.1061 15.1569 35.016 15.0321 34.8998 14.9506C34.7841 14.8692 34.5779 14.8133 34.2842 14.7818V14.4632H37.7923H37.7916ZM47.3001 21.7611C46.2556 22.6867 45.3142 23.1492 44.4858 23.1492C43.9951 23.1492 43.5884 22.9896 43.2632 22.6677C42.9413 22.3491 42.7784 21.945 42.7784 21.4635C42.7784 20.8105 43.0602 20.2225 43.6226 19.7003C44.1849 19.178 45.4108 18.4836 47.2995 17.6178V16.7579C47.2995 16.1141 47.2646 15.7074 47.193 15.5386C47.1241 15.373 46.99 15.2259 46.793 15.1004C46.5959 14.9756 46.3738 14.9132 46.1301 14.9132C45.73 14.9132 45.4016 15.0005 45.1454 15.1792C44.9857 15.2889 44.9075 15.4164 44.9075 15.5635C44.9075 15.6916 44.9923 15.848 45.1638 16.0385C45.395 16.3013 45.5106 16.5542 45.5106 16.7986C45.5106 17.0955 45.4009 17.3524 45.1762 17.5613C44.9542 17.7709 44.6632 17.8773 44.3038 17.8773C43.9195 17.8773 43.597 17.7617 43.3381 17.5304C43.0786 17.2992 42.9472 17.0272 42.9472 16.7178C42.9472 16.277 43.1226 15.8578 43.4695 15.4578C43.8197 15.0603 44.3045 14.7542 44.9266 14.5387C45.552 14.3259 46.1991 14.2194 46.8718 14.2194C47.6844 14.2194 48.3289 14.3916 48.8012 14.7351C49.2762 15.0794 49.583 15.4512 49.7236 15.8546C49.8076 16.1108 49.8517 16.6987 49.8517 17.6178V20.9353C49.8517 21.3229 49.8674 21.5699 49.8983 21.6698C49.9298 21.7696 49.9738 21.8452 50.0356 21.8951C50.0987 21.9418 50.167 21.9667 50.2452 21.9667C50.4081 21.9667 50.5703 21.857 50.7392 21.6382L51.0144 21.8504C50.7083 22.3037 50.3923 22.6355 50.0638 22.8385C49.7387 23.0447 49.3668 23.1479 48.951 23.1479C48.4629 23.1479 48.0786 23.0323 47.8033 22.8043C47.5281 22.5731 47.3625 22.2256 47.3001 21.7598V21.7611ZM47.3001 21.0858V18.234C46.5617 18.6689 46.0119 19.1314 45.6492 19.6254C45.4114 19.9539 45.2925 20.2882 45.2925 20.6226C45.2925 20.9044 45.3924 21.1515 45.596 21.3636C45.7491 21.5292 45.9619 21.6107 46.2372 21.6107C46.544 21.6107 46.8968 21.4353 47.3008 21.0851L47.3001 21.0858ZM55.4606 14.4632V15.5701C55.8988 15.0978 56.3205 14.7575 56.7239 14.5413C57.1272 14.3259 57.5588 14.2188 58.0213 14.2188C58.5777 14.2188 59.0376 14.3718 59.4035 14.6819C59.7694 14.9913 60.0132 15.3756 60.1353 15.8322C60.2326 16.1824 60.2825 16.8518 60.2825 17.8398V21.179C60.2825 21.8386 60.3423 22.2485 60.4605 22.4115C60.5794 22.5737 60.8264 22.6742 61.2016 22.7176V23.0362H56.8677V22.7176C57.1929 22.6736 57.4242 22.5396 57.5648 22.3142C57.662 22.1612 57.7119 21.7828 57.7119 21.179V17.3642C57.7119 16.6606 57.6837 16.2165 57.6304 16.0359C57.5739 15.8513 57.4833 15.7107 57.3519 15.6076C57.2205 15.507 57.0766 15.4571 56.9177 15.4571C56.3954 15.4571 55.9106 15.8263 55.4606 16.564V21.179C55.4606 21.8202 55.5204 22.2262 55.6386 22.3957C55.7575 22.5678 55.9796 22.6742 56.3047 22.7176V23.0362H51.9709V22.7176C52.3309 22.6802 52.5839 22.5645 52.7376 22.3707C52.8407 22.2361 52.8906 21.8393 52.8906 21.179V16.3203C52.8906 15.6667 52.8309 15.2567 52.7126 15.0978C52.5937 14.9348 52.3467 14.8317 51.9716 14.7818V14.4632H55.4612H55.4606ZM69.362 20.8131L69.6465 21.0319C69.2431 21.792 68.7399 22.3543 68.1362 22.7235C67.5325 23.096 66.8919 23.2806 66.2133 23.2806C65.0689 23.2806 64.1558 22.8523 63.4713 21.9923C62.7861 21.1324 62.4425 20.0971 62.4425 18.8903C62.4425 17.7275 62.7552 16.7014 63.378 15.8197C64.1315 14.7535 65.1662 14.2188 66.486 14.2188C67.3741 14.2188 68.0771 14.4408 68.5993 14.8882C69.1216 15.3323 69.3844 15.8296 69.3844 16.3762C69.3844 16.723 69.2779 17.0016 69.0684 17.2111C68.8562 17.4174 68.5809 17.5205 68.24 17.5205C67.8773 17.5205 67.5804 17.4016 67.3459 17.1638C67.1081 16.926 66.9649 16.501 66.9084 15.8913C66.8742 15.507 66.7829 15.2377 66.6423 15.0846C66.5017 14.9316 66.3355 14.8567 66.1483 14.8567C65.8546 14.8567 65.6043 15.013 65.3948 15.3224C65.0788 15.7915 64.9192 16.5108 64.9192 17.4765C64.9192 18.2806 65.0473 19.0492 65.3035 19.7844C65.563 20.5195 65.9131 21.0628 66.3605 21.4228C66.6981 21.6856 67.0949 21.8169 67.5548 21.8169C67.855 21.8169 68.1395 21.748 68.4081 21.6074C68.6768 21.4661 68.9961 21.204 69.362 20.8131ZM77.9732 18.4403H73.2642C73.3207 19.5755 73.6236 20.4728 74.1741 21.1324C74.5965 21.6389 75.103 21.8918 75.6969 21.8918C76.0654 21.8918 76.3972 21.7887 76.6974 21.5857C76.9976 21.3827 77.3195 21.0135 77.6605 20.4847L77.9732 20.6909C77.5107 21.6323 76.9943 22.3018 76.4346 22.692C75.8716 23.0829 75.2212 23.2799 74.4802 23.2799C73.211 23.2799 72.2479 22.7918 71.5943 21.8163C71.0687 21.0312 70.8066 20.0557 70.8066 18.8896C70.8066 17.4641 71.1942 16.3289 71.9668 15.4847C72.7393 14.6405 73.6459 14.2181 74.6839 14.2181C75.5504 14.2181 76.3032 14.5716 76.9418 15.2817C77.5796 15.9912 77.9232 17.0449 77.9732 18.4396V18.4403ZM75.7218 17.8398C75.7218 16.8584 75.6686 16.183 75.5622 15.8165C75.4525 15.4505 75.2869 15.1727 75.0623 14.9848C74.9342 14.8751 74.762 14.8192 74.5466 14.8192C74.2306 14.8192 73.9711 14.9756 73.7681 15.285C73.4088 15.8289 73.2268 16.5732 73.2268 17.5205V17.8392H75.7218V17.8398ZM85.2356 19.6786H79.8888V17.7833H85.2356V19.6786Z" fill="white"/>
<path d="M92.4342 19.4907H88.0852L87.5439 20.7034C87.3718 21.1101 87.2877 21.4477 87.2877 21.7131C87.2877 22.0666 87.4283 22.3261 87.7068 22.4949C87.8724 22.5921 88.279 22.667 88.9261 22.7169V23.0355H84.796V22.7169C85.24 22.648 85.6086 22.4607 85.893 22.1572C86.1808 21.8504 86.5375 21.2191 86.956 20.2626L91.3962 10.354H91.5716L96.0519 20.5379C96.4802 21.5134 96.8304 22.129 97.1056 22.3826C97.3152 22.5764 97.6062 22.6861 97.9872 22.7169V23.0355H91.9776V22.7169H92.2246C92.7061 22.7169 93.0471 22.648 93.2409 22.5107C93.3749 22.4134 93.4406 22.2702 93.4406 22.0856C93.4406 21.9733 93.4248 21.8577 93.3874 21.7387C93.3749 21.6855 93.2842 21.451 93.1121 21.0417L92.4335 19.4907H92.4342ZM92.1405 18.8154L90.286 14.5788L88.3881 18.8154H92.1405ZM111.93 14.4631L111.936 16.4143C112.499 15.5294 112.996 14.9414 113.421 14.6537C113.846 14.3626 114.256 14.2188 114.65 14.2188C114.991 14.2188 115.266 14.3252 115.469 14.5348C115.672 14.7443 115.776 15.0413 115.776 15.4262C115.776 15.8329 115.676 16.1515 115.479 16.3768C115.282 16.6021 115.045 16.7145 114.763 16.7145C114.441 16.7145 114.162 16.6113 113.928 16.4051C113.69 16.1955 113.549 16.0799 113.509 16.0582C113.446 16.0208 113.377 16.0017 113.299 16.0017C113.124 16.0017 112.955 16.0674 112.799 16.2021C112.549 16.4116 112.361 16.7086 112.234 17.0935C112.04 17.6841 111.943 18.3378 111.943 19.0538L111.948 21.0201V21.5358C111.948 21.8859 111.971 22.1112 112.014 22.2111C112.086 22.3766 112.195 22.4988 112.339 22.5737C112.486 22.6519 112.73 22.6992 113.074 22.7176V23.0362H108.422V22.7176C108.797 22.6867 109.051 22.5829 109.182 22.4115C109.314 22.2361 109.379 21.7769 109.379 21.0293V16.2829C109.379 15.7856 109.354 15.4702 109.304 15.3323C109.245 15.1569 109.155 15.0321 109.038 14.9506C108.923 14.8691 108.716 14.8133 108.423 14.7818V14.4631H111.931H111.93ZM103.919 12.3623C104.182 11.2553 105.758 10.8237 106.565 11.6114C107.034 12.043 107.09 12.8872 106.583 13.3372C106.058 13.8627 104.951 13.5999 104.858 12.8116C104.745 12.2486 105.327 11.93 105.589 11.5358C105.026 11.6298 104.314 11.8735 104.276 12.5679C104.051 13.5809 104.877 14.2937 105.57 14.8941C107.465 16.6199 107.015 20.2035 104.67 21.2914C103.62 21.8912 102.419 21.61 101.293 21.4786C100.486 21.7039 99.3235 22.4726 99.8293 23.4481C100.561 24.1799 101.686 23.7858 102.531 23.4856C103.676 23.1104 104.932 22.3977 106.133 22.9416C107.259 23.523 107.259 25.1364 106.659 26.0936C105.627 27.6315 103.413 28.0073 101.762 27.3503C100.937 27.0317 100.486 26.2434 99.9797 25.5681C99.4732 25.1555 98.7789 24.7988 98.7605 24.0486C98.4977 22.623 99.8483 21.7033 100.974 21.2158C98.817 19.9401 98.4793 16.6199 100.262 14.875C101.275 13.8614 102.851 13.6742 104.201 14.0309C103.995 13.5053 103.732 12.9239 103.92 12.3616L103.919 12.3623ZM101.874 14.4822C100.993 15.1766 100.974 16.3959 100.936 17.4273C100.955 18.4784 100.88 19.6411 101.443 20.5793C102.062 21.6297 103.825 21.6113 104.425 20.5793C104.913 19.7725 104.894 18.816 104.932 17.9154C104.913 16.9398 104.95 15.8703 104.444 14.9887C103.937 14.1071 102.661 13.9573 101.873 14.4822H101.874ZM103.807 24.5564C102.682 24.9131 101.575 25.3256 100.411 25.551C101.293 27.4646 104.032 27.8588 105.589 26.5824C106.152 26.1133 106.34 25.1568 105.758 24.6503C105.214 24.1813 104.426 24.3875 103.807 24.5564ZM119.788 14.2385C121.57 12.6434 124.759 12.9253 126.054 15.0268C127.18 16.884 127.067 19.3606 126.035 21.2362C125.003 21.2927 123.878 21.405 123.09 22.1553C123.071 22.4364 123.053 22.7183 123.015 22.9994C122.002 22.8306 120.876 22.7557 120.051 22.0613C118.794 21.1232 118.344 19.4914 118.325 17.9903C118.925 18.3654 119.545 18.703 120.22 18.9284C120.332 20.3539 120.595 22.3241 122.359 22.5494C122.471 21.5923 122.565 20.6358 122.359 19.6793C122.19 18.9474 121.833 18.2911 121.571 17.5784C122.752 18.479 123.128 20.0734 123.147 21.4996C123.972 21.1055 124.873 21.162 125.736 21.049C125.792 20.5615 124.966 20.955 124.704 20.8052C125.004 18.7792 125.23 16.5654 124.385 14.6517C123.691 13.1696 121.458 13.301 120.708 14.6707C120.389 14.5394 120.089 14.3889 119.788 14.2391L119.788 14.2385ZM116.355 14.651C118.043 14.2569 120.032 14.3883 121.364 15.6266C121.945 16.1331 122.208 16.8833 122.302 17.6342C121.42 16.8833 120.482 16.1331 119.3 15.9459C120.144 16.6961 121.026 17.4095 121.626 18.366C120.463 18.8725 118.982 18.5349 118.362 17.3721C117.837 16.3584 117.293 15.3461 116.355 14.6517V14.651ZM124.384 21.5923C124.796 21.5923 125.228 21.5923 125.64 21.6113C125.096 22.1927 124.365 22.5678 123.614 22.8122L123.126 22.3806C123.689 22.399 124.026 21.949 124.383 21.5923H124.384Z" fill="white"/>
</svg>
